  0
SECTION
  2
HEADER
  9
$ACADVER
  1
AC1009
  9
$EXTMIN
 10
0.0
 20
0.0
 30
0.0
  9
$EXTMAX
 10
1000.0
 20
1000.0
 30
0.0
  9
$FILLMODE
 70
 0
  9
$SPLFRAME
 70
 1
  0
ENDSEC
  0
SECTION
  2
TABLES
  0
TABLE
  2
LAYER
 70
1
  0
LAYER
  2
0
 70
     0
 62
     7
  6
CONTINUOUS
  0
ENDTAB
  0
ENDSEC
  0
SECTION
  2
ENTITIES
  0
LINE
  8
0
 62
     0
 10
274.271
 20
101.152
 30
0.0
 11
274.507
 21
101.142
 31
0.0
  0
LINE
  8
0
 62
     0
 10
274.507
 20
101.142
 30
0.0
 11
274.741
 21
101.116
 31
0.0
  0
LINE
  8
0
 62
     0
 10
274.741
 20
101.116
 30
0.0
 11
274.971
 21
101.069
 31
0.0
  0
LINE
  8
0
 62
     0
 10
274.971
 20
101.069
 30
0.0
 11
275.198
 21
101.006
 31
0.0
  0
LINE
  8
0
 62
     0
 10
275.198
 20
101.006
 30
0.0
 11
275.419
 21
100.923
 31
0.0
  0
LINE
  8
0
 62
     0
 10
275.419
 20
100.923
 30
0.0
 11
275.632
 21
100.826
 31
0.0
  0
LINE
  8
0
 62
     0
 10
275.632
 20
100.826
 30
0.0
 11
275.839
 21
100.71
 31
0.0
  0
LINE
  8
0
 62
     0
 10
275.839
 20
100.71
 30
0.0
 11
276.035
 21
100.58
 31
0.0
  0
LINE
  8
0
 62
     0
 10
276.035
 20
100.58
 30
0.0
 11
276.219
 21
100.434
 31
0.0
  0
LINE
  8
0
 62
     0
 10
276.219
 20
100.434
 30
0.0
 11
276.393
 21
100.274
 31
0.0
  0
LINE
  8
0
 62
     0
 10
276.393
 20
100.274
 30
0.0
 11
276.553
 21
100.101
 31
0.0
  0
LINE
  8
0
 62
     0
 10
276.553
 20
100.101
 30
0.0
 11
276.699
 21
99.9162
 31
0.0
  0
LINE
  8
0
 62
     0
 10
276.699
 20
99.9162
 30
0.0
 11
276.829
 21
99.7204
 31
0.0
  0
LINE
  8
0
 62
     0
 10
276.829
 20
99.7204
 30
0.0
 11
276.944
 21
99.5137
 31
0.0
  0
LINE
  8
0
 62
     0
 10
276.944
 20
99.5137
 30
0.0
 11
277.042
 21
99.2999
 31
0.0
  0
LINE
  8
0
 62
     0
 10
277.042
 20
99.2999
 30
0.0
 11
277.125
 21
99.0794
 31
0.0
  0
LINE
  8
0
 62
     0
 10
277.125
 20
99.0794
 30
0.0
 11
277.188
 21
98.8522
 31
0.0
  0
LINE
  8
0
 62
     0
 10
277.188
 20
98.8522
 30
0.0
 11
277.235
 21
98.6222
 31
0.0
  0
LINE
  8
0
 62
     0
 10
277.235
 20
98.6222
 30
0.0
 11
277.261
 21
98.388
 31
0.0
  0
LINE
  8
0
 62
     0
 10
277.261
 20
98.388
 30
0.0
 11
277.271
 21
98.1523
 31
0.0
  0
LINE
  8
0
 62
     0
 10
277.271
 20
98.1523
 30
0.0
 11
277.271
 21
3.18878
 31
0.0
  0
LINE
  8
0
 62
     0
 10
277.271
 20
3.18878
 30
0.0
 11
277.261
 21
2.95313
 31
0.0
  0
LINE
  8
0
 62
     0
 10
277.261
 20
2.95313
 30
0.0
 11
277.235
 21
2.72025
 31
0.0
  0
LINE
  8
0
 62
     0
 10
277.235
 20
2.72025
 30
0.0
 11
277.188
 21
2.48874
 31
0.0
  0
LINE
  8
0
 62
     0
 10
277.188
 20
2.48874
 30
0.0
 11
277.125
 21
2.26136
 31
0.0
  0
LINE
  8
0
 62
     0
 10
277.125
 20
2.26136
 30
0.0
 11
277.042
 21
2.04088
 31
0.0
  0
LINE
  8
0
 62
     0
 10
277.042
 20
2.04088
 30
0.0
 11
276.944
 21
1.82728
 31
0.0
  0
LINE
  8
0
 62
     0
 10
276.944
 20
1.82728
 30
0.0
 11
276.829
 21
1.62195
 31
0.0
  0
LINE
  8
0
 62
     0
 10
276.829
 20
1.62195
 30
0.0
 11
276.699
 21
1.42627
 31
0.0
  0
LINE
  8
0
 62
     0
 10
276.699
 20
1.42627
 30
0.0
 11
276.553
 21
1.24024
 31
0.0
  0
LINE
  8
0
 62
     0
 10
276.553
 20
1.24024
 30
0.0
 11
276.393
 21
1.06798
 31
0.0
  0
LINE
  8
0
 62
     0
 10
276.393
 20
1.06798
 30
0.0
 11
276.219
 21
0.908128
 31
0.0
  0
LINE
  8
0
 62
     0
 10
276.219
 20
0.908128
 30
0.0
 11
276.035
 21
0.762056
 31
0.0
  0
LINE
  8
0
 62
     0
 10
276.035
 20
0.762056
 30
0.0
 11
275.839
 21
0.631141
 31
0.0
  0
LINE
  8
0
 62
     0
 10
275.839
 20
0.631141
 30
0.0
 11
275.632
 21
0.515387
 31
0.0
  0
LINE
  8
0
 62
     0
 10
275.632
 20
0.515387
 30
0.0
 11
275.419
 21
0.416168
 31
0.0
  0
LINE
  8
0
 62
     0
 10
275.419
 20
0.416168
 30
0.0
 11
275.198
 21
0.336241
 31
0.0
  0
LINE
  8
0
 62
     0
 10
275.198
 20
0.336241
 30
0.0
 11
274.971
 21
0.271473
 31
0.0
  0
LINE
  8
0
 62
     0
 10
274.971
 20
0.271473
 30
0.0
 11
274.741
 21
0.225998
 31
0.0
  0
LINE
  8
0
 62
     0
 10
274.741
 20
0.225998
 30
0.0
 11
274.507
 21
0.19706
 31
0.0
  0
LINE
  8
0
 62
     0
 10
274.507
 20
0.19706
 30
0.0
 11
274.271
 21
0.188791
 31
0.0
  0
LINE
  8
0
 62
     0
 10
274.271
 20
0.188791
 30
0.0
 11
3.09507
 21
0.188791
 31
0.0
  0
LINE
  8
0
 62
     0
 10
3.09507
 20
0.188791
 30
0.0
 11
2.85943
 21
0.19706
 31
0.0
  0
LINE
  8
0
 62
     0
 10
2.85943
 20
0.19706
 30
0.0
 11
2.62516
 21
0.225998
 31
0.0
  0
LINE
  8
0
 62
     0
 10
2.62516
 20
0.225998
 30
0.0
 11
2.39503
 21
0.271473
 31
0.0
  0
LINE
  8
0
 62
     0
 10
2.39503
 20
0.271473
 30
0.0
 11
2.16765
 21
0.336241
 31
0.0
  0
LINE
  8
0
 62
     0
 10
2.16765
 20
0.336241
 30
0.0
 11
1.94717
 21
0.416168
 31
0.0
  0
LINE
  8
0
 62
     0
 10
1.94717
 20
0.416168
 30
0.0
 11
1.73357
 21
0.515387
 31
0.0
  0
LINE
  8
0
 62
     0
 10
1.73357
 20
0.515387
 30
0.0
 11
1.52687
 21
0.631141
 31
0.0
  0
LINE
  8
0
 62
     0
 10
1.52687
 20
0.631141
 30
0.0
 11
1.33119
 21
0.762056
 31
0.0
  0
LINE
  8
0
 62
     0
 10
1.33119
 20
0.762056
 30
0.0
 11
1.14653
 21
0.908128
 31
0.0
  0
LINE
  8
0
 62
     0
 10
1.14653
 20
0.908128
 30
0.0
 11
0.972894
 21
1.06798
 31
0.0
  0
LINE
  8
0
 62
     0
 10
0.972894
 20
1.06798
 30
0.0
 11
0.813043
 21
1.24024
 31
0.0
  0
LINE
  8
0
 62
     0
 10
0.813043
 20
1.24024
 30
0.0
 11
0.666972
 21
1.42627
 31
0.0
  0
LINE
  8
0
 62
     0
 10
0.666972
 20
1.42627
 30
0.0
 11
0.537436
 21
1.62195
 31
0.0
  0
LINE
  8
0
 62
     0
 10
0.537436
 20
1.62195
 30
0.0
 11
0.421679
 21
1.82728
 31
0.0
  0
LINE
  8
0
 62
     0
 10
0.421679
 20
1.82728
 30
0.0
 11
0.323839
 21
2.04088
 31
0.0
  0
LINE
  8
0
 62
     0
 10
0.323839
 20
2.04088
 30
0.0
 11
0.241157
 21
2.26136
 31
0.0
  0
LINE
  8
0
 62
     0
 10
0.241157
 20
2.26136
 30
0.0
 11
0.177767
 21
2.48874
 31
0.0
  0
LINE
  8
0
 62
     0
 10
0.177767
 20
2.48874
 30
0.0
 11
0.130914
 21
2.72025
 31
0.0
  0
LINE
  8
0
 62
     0
 10
0.130914
 20
2.72025
 30
0.0
 11
0.104731
 21
2.95313
 31
0.0
  0
LINE
  8
0
 62
     0
 10
0.104731
 20
2.95313
 30
0.0
 11
0.0950846
 21
3.18878
 31
0.0
  0
LINE
  8
0
 62
     0
 10
0.0950846
 20
3.18878
 30
0.0
 11
0.0950846
 21
98.1523
 31
0.0
  0
LINE
  8
0
 62
     0
 10
0.0950846
 20
98.1523
 30
0.0
 11
0.104731
 21
98.388
 31
0.0
  0
LINE
  8
0
 62
     0
 10
0.104731
 20
98.388
 30
0.0
 11
0.130914
 21
98.6222
 31
0.0
  0
LINE
  8
0
 62
     0
 10
0.130914
 20
98.6222
 30
0.0
 11
0.177767
 21
98.8522
 31
0.0
  0
LINE
  8
0
 62
     0
 10
0.177767
 20
98.8522
 30
0.0
 11
0.241157
 21
99.0794
 31
0.0
  0
LINE
  8
0
 62
     0
 10
0.241157
 20
99.0794
 30
0.0
 11
0.323839
 21
99.2999
 31
0.0
  0
LINE
  8
0
 62
     0
 10
0.323839
 20
99.2999
 30
0.0
 11
0.421679
 21
99.5137
 31
0.0
  0
LINE
  8
0
 62
     0
 10
0.421679
 20
99.5137
 30
0.0
 11
0.537436
 21
99.7204
 31
0.0
  0
LINE
  8
0
 62
     0
 10
0.537436
 20
99.7204
 30
0.0
 11
0.666972
 21
99.9162
 31
0.0
  0
LINE
  8
0
 62
     0
 10
0.666972
 20
99.9162
 30
0.0
 11
0.813043
 21
100.101
 31
0.0
  0
LINE
  8
0
 62
     0
 10
0.813043
 20
100.101
 30
0.0
 11
0.972894
 21
100.274
 31
0.0
  0
LINE
  8
0
 62
     0
 10
0.972894
 20
100.274
 30
0.0
 11
1.14653
 21
100.434
 31
0.0
  0
LINE
  8
0
 62
     0
 10
1.14653
 20
100.434
 30
0.0
 11
1.33119
 21
100.58
 31
0.0
  0
LINE
  8
0
 62
     0
 10
1.33119
 20
100.58
 30
0.0
 11
1.52687
 21
100.71
 31
0.0
  0
LINE
  8
0
 62
     0
 10
1.52687
 20
100.71
 30
0.0
 11
1.73357
 21
100.826
 31
0.0
  0
LINE
  8
0
 62
     0
 10
1.73357
 20
100.826
 30
0.0
 11
1.94717
 21
100.923
 31
0.0
  0
LINE
  8
0
 62
     0
 10
1.94717
 20
100.923
 30
0.0
 11
2.16765
 21
101.006
 31
0.0
  0
LINE
  8
0
 62
     0
 10
2.16765
 20
101.006
 30
0.0
 11
2.39503
 21
101.069
 31
0.0
  0
LINE
  8
0
 62
     0
 10
2.39503
 20
101.069
 30
0.0
 11
2.62516
 21
101.116
 31
0.0
  0
LINE
  8
0
 62
     0
 10
2.62516
 20
101.116
 30
0.0
 11
2.85943
 21
101.142
 31
0.0
  0
LINE
  8
0
 62
     0
 10
2.85943
 20
101.142
 30
0.0
 11
3.09507
 21
101.152
 31
0.0
  0
LINE
  8
0
 62
     0
 10
3.09507
 20
101.152
 30
0.0
 11
274.271
 21
101.152
 31
0.0
  0
LINE
  8
0
 62
     0
 10
4.55443
 20
6.85299
 30
0.0
 11
4.06658
 21
6.60495
 31
0.0
  0
LINE
  8
0
 62
     0
 10
4.06658
 20
6.60495
 30
0.0
 11
3.67937
 21
6.21771
 31
0.0
  0
LINE
  8
0
 62
     0
 10
3.67937
 20
6.21771
 30
0.0
 11
3.42994
 21
5.72989
 31
0.0
  0
LINE
  8
0
 62
     0
 10
3.42994
 20
5.72989
 30
0.0
 11
3.34588
 21
5.1883
 31
0.0
  0
LINE
  8
0
 62
     0
 10
3.34588
 20
5.1883
 30
0.0
 11
3.42994
 21
4.64813
 31
0.0
  0
LINE
  8
0
 62
     0
 10
3.42994
 20
4.64813
 30
0.0
 11
3.67937
 21
4.16031
 31
0.0
  0
LINE
  8
0
 62
     0
 10
3.67937
 20
4.16031
 30
0.0
 11
4.06658
 21
3.77306
 31
0.0
  0
LINE
  8
0
 62
     0
 10
4.06658
 20
3.77306
 30
0.0
 11
4.55443
 21
3.52502
 31
0.0
  0
LINE
  8
0
 62
     0
 10
4.55443
 20
3.52502
 30
0.0
 11
5.09598
 21
3.4382
 31
0.0
  0
LINE
  8
0
 62
     0
 10
5.09598
 20
3.4382
 30
0.0
 11
5.63619
 21
3.52502
 31
0.0
  0
LINE
  8
0
 62
     0
 10
5.63619
 20
3.52502
 30
0.0
 11
6.12401
 21
3.77306
 31
0.0
  0
LINE
  8
0
 62
     0
 10
6.12401
 20
3.77306
 30
0.0
 11
6.50984
 21
4.16031
 31
0.0
  0
LINE
  8
0
 62
     0
 10
6.50984
 20
4.16031
 30
0.0
 11
6.75929
 21
4.64813
 31
0.0
  0
LINE
  8
0
 62
     0
 10
6.75929
 20
4.64813
 30
0.0
 11
6.84611
 21
5.1883
 31
0.0
  0
LINE
  8
0
 62
     0
 10
6.84611
 20
5.1883
 30
0.0
 11
6.75929
 21
5.72989
 31
0.0
  0
LINE
  8
0
 62
     0
 10
6.75929
 20
5.72989
 30
0.0
 11
6.50984
 21
6.21771
 31
0.0
  0
LINE
  8
0
 62
     0
 10
6.50984
 20
6.21771
 30
0.0
 11
6.12401
 21
6.60495
 31
0.0
  0
LINE
  8
0
 62
     0
 10
6.12401
 20
6.60495
 30
0.0
 11
5.63619
 21
6.85299
 31
0.0
  0
LINE
  8
0
 62
     0
 10
5.63619
 20
6.85299
 30
0.0
 11
5.09598
 21
6.93843
 31
0.0
  0
LINE
  8
0
 62
     0
 10
5.09598
 20
6.93843
 30
0.0
 11
4.55443
 21
6.85299
 31
0.0
  0
LINE
  8
0
 62
     0
 10
93.6128
 20
6.85299
 30
0.0
 11
93.1252
 21
6.60495
 31
0.0
  0
LINE
  8
0
 62
     0
 10
93.1252
 20
6.60495
 30
0.0
 11
92.7379
 21
6.21771
 31
0.0
  0
LINE
  8
0
 62
     0
 10
92.7379
 20
6.21771
 30
0.0
 11
92.4899
 21
5.72989
 31
0.0
  0
LINE
  8
0
 62
     0
 10
92.4899
 20
5.72989
 30
0.0
 11
92.4031
 21
5.1883
 31
0.0
  0
LINE
  8
0
 62
     0
 10
92.4031
 20
5.1883
 30
0.0
 11
92.4899
 21
4.64813
 31
0.0
  0
LINE
  8
0
 62
     0
 10
92.4899
 20
4.64813
 30
0.0
 11
92.7379
 21
4.16031
 31
0.0
  0
LINE
  8
0
 62
     0
 10
92.7379
 20
4.16031
 30
0.0
 11
93.1252
 21
3.77306
 31
0.0
  0
LINE
  8
0
 62
     0
 10
93.1252
 20
3.77306
 30
0.0
 11
93.6128
 21
3.52502
 31
0.0
  0
LINE
  8
0
 62
     0
 10
93.6128
 20
3.52502
 30
0.0
 11
94.1532
 21
3.4382
 31
0.0
  0
LINE
  8
0
 62
     0
 10
94.1532
 20
3.4382
 30
0.0
 11
94.6947
 21
3.52502
 31
0.0
  0
LINE
  8
0
 62
     0
 10
94.6947
 20
3.52502
 30
0.0
 11
95.1826
 21
3.77306
 31
0.0
  0
LINE
  8
0
 62
     0
 10
95.1826
 20
3.77306
 30
0.0
 11
95.5696
 21
4.16031
 31
0.0
  0
LINE
  8
0
 62
     0
 10
95.5696
 20
4.16031
 30
0.0
 11
95.819
 21
4.64813
 31
0.0
  0
LINE
  8
0
 62
     0
 10
95.819
 20
4.64813
 30
0.0
 11
95.9033
 21
5.1883
 31
0.0
  0
LINE
  8
0
 62
     0
 10
95.9033
 20
5.1883
 30
0.0
 11
95.819
 21
5.72989
 31
0.0
  0
LINE
  8
0
 62
     0
 10
95.819
 20
5.72989
 30
0.0
 11
95.5696
 21
6.21771
 31
0.0
  0
LINE
  8
0
 62
     0
 10
95.5696
 20
6.21771
 30
0.0
 11
95.1826
 21
6.60495
 31
0.0
  0
LINE
  8
0
 62
     0
 10
95.1826
 20
6.60495
 30
0.0
 11
94.6947
 21
6.85299
 31
0.0
  0
LINE
  8
0
 62
     0
 10
94.6947
 20
6.85299
 30
0.0
 11
94.1532
 21
6.93843
 31
0.0
  0
LINE
  8
0
 62
     0
 10
94.1532
 20
6.93843
 30
0.0
 11
93.6128
 21
6.85299
 31
0.0
  0
LINE
  8
0
 62
     0
 10
182.672
 20
6.85299
 30
0.0
 11
182.184
 21
6.60495
 31
0.0
  0
LINE
  8
0
 62
     0
 10
182.184
 20
6.60495
 30
0.0
 11
181.796
 21
6.21771
 31
0.0
  0
LINE
  8
0
 62
     0
 10
181.796
 20
6.21771
 30
0.0
 11
181.547
 21
5.72989
 31
0.0
  0
LINE
  8
0
 62
     0
 10
181.547
 20
5.72989
 30
0.0
 11
181.463
 21
5.1883
 31
0.0
  0
LINE
  8
0
 62
     0
 10
181.463
 20
5.1883
 30
0.0
 11
181.547
 21
4.64813
 31
0.0
  0
LINE
  8
0
 62
     0
 10
181.547
 20
4.64813
 30
0.0
 11
181.796
 21
4.16031
 31
0.0
  0
LINE
  8
0
 62
     0
 10
181.796
 20
4.16031
 30
0.0
 11
182.184
 21
3.77306
 31
0.0
  0
LINE
  8
0
 62
     0
 10
182.184
 20
3.77306
 30
0.0
 11
182.672
 21
3.52502
 31
0.0
  0
LINE
  8
0
 62
     0
 10
182.672
 20
3.52502
 30
0.0
 11
183.213
 21
3.4382
 31
0.0
  0
LINE
  8
0
 62
     0
 10
183.213
 20
3.4382
 30
0.0
 11
183.753
 21
3.52502
 31
0.0
  0
LINE
  8
0
 62
     0
 10
183.753
 20
3.52502
 30
0.0
 11
184.241
 21
3.77306
 31
0.0
  0
LINE
  8
0
 62
     0
 10
184.241
 20
3.77306
 30
0.0
 11
184.628
 21
4.16031
 31
0.0
  0
LINE
  8
0
 62
     0
 10
184.628
 20
4.16031
 30
0.0
 11
184.876
 21
4.64813
 31
0.0
  0
LINE
  8
0
 62
     0
 10
184.876
 20
4.64813
 30
0.0
 11
184.963
 21
5.1883
 31
0.0
  0
LINE
  8
0
 62
     0
 10
184.963
 20
5.1883
 30
0.0
 11
184.876
 21
5.72989
 31
0.0
  0
LINE
  8
0
 62
     0
 10
184.876
 20
5.72989
 30
0.0
 11
184.628
 21
6.21771
 31
0.0
  0
LINE
  8
0
 62
     0
 10
184.628
 20
6.21771
 30
0.0
 11
184.241
 21
6.60495
 31
0.0
  0
LINE
  8
0
 62
     0
 10
184.241
 20
6.60495
 30
0.0
 11
183.753
 21
6.85299
 31
0.0
  0
LINE
  8
0
 62
     0
 10
183.753
 20
6.85299
 30
0.0
 11
183.213
 21
6.93843
 31
0.0
  0
LINE
  8
0
 62
     0
 10
183.213
 20
6.93843
 30
0.0
 11
182.672
 21
6.85299
 31
0.0
  0
LINE
  8
0
 62
     0
 10
271.73
 20
6.85299
 30
0.0
 11
271.242
 21
6.60495
 31
0.0
  0
LINE
  8
0
 62
     0
 10
271.242
 20
6.60495
 30
0.0
 11
270.856
 21
6.21771
 31
0.0
  0
LINE
  8
0
 62
     0
 10
270.856
 20
6.21771
 30
0.0
 11
270.607
 21
5.72989
 31
0.0
  0
LINE
  8
0
 62
     0
 10
270.607
 20
5.72989
 30
0.0
 11
270.521
 21
5.1883
 31
0.0
  0
LINE
  8
0
 62
     0
 10
270.521
 20
5.1883
 30
0.0
 11
270.607
 21
4.64813
 31
0.0
  0
LINE
  8
0
 62
     0
 10
270.607
 20
4.64813
 30
0.0
 11
270.856
 21
4.16031
 31
0.0
  0
LINE
  8
0
 62
     0
 10
270.856
 20
4.16031
 30
0.0
 11
271.242
 21
3.77306
 31
0.0
  0
LINE
  8
0
 62
     0
 10
271.242
 20
3.77306
 30
0.0
 11
271.73
 21
3.52502
 31
0.0
  0
LINE
  8
0
 62
     0
 10
271.73
 20
3.52502
 30
0.0
 11
272.271
 21
3.4382
 31
0.0
  0
LINE
  8
0
 62
     0
 10
272.271
 20
3.4382
 30
0.0
 11
272.812
 21
3.52502
 31
0.0
  0
LINE
  8
0
 62
     0
 10
272.812
 20
3.52502
 30
0.0
 11
273.299
 21
3.77306
 31
0.0
  0
LINE
  8
0
 62
     0
 10
273.299
 20
3.77306
 30
0.0
 11
273.687
 21
4.16031
 31
0.0
  0
LINE
  8
0
 62
     0
 10
273.687
 20
4.16031
 30
0.0
 11
273.936
 21
4.64813
 31
0.0
  0
LINE
  8
0
 62
     0
 10
273.936
 20
4.64813
 30
0.0
 11
274.022
 21
5.1883
 31
0.0
  0
LINE
  8
0
 62
     0
 10
274.022
 20
5.1883
 30
0.0
 11
273.936
 21
5.72989
 31
0.0
  0
LINE
  8
0
 62
     0
 10
273.936
 20
5.72989
 30
0.0
 11
273.687
 21
6.21771
 31
0.0
  0
LINE
  8
0
 62
     0
 10
273.687
 20
6.21771
 30
0.0
 11
273.299
 21
6.60495
 31
0.0
  0
LINE
  8
0
 62
     0
 10
273.299
 20
6.60495
 30
0.0
 11
272.812
 21
6.85299
 31
0.0
  0
LINE
  8
0
 62
     0
 10
272.812
 20
6.85299
 30
0.0
 11
272.271
 21
6.93843
 31
0.0
  0
LINE
  8
0
 62
     0
 10
272.271
 20
6.93843
 30
0.0
 11
271.73
 21
6.85299
 31
0.0
  0
LINE
  8
0
 62
     0
 10
245.982
 20
26.7147
 30
0.0
 11
245.982
 21
25.7142
 31
0.0
  0
LINE
  8
0
 62
     0
 10
245.982
 20
25.7142
 30
0.0
 11
245.182
 21
25.7142
 31
0.0
  0
LINE
  8
0
 62
     0
 10
245.182
 20
25.7142
 30
0.0
 11
245.182
 21
22.615
 31
0.0
  0
LINE
  8
0
 62
     0
 10
245.182
 20
22.615
 30
0.0
 11
245.982
 21
22.615
 31
0.0
  0
LINE
  8
0
 62
     0
 10
245.982
 20
22.615
 30
0.0
 11
245.982
 21
16.8148
 31
0.0
  0
LINE
  8
0
 62
     0
 10
245.982
 20
16.8148
 30
0.0
 11
245.182
 21
16.8148
 31
0.0
  0
LINE
  8
0
 62
     0
 10
245.182
 20
16.8148
 30
0.0
 11
245.182
 21
13.7142
 31
0.0
  0
LINE
  8
0
 62
     0
 10
245.182
 20
13.7142
 30
0.0
 11
245.982
 21
13.7142
 31
0.0
  0
LINE
  8
0
 62
     0
 10
245.982
 20
13.7142
 30
0.0
 11
245.982
 21
12.7152
 31
0.0
  0
LINE
  8
0
 62
     0
 10
245.982
 20
12.7152
 30
0.0
 11
259.982
 21
12.7152
 31
0.0
  0
LINE
  8
0
 62
     0
 10
259.982
 20
12.7152
 30
0.0
 11
259.982
 21
13.7142
 31
0.0
  0
LINE
  8
0
 62
     0
 10
259.982
 20
13.7142
 30
0.0
 11
260.783
 21
13.7142
 31
0.0
  0
LINE
  8
0
 62
     0
 10
260.783
 20
13.7142
 30
0.0
 11
260.783
 21
16.8148
 31
0.0
  0
LINE
  8
0
 62
     0
 10
260.783
 20
16.8148
 30
0.0
 11
259.982
 21
16.8148
 31
0.0
  0
LINE
  8
0
 62
     0
 10
259.982
 20
16.8148
 30
0.0
 11
259.982
 21
22.615
 31
0.0
  0
LINE
  8
0
 62
     0
 10
259.982
 20
22.615
 30
0.0
 11
260.783
 21
22.615
 31
0.0
  0
LINE
  8
0
 62
     0
 10
260.783
 20
22.615
 30
0.0
 11
260.783
 21
25.7142
 31
0.0
  0
LINE
  8
0
 62
     0
 10
260.783
 20
25.7142
 30
0.0
 11
259.982
 21
25.7142
 31
0.0
  0
LINE
  8
0
 62
     0
 10
259.982
 20
25.7142
 30
0.0
 11
259.982
 21
26.7147
 31
0.0
  0
LINE
  8
0
 62
     0
 10
259.982
 20
26.7147
 30
0.0
 11
245.982
 21
26.7147
 31
0.0
  0
LINE
  8
0
 62
     0
 10
226.932
 20
26.7147
 30
0.0
 11
226.932
 21
25.7142
 31
0.0
  0
LINE
  8
0
 62
     0
 10
226.932
 20
25.7142
 30
0.0
 11
226.132
 21
25.7142
 31
0.0
  0
LINE
  8
0
 62
     0
 10
226.132
 20
25.7142
 30
0.0
 11
226.132
 21
22.615
 31
0.0
  0
LINE
  8
0
 62
     0
 10
226.132
 20
22.615
 30
0.0
 11
226.932
 21
22.615
 31
0.0
  0
LINE
  8
0
 62
     0
 10
226.932
 20
22.615
 30
0.0
 11
226.932
 21
16.8148
 31
0.0
  0
LINE
  8
0
 62
     0
 10
226.932
 20
16.8148
 30
0.0
 11
226.132
 21
16.8148
 31
0.0
  0
LINE
  8
0
 62
     0
 10
226.132
 20
16.8148
 30
0.0
 11
226.132
 21
13.7142
 31
0.0
  0
LINE
  8
0
 62
     0
 10
226.132
 20
13.7142
 30
0.0
 11
226.932
 21
13.7142
 31
0.0
  0
LINE
  8
0
 62
     0
 10
226.932
 20
13.7142
 30
0.0
 11
226.932
 21
12.7152
 31
0.0
  0
LINE
  8
0
 62
     0
 10
226.932
 20
12.7152
 30
0.0
 11
240.932
 21
12.7152
 31
0.0
  0
LINE
  8
0
 62
     0
 10
240.932
 20
12.7152
 30
0.0
 11
240.932
 21
13.7142
 31
0.0
  0
LINE
  8
0
 62
     0
 10
240.932
 20
13.7142
 30
0.0
 11
241.733
 21
13.7142
 31
0.0
  0
LINE
  8
0
 62
     0
 10
241.733
 20
13.7142
 30
0.0
 11
241.733
 21
16.8148
 31
0.0
  0
LINE
  8
0
 62
     0
 10
241.733
 20
16.8148
 30
0.0
 11
240.932
 21
16.8148
 31
0.0
  0
LINE
  8
0
 62
     0
 10
240.932
 20
16.8148
 30
0.0
 11
240.932
 21
22.615
 31
0.0
  0
LINE
  8
0
 62
     0
 10
240.932
 20
22.615
 30
0.0
 11
241.733
 21
22.615
 31
0.0
  0
LINE
  8
0
 62
     0
 10
241.733
 20
22.615
 30
0.0
 11
241.733
 21
25.7142
 31
0.0
  0
LINE
  8
0
 62
     0
 10
241.733
 20
25.7142
 30
0.0
 11
240.932
 21
25.7142
 31
0.0
  0
LINE
  8
0
 62
     0
 10
240.932
 20
25.7142
 30
0.0
 11
240.932
 21
26.7147
 31
0.0
  0
LINE
  8
0
 62
     0
 10
240.932
 20
26.7147
 30
0.0
 11
226.932
 21
26.7147
 31
0.0
  0
LINE
  8
0
 62
     0
 10
207.882
 20
26.7147
 30
0.0
 11
207.882
 21
25.7142
 31
0.0
  0
LINE
  8
0
 62
     0
 10
207.882
 20
25.7142
 30
0.0
 11
207.082
 21
25.7142
 31
0.0
  0
LINE
  8
0
 62
     0
 10
207.082
 20
25.7142
 30
0.0
 11
207.082
 21
22.615
 31
0.0
  0
LINE
  8
0
 62
     0
 10
207.082
 20
22.615
 30
0.0
 11
207.882
 21
22.615
 31
0.0
  0
LINE
  8
0
 62
     0
 10
207.882
 20
22.615
 30
0.0
 11
207.882
 21
16.8148
 31
0.0
  0
LINE
  8
0
 62
     0
 10
207.882
 20
16.8148
 30
0.0
 11
207.082
 21
16.8148
 31
0.0
  0
LINE
  8
0
 62
     0
 10
207.082
 20
16.8148
 30
0.0
 11
207.082
 21
13.7142
 31
0.0
  0
LINE
  8
0
 62
     0
 10
207.082
 20
13.7142
 30
0.0
 11
207.882
 21
13.7142
 31
0.0
  0
LINE
  8
0
 62
     0
 10
207.882
 20
13.7142
 30
0.0
 11
207.882
 21
12.7152
 31
0.0
  0
LINE
  8
0
 62
     0
 10
207.882
 20
12.7152
 30
0.0
 11
221.882
 21
12.7152
 31
0.0
  0
LINE
  8
0
 62
     0
 10
221.882
 20
12.7152
 30
0.0
 11
221.882
 21
13.7142
 31
0.0
  0
LINE
  8
0
 62
     0
 10
221.882
 20
13.7142
 30
0.0
 11
222.683
 21
13.7142
 31
0.0
  0
LINE
  8
0
 62
     0
 10
222.683
 20
13.7142
 30
0.0
 11
222.683
 21
16.8148
 31
0.0
  0
LINE
  8
0
 62
     0
 10
222.683
 20
16.8148
 30
0.0
 11
221.882
 21
16.8148
 31
0.0
  0
LINE
  8
0
 62
     0
 10
221.882
 20
16.8148
 30
0.0
 11
221.882
 21
22.615
 31
0.0
  0
LINE
  8
0
 62
     0
 10
221.882
 20
22.615
 30
0.0
 11
222.683
 21
22.615
 31
0.0
  0
LINE
  8
0
 62
     0
 10
222.683
 20
22.615
 30
0.0
 11
222.683
 21
25.7142
 31
0.0
  0
LINE
  8
0
 62
     0
 10
222.683
 20
25.7142
 30
0.0
 11
221.882
 21
25.7142
 31
0.0
  0
LINE
  8
0
 62
     0
 10
221.882
 20
25.7142
 30
0.0
 11
221.882
 21
26.7147
 31
0.0
  0
LINE
  8
0
 62
     0
 10
221.882
 20
26.7147
 30
0.0
 11
207.882
 21
26.7147
 31
0.0
  0
LINE
  8
0
 62
     0
 10
134.064
 20
31.4772
 30
0.0
 11
134.064
 21
30.4767
 31
0.0
  0
LINE
  8
0
 62
     0
 10
134.064
 20
30.4767
 30
0.0
 11
133.263
 21
30.4767
 31
0.0
  0
LINE
  8
0
 62
     0
 10
133.263
 20
30.4767
 30
0.0
 11
133.263
 21
27.3761
 31
0.0
  0
LINE
  8
0
 62
     0
 10
133.263
 20
27.3761
 30
0.0
 11
134.064
 21
27.3761
 31
0.0
  0
LINE
  8
0
 62
     0
 10
134.064
 20
27.3761
 30
0.0
 11
134.064
 21
26.7766
 31
0.0
  0
LINE
  8
0
 62
     0
 10
134.064
 20
26.7766
 30
0.0
 11
132.538
 21
26.7766
 31
0.0
  0
LINE
  8
0
 62
     0
 10
132.538
 20
26.7766
 30
0.0
 11
132.538
 21
30.0068
 31
0.0
  0
LINE
  8
0
 62
     0
 10
132.538
 20
30.0068
 30
0.0
 11
130.813
 21
30.0068
 31
0.0
  0
LINE
  8
0
 62
     0
 10
130.813
 20
30.0068
 30
0.0
 11
130.813
 21
30.9273
 31
0.0
  0
LINE
  8
0
 62
     0
 10
130.813
 20
30.9273
 30
0.0
 11
127.514
 21
30.9273
 31
0.0
  0
LINE
  8
0
 62
     0
 10
127.514
 20
30.9273
 30
0.0
 11
127.514
 21
30.0068
 31
0.0
  0
LINE
  8
0
 62
     0
 10
127.514
 20
30.0068
 30
0.0
 11
125.789
 21
30.0068
 31
0.0
  0
LINE
  8
0
 62
     0
 10
125.789
 20
30.0068
 30
0.0
 11
125.789
 21
26.7766
 31
0.0
  0
LINE
  8
0
 62
     0
 10
125.789
 20
26.7766
 30
0.0
 11
124.963
 21
26.7766
 31
0.0
  0
LINE
  8
0
 62
     0
 10
124.963
 20
26.7766
 30
0.0
 11
124.963
 21
23.9765
 31
0.0
  0
LINE
  8
0
 62
     0
 10
124.963
 20
23.9765
 30
0.0
 11
125.789
 21
23.9765
 31
0.0
  0
LINE
  8
0
 62
     0
 10
125.789
 20
23.9765
 30
0.0
 11
125.789
 21
17.7064
 31
0.0
  0
LINE
  8
0
 62
     0
 10
125.789
 20
17.7064
 30
0.0
 11
127.514
 21
17.7064
 31
0.0
  0
LINE
  8
0
 62
     0
 10
127.514
 20
17.7064
 30
0.0
 11
127.514
 21
16.7266
 31
0.0
  0
LINE
  8
0
 62
     0
 10
127.514
 20
16.7266
 30
0.0
 11
130.813
 21
16.7266
 31
0.0
  0
LINE
  8
0
 62
     0
 10
130.813
 20
16.7266
 30
0.0
 11
130.813
 21
17.7064
 31
0.0
  0
LINE
  8
0
 62
     0
 10
130.813
 20
17.7064
 30
0.0
 11
132.538
 21
17.7064
 31
0.0
  0
LINE
  8
0
 62
     0
 10
132.538
 20
17.7064
 30
0.0
 11
132.538
 21
22.1768
 31
0.0
  0
LINE
  8
0
 62
     0
 10
132.538
 20
22.1768
 30
0.0
 11
134.064
 21
22.1768
 31
0.0
  0
LINE
  8
0
 62
     0
 10
134.064
 20
22.1768
 30
0.0
 11
134.064
 21
21.5773
 31
0.0
  0
LINE
  8
0
 62
     0
 10
134.064
 20
21.5773
 30
0.0
 11
133.263
 21
21.5773
 31
0.0
  0
LINE
  8
0
 62
     0
 10
133.263
 20
21.5773
 30
0.0
 11
133.263
 21
18.4767
 31
0.0
  0
LINE
  8
0
 62
     0
 10
133.263
 20
18.4767
 30
0.0
 11
134.064
 21
18.4767
 31
0.0
  0
LINE
  8
0
 62
     0
 10
134.064
 20
18.4767
 30
0.0
 11
134.064
 21
17.4763
 31
0.0
  0
LINE
  8
0
 62
     0
 10
134.064
 20
17.4763
 30
0.0
 11
148.063
 21
17.4763
 31
0.0
  0
LINE
  8
0
 62
     0
 10
148.063
 20
17.4763
 30
0.0
 11
148.063
 21
18.4767
 31
0.0
  0
LINE
  8
0
 62
     0
 10
148.063
 20
18.4767
 30
0.0
 11
148.864
 21
18.4767
 31
0.0
  0
LINE
  8
0
 62
     0
 10
148.864
 20
18.4767
 30
0.0
 11
148.864
 21
21.5773
 31
0.0
  0
LINE
  8
0
 62
     0
 10
148.864
 20
21.5773
 30
0.0
 11
148.063
 21
21.5773
 31
0.0
  0
LINE
  8
0
 62
     0
 10
148.063
 20
21.5773
 30
0.0
 11
148.063
 21
22.1768
 31
0.0
  0
LINE
  8
0
 62
     0
 10
148.063
 20
22.1768
 30
0.0
 11
149.589
 21
22.1768
 31
0.0
  0
LINE
  8
0
 62
     0
 10
149.589
 20
22.1768
 30
0.0
 11
149.589
 21
17.7064
 31
0.0
  0
LINE
  8
0
 62
     0
 10
149.589
 20
17.7064
 30
0.0
 11
151.314
 21
17.7064
 31
0.0
  0
LINE
  8
0
 62
     0
 10
151.314
 20
17.7064
 30
0.0
 11
151.314
 21
16.7266
 31
0.0
  0
LINE
  8
0
 62
     0
 10
151.314
 20
16.7266
 30
0.0
 11
154.613
 21
16.7266
 31
0.0
  0
LINE
  8
0
 62
     0
 10
154.613
 20
16.7266
 30
0.0
 11
154.613
 21
17.7064
 31
0.0
  0
LINE
  8
0
 62
     0
 10
154.613
 20
17.7064
 30
0.0
 11
156.338
 21
17.7064
 31
0.0
  0
LINE
  8
0
 62
     0
 10
156.338
 20
17.7064
 30
0.0
 11
156.338
 21
23.9765
 31
0.0
  0
LINE
  8
0
 62
     0
 10
156.338
 20
23.9765
 30
0.0
 11
157.164
 21
23.9765
 31
0.0
  0
LINE
  8
0
 62
     0
 10
157.164
 20
23.9765
 30
0.0
 11
157.164
 21
26.7766
 31
0.0
  0
LINE
  8
0
 62
     0
 10
157.164
 20
26.7766
 30
0.0
 11
156.338
 21
26.7766
 31
0.0
  0
LINE
  8
0
 62
     0
 10
156.338
 20
26.7766
 30
0.0
 11
156.338
 21
30.0068
 31
0.0
  0
LINE
  8
0
 62
     0
 10
156.338
 20
30.0068
 30
0.0
 11
154.613
 21
30.0068
 31
0.0
  0
LINE
  8
0
 62
     0
 10
154.613
 20
30.0068
 30
0.0
 11
154.613
 21
30.9273
 31
0.0
  0
LINE
  8
0
 62
     0
 10
154.613
 20
30.9273
 30
0.0
 11
151.314
 21
30.9273
 31
0.0
  0
LINE
  8
0
 62
     0
 10
151.314
 20
30.9273
 30
0.0
 11
151.314
 21
30.0068
 31
0.0
  0
LINE
  8
0
 62
     0
 10
151.314
 20
30.0068
 30
0.0
 11
149.589
 21
30.0068
 31
0.0
  0
LINE
  8
0
 62
     0
 10
149.589
 20
30.0068
 30
0.0
 11
149.589
 21
26.7766
 31
0.0
  0
LINE
  8
0
 62
     0
 10
149.589
 20
26.7766
 30
0.0
 11
148.063
 21
26.7766
 31
0.0
  0
LINE
  8
0
 62
     0
 10
148.063
 20
26.7766
 30
0.0
 11
148.063
 21
27.3761
 31
0.0
  0
LINE
  8
0
 62
     0
 10
148.063
 20
27.3761
 30
0.0
 11
148.864
 21
27.3761
 31
0.0
  0
LINE
  8
0
 62
     0
 10
148.864
 20
27.3761
 30
0.0
 11
148.864
 21
30.4767
 31
0.0
  0
LINE
  8
0
 62
     0
 10
148.864
 20
30.4767
 30
0.0
 11
148.063
 21
30.4767
 31
0.0
  0
LINE
  8
0
 62
     0
 10
148.063
 20
30.4767
 30
0.0
 11
148.063
 21
31.4772
 31
0.0
  0
LINE
  8
0
 62
     0
 10
148.063
 20
31.4772
 30
0.0
 11
134.064
 21
31.4772
 31
0.0
  0
LINE
  8
0
 62
     0
 10
86.4387
 20
31.4772
 30
0.0
 11
86.4387
 21
30.4767
 31
0.0
  0
LINE
  8
0
 62
     0
 10
86.4387
 20
30.4767
 30
0.0
 11
85.6382
 21
30.4767
 31
0.0
  0
LINE
  8
0
 62
     0
 10
85.6382
 20
30.4767
 30
0.0
 11
85.6382
 21
27.3761
 31
0.0
  0
LINE
  8
0
 62
     0
 10
85.6382
 20
27.3761
 30
0.0
 11
86.4387
 21
27.3761
 31
0.0
  0
LINE
  8
0
 62
     0
 10
86.4387
 20
27.3761
 30
0.0
 11
86.4387
 21
26.7766
 31
0.0
  0
LINE
  8
0
 62
     0
 10
86.4387
 20
26.7766
 30
0.0
 11
84.9133
 21
26.7766
 31
0.0
  0
LINE
  8
0
 62
     0
 10
84.9133
 20
26.7766
 30
0.0
 11
84.9133
 21
30.0068
 31
0.0
  0
LINE
  8
0
 62
     0
 10
84.9133
 20
30.0068
 30
0.0
 11
83.1882
 21
30.0068
 31
0.0
  0
LINE
  8
0
 62
     0
 10
83.1882
 20
30.0068
 30
0.0
 11
83.1882
 21
30.9273
 31
0.0
  0
LINE
  8
0
 62
     0
 10
83.1882
 20
30.9273
 30
0.0
 11
79.889
 21
30.9273
 31
0.0
  0
LINE
  8
0
 62
     0
 10
79.889
 20
30.9273
 30
0.0
 11
79.889
 21
30.0068
 31
0.0
  0
LINE
  8
0
 62
     0
 10
79.889
 20
30.0068
 30
0.0
 11
78.1636
 21
30.0068
 31
0.0
  0
LINE
  8
0
 62
     0
 10
78.1636
 20
30.0068
 30
0.0
 11
78.1636
 21
26.7766
 31
0.0
  0
LINE
  8
0
 62
     0
 10
78.1636
 20
26.7766
 30
0.0
 11
77.3384
 21
26.7766
 31
0.0
  0
LINE
  8
0
 62
     0
 10
77.3384
 20
26.7766
 30
0.0
 11
77.3384
 21
23.9765
 31
0.0
  0
LINE
  8
0
 62
     0
 10
77.3384
 20
23.9765
 30
0.0
 11
78.1636
 21
23.9765
 31
0.0
  0
LINE
  8
0
 62
     0
 10
78.1636
 20
23.9765
 30
0.0
 11
78.1636
 21
17.7064
 31
0.0
  0
LINE
  8
0
 62
     0
 10
78.1636
 20
17.7064
 30
0.0
 11
79.889
 21
17.7064
 31
0.0
  0
LINE
  8
0
 62
     0
 10
79.889
 20
17.7064
 30
0.0
 11
79.889
 21
16.7266
 31
0.0
  0
LINE
  8
0
 62
     0
 10
79.889
 20
16.7266
 30
0.0
 11
83.1882
 21
16.7266
 31
0.0
  0
LINE
  8
0
 62
     0
 10
83.1882
 20
16.7266
 30
0.0
 11
83.1882
 21
17.7064
 31
0.0
  0
LINE
  8
0
 62
     0
 10
83.1882
 20
17.7064
 30
0.0
 11
84.9133
 21
17.7064
 31
0.0
  0
LINE
  8
0
 62
     0
 10
84.9133
 20
17.7064
 30
0.0
 11
84.9133
 21
22.1768
 31
0.0
  0
LINE
  8
0
 62
     0
 10
84.9133
 20
22.1768
 30
0.0
 11
86.4387
 21
22.1768
 31
0.0
  0
LINE
  8
0
 62
     0
 10
86.4387
 20
22.1768
 30
0.0
 11
86.4387
 21
21.5773
 31
0.0
  0
LINE
  8
0
 62
     0
 10
86.4387
 20
21.5773
 30
0.0
 11
85.6382
 21
21.5773
 31
0.0
  0
LINE
  8
0
 62
     0
 10
85.6382
 20
21.5773
 30
0.0
 11
85.6382
 21
18.4767
 31
0.0
  0
LINE
  8
0
 62
     0
 10
85.6382
 20
18.4767
 30
0.0
 11
86.4387
 21
18.4767
 31
0.0
  0
LINE
  8
0
 62
     0
 10
86.4387
 20
18.4767
 30
0.0
 11
86.4387
 21
17.4763
 31
0.0
  0
LINE
  8
0
 62
     0
 10
86.4387
 20
17.4763
 30
0.0
 11
100.438
 21
17.4763
 31
0.0
  0
LINE
  8
0
 62
     0
 10
100.438
 20
17.4763
 30
0.0
 11
100.438
 21
18.4767
 31
0.0
  0
LINE
  8
0
 62
     0
 10
100.438
 20
18.4767
 30
0.0
 11
101.239
 21
18.4767
 31
0.0
  0
LINE
  8
0
 62
     0
 10
101.239
 20
18.4767
 30
0.0
 11
101.239
 21
21.5773
 31
0.0
  0
LINE
  8
0
 62
     0
 10
101.239
 20
21.5773
 30
0.0
 11
100.438
 21
21.5773
 31
0.0
  0
LINE
  8
0
 62
     0
 10
100.438
 20
21.5773
 30
0.0
 11
100.438
 21
22.1768
 31
0.0
  0
LINE
  8
0
 62
     0
 10
100.438
 20
22.1768
 30
0.0
 11
101.964
 21
22.1768
 31
0.0
  0
LINE
  8
0
 62
     0
 10
101.964
 20
22.1768
 30
0.0
 11
101.964
 21
17.7064
 31
0.0
  0
LINE
  8
0
 62
     0
 10
101.964
 20
17.7064
 30
0.0
 11
103.689
 21
17.7064
 31
0.0
  0
LINE
  8
0
 62
     0
 10
103.689
 20
17.7064
 30
0.0
 11
103.689
 21
16.7266
 31
0.0
  0
LINE
  8
0
 62
     0
 10
103.689
 20
16.7266
 30
0.0
 11
106.988
 21
16.7266
 31
0.0
  0
LINE
  8
0
 62
     0
 10
106.988
 20
16.7266
 30
0.0
 11
106.988
 21
17.7064
 31
0.0
  0
LINE
  8
0
 62
     0
 10
106.988
 20
17.7064
 30
0.0
 11
108.713
 21
17.7064
 31
0.0
  0
LINE
  8
0
 62
     0
 10
108.713
 20
17.7064
 30
0.0
 11
108.713
 21
23.9765
 31
0.0
  0
LINE
  8
0
 62
     0
 10
108.713
 20
23.9765
 30
0.0
 11
109.539
 21
23.9765
 31
0.0
  0
LINE
  8
0
 62
     0
 10
109.539
 20
23.9765
 30
0.0
 11
109.539
 21
26.7766
 31
0.0
  0
LINE
  8
0
 62
     0
 10
109.539
 20
26.7766
 30
0.0
 11
108.713
 21
26.7766
 31
0.0
  0
LINE
  8
0
 62
     0
 10
108.713
 20
26.7766
 30
0.0
 11
108.713
 21
30.0068
 31
0.0
  0
LINE
  8
0
 62
     0
 10
108.713
 20
30.0068
 30
0.0
 11
106.988
 21
30.0068
 31
0.0
  0
LINE
  8
0
 62
     0
 10
106.988
 20
30.0068
 30
0.0
 11
106.988
 21
30.9273
 31
0.0
  0
LINE
  8
0
 62
     0
 10
106.988
 20
30.9273
 30
0.0
 11
103.689
 21
30.9273
 31
0.0
  0
LINE
  8
0
 62
     0
 10
103.689
 20
30.9273
 30
0.0
 11
103.689
 21
30.0068
 31
0.0
  0
LINE
  8
0
 62
     0
 10
103.689
 20
30.0068
 30
0.0
 11
101.964
 21
30.0068
 31
0.0
  0
LINE
  8
0
 62
     0
 10
101.964
 20
30.0068
 30
0.0
 11
101.964
 21
26.7766
 31
0.0
  0
LINE
  8
0
 62
     0
 10
101.964
 20
26.7766
 30
0.0
 11
100.438
 21
26.7766
 31
0.0
  0
LINE
  8
0
 62
     0
 10
100.438
 20
26.7766
 30
0.0
 11
100.438
 21
27.3761
 31
0.0
  0
LINE
  8
0
 62
     0
 10
100.438
 20
27.3761
 30
0.0
 11
101.239
 21
27.3761
 31
0.0
  0
LINE
  8
0
 62
     0
 10
101.239
 20
27.3761
 30
0.0
 11
101.239
 21
30.4767
 31
0.0
  0
LINE
  8
0
 62
     0
 10
101.239
 20
30.4767
 30
0.0
 11
100.438
 21
30.4767
 31
0.0
  0
LINE
  8
0
 62
     0
 10
100.438
 20
30.4767
 30
0.0
 11
100.438
 21
31.4772
 31
0.0
  0
LINE
  8
0
 62
     0
 10
100.438
 20
31.4772
 30
0.0
 11
86.4387
 21
31.4772
 31
0.0
  0
LINE
  8
0
 62
     0
 10
184.07
 20
31.4772
 30
0.0
 11
184.07
 21
30.4767
 31
0.0
  0
LINE
  8
0
 62
     0
 10
184.07
 20
30.4767
 30
0.0
 11
183.271
 21
30.4767
 31
0.0
  0
LINE
  8
0
 62
     0
 10
183.271
 20
30.4767
 30
0.0
 11
183.271
 21
27.3761
 31
0.0
  0
LINE
  8
0
 62
     0
 10
183.271
 20
27.3761
 30
0.0
 11
184.07
 21
27.3761
 31
0.0
  0
LINE
  8
0
 62
     0
 10
184.07
 20
27.3761
 30
0.0
 11
184.07
 21
21.5773
 31
0.0
  0
LINE
  8
0
 62
     0
 10
184.07
 20
21.5773
 30
0.0
 11
183.271
 21
21.5773
 31
0.0
  0
LINE
  8
0
 62
     0
 10
183.271
 20
21.5773
 30
0.0
 11
183.271
 21
18.4767
 31
0.0
  0
LINE
  8
0
 62
     0
 10
183.271
 20
18.4767
 30
0.0
 11
184.07
 21
18.4767
 31
0.0
  0
LINE
  8
0
 62
     0
 10
184.07
 20
18.4767
 30
0.0
 11
184.07
 21
17.4763
 31
0.0
  0
LINE
  8
0
 62
     0
 10
184.07
 20
17.4763
 30
0.0
 11
198.071
 21
17.4763
 31
0.0
  0
LINE
  8
0
 62
     0
 10
198.071
 20
17.4763
 30
0.0
 11
198.071
 21
18.4767
 31
0.0
  0
LINE
  8
0
 62
     0
 10
198.071
 20
18.4767
 30
0.0
 11
198.87
 21
18.4767
 31
0.0
  0
LINE
  8
0
 62
     0
 10
198.87
 20
18.4767
 30
0.0
 11
198.87
 21
21.5773
 31
0.0
  0
LINE
  8
0
 62
     0
 10
198.87
 20
21.5773
 30
0.0
 11
198.071
 21
21.5773
 31
0.0
  0
LINE
  8
0
 62
     0
 10
198.071
 20
21.5773
 30
0.0
 11
198.071
 21
27.3761
 31
0.0
  0
LINE
  8
0
 62
     0
 10
198.071
 20
27.3761
 30
0.0
 11
198.87
 21
27.3761
 31
0.0
  0
LINE
  8
0
 62
     0
 10
198.87
 20
27.3761
 30
0.0
 11
198.87
 21
30.4767
 31
0.0
  0
LINE
  8
0
 62
     0
 10
198.87
 20
30.4767
 30
0.0
 11
198.071
 21
30.4767
 31
0.0
  0
LINE
  8
0
 62
     0
 10
198.071
 20
30.4767
 30
0.0
 11
198.071
 21
31.4772
 31
0.0
  0
LINE
  8
0
 62
     0
 10
198.071
 20
31.4772
 30
0.0
 11
184.07
 21
31.4772
 31
0.0
  0
LINE
  8
0
 62
     0
 10
165.02
 20
31.4772
 30
0.0
 11
165.02
 21
30.4767
 31
0.0
  0
LINE
  8
0
 62
     0
 10
165.02
 20
30.4767
 30
0.0
 11
164.221
 21
30.4767
 31
0.0
  0
LINE
  8
0
 62
     0
 10
164.221
 20
30.4767
 30
0.0
 11
164.221
 21
27.3761
 31
0.0
  0
LINE
  8
0
 62
     0
 10
164.221
 20
27.3761
 30
0.0
 11
165.02
 21
27.3761
 31
0.0
  0
LINE
  8
0
 62
     0
 10
165.02
 20
27.3761
 30
0.0
 11
165.02
 21
21.5773
 31
0.0
  0
LINE
  8
0
 62
     0
 10
165.02
 20
21.5773
 30
0.0
 11
164.221
 21
21.5773
 31
0.0
  0
LINE
  8
0
 62
     0
 10
164.221
 20
21.5773
 30
0.0
 11
164.221
 21
18.4767
 31
0.0
  0
LINE
  8
0
 62
     0
 10
164.221
 20
18.4767
 30
0.0
 11
165.02
 21
18.4767
 31
0.0
  0
LINE
  8
0
 62
     0
 10
165.02
 20
18.4767
 30
0.0
 11
165.02
 21
17.4763
 31
0.0
  0
LINE
  8
0
 62
     0
 10
165.02
 20
17.4763
 30
0.0
 11
179.021
 21
17.4763
 31
0.0
  0
LINE
  8
0
 62
     0
 10
179.021
 20
17.4763
 30
0.0
 11
179.021
 21
18.4767
 31
0.0
  0
LINE
  8
0
 62
     0
 10
179.021
 20
18.4767
 30
0.0
 11
179.82
 21
18.4767
 31
0.0
  0
LINE
  8
0
 62
     0
 10
179.82
 20
18.4767
 30
0.0
 11
179.82
 21
21.5773
 31
0.0
  0
LINE
  8
0
 62
     0
 10
179.82
 20
21.5773
 30
0.0
 11
179.021
 21
21.5773
 31
0.0
  0
LINE
  8
0
 62
     0
 10
179.021
 20
21.5773
 30
0.0
 11
179.021
 21
27.3761
 31
0.0
  0
LINE
  8
0
 62
     0
 10
179.021
 20
27.3761
 30
0.0
 11
179.82
 21
27.3761
 31
0.0
  0
LINE
  8
0
 62
     0
 10
179.82
 20
27.3761
 30
0.0
 11
179.82
 21
30.4767
 31
0.0
  0
LINE
  8
0
 62
     0
 10
179.82
 20
30.4767
 30
0.0
 11
179.021
 21
30.4767
 31
0.0
  0
LINE
  8
0
 62
     0
 10
179.021
 20
30.4767
 30
0.0
 11
179.021
 21
31.4772
 31
0.0
  0
LINE
  8
0
 62
     0
 10
179.021
 20
31.4772
 30
0.0
 11
165.02
 21
31.4772
 31
0.0
  0
LINE
  8
0
 62
     0
 10
50.7199
 20
31.4772
 30
0.0
 11
50.7199
 21
30.4767
 31
0.0
  0
LINE
  8
0
 62
     0
 10
50.7199
 20
30.4767
 30
0.0
 11
49.9209
 21
30.4767
 31
0.0
  0
LINE
  8
0
 62
     0
 10
49.9209
 20
30.4767
 30
0.0
 11
49.9209
 21
27.3761
 31
0.0
  0
LINE
  8
0
 62
     0
 10
49.9209
 20
27.3761
 30
0.0
 11
50.7199
 21
27.3761
 31
0.0
  0
LINE
  8
0
 62
     0
 10
50.7199
 20
27.3761
 30
0.0
 11
50.7199
 21
21.5773
 31
0.0
  0
LINE
  8
0
 62
     0
 10
50.7199
 20
21.5773
 30
0.0
 11
49.9209
 21
21.5773
 31
0.0
  0
LINE
  8
0
 62
     0
 10
49.9209
 20
21.5773
 30
0.0
 11
49.9209
 21
18.4767
 31
0.0
  0
LINE
  8
0
 62
     0
 10
49.9209
 20
18.4767
 30
0.0
 11
50.7199
 21
18.4767
 31
0.0
  0
LINE
  8
0
 62
     0
 10
50.7199
 20
18.4767
 30
0.0
 11
50.7199
 21
17.4763
 31
0.0
  0
LINE
  8
0
 62
     0
 10
50.7199
 20
17.4763
 30
0.0
 11
64.721
 21
17.4763
 31
0.0
  0
LINE
  8
0
 62
     0
 10
64.721
 20
17.4763
 30
0.0
 11
64.721
 21
18.4767
 31
0.0
  0
LINE
  8
0
 62
     0
 10
64.721
 20
18.4767
 30
0.0
 11
65.5204
 21
18.4767
 31
0.0
  0
LINE
  8
0
 62
     0
 10
65.5204
 20
18.4767
 30
0.0
 11
65.5204
 21
21.5773
 31
0.0
  0
LINE
  8
0
 62
     0
 10
65.5204
 20
21.5773
 30
0.0
 11
64.721
 21
21.5773
 31
0.0
  0
LINE
  8
0
 62
     0
 10
64.721
 20
21.5773
 30
0.0
 11
64.721
 21
27.3761
 31
0.0
  0
LINE
  8
0
 62
     0
 10
64.721
 20
27.3761
 30
0.0
 11
65.5204
 21
27.3761
 31
0.0
  0
LINE
  8
0
 62
     0
 10
65.5204
 20
27.3761
 30
0.0
 11
65.5204
 21
30.4767
 31
0.0
  0
LINE
  8
0
 62
     0
 10
65.5204
 20
30.4767
 30
0.0
 11
64.721
 21
30.4767
 31
0.0
  0
LINE
  8
0
 62
     0
 10
64.721
 20
30.4767
 30
0.0
 11
64.721
 21
31.4772
 31
0.0
  0
LINE
  8
0
 62
     0
 10
64.721
 20
31.4772
 30
0.0
 11
50.7199
 21
31.4772
 31
0.0
  0
LINE
  8
0
 62
     0
 10
31.6701
 20
31.4772
 30
0.0
 11
31.6701
 21
30.4767
 31
0.0
  0
LINE
  8
0
 62
     0
 10
31.6701
 20
30.4767
 30
0.0
 11
30.8708
 21
30.4767
 31
0.0
  0
LINE
  8
0
 62
     0
 10
30.8708
 20
30.4767
 30
0.0
 11
30.8708
 21
27.3761
 31
0.0
  0
LINE
  8
0
 62
     0
 10
30.8708
 20
27.3761
 30
0.0
 11
31.6701
 21
27.3761
 31
0.0
  0
LINE
  8
0
 62
     0
 10
31.6701
 20
27.3761
 30
0.0
 11
31.6701
 21
21.5773
 31
0.0
  0
LINE
  8
0
 62
     0
 10
31.6701
 20
21.5773
 30
0.0
 11
30.8708
 21
21.5773
 31
0.0
  0
LINE
  8
0
 62
     0
 10
30.8708
 20
21.5773
 30
0.0
 11
30.8708
 21
18.4767
 31
0.0
  0
LINE
  8
0
 62
     0
 10
30.8708
 20
18.4767
 30
0.0
 11
31.6701
 21
18.4767
 31
0.0
  0
LINE
  8
0
 62
     0
 10
31.6701
 20
18.4767
 30
0.0
 11
31.6701
 21
17.4763
 31
0.0
  0
LINE
  8
0
 62
     0
 10
31.6701
 20
17.4763
 30
0.0
 11
45.6696
 21
17.4763
 31
0.0
  0
LINE
  8
0
 62
     0
 10
45.6696
 20
17.4763
 30
0.0
 11
45.6696
 21
18.4767
 31
0.0
  0
LINE
  8
0
 62
     0
 10
45.6696
 20
18.4767
 30
0.0
 11
46.4689
 21
18.4767
 31
0.0
  0
LINE
  8
0
 62
     0
 10
46.4689
 20
18.4767
 30
0.0
 11
46.4689
 21
21.5773
 31
0.0
  0
LINE
  8
0
 62
     0
 10
46.4689
 20
21.5773
 30
0.0
 11
45.6696
 21
21.5773
 31
0.0
  0
LINE
  8
0
 62
     0
 10
45.6696
 20
21.5773
 30
0.0
 11
45.6696
 21
27.3761
 31
0.0
  0
LINE
  8
0
 62
     0
 10
45.6696
 20
27.3761
 30
0.0
 11
46.4689
 21
27.3761
 31
0.0
  0
LINE
  8
0
 62
     0
 10
46.4689
 20
27.3761
 30
0.0
 11
46.4689
 21
30.4767
 31
0.0
  0
LINE
  8
0
 62
     0
 10
46.4689
 20
30.4767
 30
0.0
 11
45.6696
 21
30.4767
 31
0.0
  0
LINE
  8
0
 62
     0
 10
45.6696
 20
30.4767
 30
0.0
 11
45.6696
 21
31.4772
 31
0.0
  0
LINE
  8
0
 62
     0
 10
45.6696
 20
31.4772
 30
0.0
 11
31.6701
 21
31.4772
 31
0.0
  0
LINE
  8
0
 62
     0
 10
226.932
 20
45.7648
 30
0.0
 11
226.932
 21
44.7643
 31
0.0
  0
LINE
  8
0
 62
     0
 10
226.932
 20
44.7643
 30
0.0
 11
226.132
 21
44.7643
 31
0.0
  0
LINE
  8
0
 62
     0
 10
226.132
 20
44.7643
 30
0.0
 11
226.132
 21
41.6662
 31
0.0
  0
LINE
  8
0
 62
     0
 10
226.132
 20
41.6662
 30
0.0
 11
226.932
 21
41.6662
 31
0.0
  0
LINE
  8
0
 62
     0
 10
226.932
 20
41.6662
 30
0.0
 11
226.932
 21
35.8648
 31
0.0
  0
LINE
  8
0
 62
     0
 10
226.932
 20
35.8648
 30
0.0
 11
226.132
 21
35.8648
 31
0.0
  0
LINE
  8
0
 62
     0
 10
226.132
 20
35.8648
 30
0.0
 11
226.132
 21
32.7642
 31
0.0
  0
LINE
  8
0
 62
     0
 10
226.132
 20
32.7642
 30
0.0
 11
226.932
 21
32.7642
 31
0.0
  0
LINE
  8
0
 62
     0
 10
226.932
 20
32.7642
 30
0.0
 11
226.932
 21
31.7652
 31
0.0
  0
LINE
  8
0
 62
     0
 10
226.932
 20
31.7652
 30
0.0
 11
240.932
 21
31.7652
 31
0.0
  0
LINE
  8
0
 62
     0
 10
240.932
 20
31.7652
 30
0.0
 11
240.932
 21
32.7642
 31
0.0
  0
LINE
  8
0
 62
     0
 10
240.932
 20
32.7642
 30
0.0
 11
241.733
 21
32.7642
 31
0.0
  0
LINE
  8
0
 62
     0
 10
241.733
 20
32.7642
 30
0.0
 11
241.733
 21
35.8648
 31
0.0
  0
LINE
  8
0
 62
     0
 10
241.733
 20
35.8648
 30
0.0
 11
240.932
 21
35.8648
 31
0.0
  0
LINE
  8
0
 62
     0
 10
240.932
 20
35.8648
 30
0.0
 11
240.932
 21
41.6662
 31
0.0
  0
LINE
  8
0
 62
     0
 10
240.932
 20
41.6662
 30
0.0
 11
241.733
 21
41.6662
 31
0.0
  0
LINE
  8
0
 62
     0
 10
241.733
 20
41.6662
 30
0.0
 11
241.733
 21
44.7643
 31
0.0
  0
LINE
  8
0
 62
     0
 10
241.733
 20
44.7643
 30
0.0
 11
240.932
 21
44.7643
 31
0.0
  0
LINE
  8
0
 62
     0
 10
240.932
 20
44.7643
 30
0.0
 11
240.932
 21
45.7648
 31
0.0
  0
LINE
  8
0
 62
     0
 10
240.932
 20
45.7648
 30
0.0
 11
226.932
 21
45.7648
 31
0.0
  0
LINE
  8
0
 62
     0
 10
250.745
 20
50.5273
 30
0.0
 11
250.745
 21
49.5268
 31
0.0
  0
LINE
  8
0
 62
     0
 10
250.745
 20
49.5268
 30
0.0
 11
249.946
 21
49.5268
 31
0.0
  0
LINE
  8
0
 62
     0
 10
249.946
 20
49.5268
 30
0.0
 11
249.946
 21
46.4263
 31
0.0
  0
LINE
  8
0
 62
     0
 10
249.946
 20
46.4263
 30
0.0
 11
250.745
 21
46.4263
 31
0.0
  0
LINE
  8
0
 62
     0
 10
250.745
 20
46.4263
 30
0.0
 11
250.745
 21
40.6273
 31
0.0
  0
LINE
  8
0
 62
     0
 10
250.745
 20
40.6273
 30
0.0
 11
249.946
 21
40.6273
 31
0.0
  0
LINE
  8
0
 62
     0
 10
249.946
 20
40.6273
 30
0.0
 11
249.946
 21
37.5267
 31
0.0
  0
LINE
  8
0
 62
     0
 10
249.946
 20
37.5267
 30
0.0
 11
250.745
 21
37.5267
 31
0.0
  0
LINE
  8
0
 62
     0
 10
250.745
 20
37.5267
 30
0.0
 11
250.745
 21
36.5263
 31
0.0
  0
LINE
  8
0
 62
     0
 10
250.745
 20
36.5263
 30
0.0
 11
264.746
 21
36.5263
 31
0.0
  0
LINE
  8
0
 62
     0
 10
264.746
 20
36.5263
 30
0.0
 11
264.746
 21
37.5267
 31
0.0
  0
LINE
  8
0
 62
     0
 10
264.746
 20
37.5267
 30
0.0
 11
265.545
 21
37.5267
 31
0.0
  0
LINE
  8
0
 62
     0
 10
265.545
 20
37.5267
 30
0.0
 11
265.545
 21
40.6273
 31
0.0
  0
LINE
  8
0
 62
     0
 10
265.545
 20
40.6273
 30
0.0
 11
264.746
 21
40.6273
 31
0.0
  0
LINE
  8
0
 62
     0
 10
264.746
 20
40.6273
 30
0.0
 11
264.746
 21
46.4263
 31
0.0
  0
LINE
  8
0
 62
     0
 10
264.746
 20
46.4263
 30
0.0
 11
265.545
 21
46.4263
 31
0.0
  0
LINE
  8
0
 62
     0
 10
265.545
 20
46.4263
 30
0.0
 11
265.545
 21
49.5268
 31
0.0
  0
LINE
  8
0
 62
     0
 10
265.545
 20
49.5268
 30
0.0
 11
264.746
 21
49.5268
 31
0.0
  0
LINE
  8
0
 62
     0
 10
264.746
 20
49.5268
 30
0.0
 11
264.746
 21
50.5273
 31
0.0
  0
LINE
  8
0
 62
     0
 10
264.746
 20
50.5273
 30
0.0
 11
250.745
 21
50.5273
 31
0.0
  0
LINE
  8
0
 62
     0
 10
200.739
 20
50.5273
 30
0.0
 11
200.739
 21
49.5268
 31
0.0
  0
LINE
  8
0
 62
     0
 10
200.739
 20
49.5268
 30
0.0
 11
199.938
 21
49.5268
 31
0.0
  0
LINE
  8
0
 62
     0
 10
199.938
 20
49.5268
 30
0.0
 11
199.938
 21
46.4263
 31
0.0
  0
LINE
  8
0
 62
     0
 10
199.938
 20
46.4263
 30
0.0
 11
200.739
 21
46.4263
 31
0.0
  0
LINE
  8
0
 62
     0
 10
200.739
 20
46.4263
 30
0.0
 11
200.739
 21
40.6273
 31
0.0
  0
LINE
  8
0
 62
     0
 10
200.739
 20
40.6273
 30
0.0
 11
199.938
 21
40.6273
 31
0.0
  0
LINE
  8
0
 62
     0
 10
199.938
 20
40.6273
 30
0.0
 11
199.938
 21
37.5267
 31
0.0
  0
LINE
  8
0
 62
     0
 10
199.938
 20
37.5267
 30
0.0
 11
200.739
 21
37.5267
 31
0.0
  0
LINE
  8
0
 62
     0
 10
200.739
 20
37.5267
 30
0.0
 11
200.739
 21
36.5263
 31
0.0
  0
LINE
  8
0
 62
     0
 10
200.739
 20
36.5263
 30
0.0
 11
214.738
 21
36.5263
 31
0.0
  0
LINE
  8
0
 62
     0
 10
214.738
 20
36.5263
 30
0.0
 11
214.738
 21
37.5267
 31
0.0
  0
LINE
  8
0
 62
     0
 10
214.738
 20
37.5267
 30
0.0
 11
215.539
 21
37.5267
 31
0.0
  0
LINE
  8
0
 62
     0
 10
215.539
 20
37.5267
 30
0.0
 11
215.539
 21
40.6273
 31
0.0
  0
LINE
  8
0
 62
     0
 10
215.539
 20
40.6273
 30
0.0
 11
214.738
 21
40.6273
 31
0.0
  0
LINE
  8
0
 62
     0
 10
214.738
 20
40.6273
 30
0.0
 11
214.738
 21
46.4263
 31
0.0
  0
LINE
  8
0
 62
     0
 10
214.738
 20
46.4263
 30
0.0
 11
215.539
 21
46.4263
 31
0.0
  0
LINE
  8
0
 62
     0
 10
215.539
 20
46.4263
 30
0.0
 11
215.539
 21
49.5268
 31
0.0
  0
LINE
  8
0
 62
     0
 10
215.539
 20
49.5268
 30
0.0
 11
214.738
 21
49.5268
 31
0.0
  0
LINE
  8
0
 62
     0
 10
214.738
 20
49.5268
 30
0.0
 11
214.738
 21
50.5273
 31
0.0
  0
LINE
  8
0
 62
     0
 10
214.738
 20
50.5273
 30
0.0
 11
200.739
 21
50.5273
 31
0.0
  0
LINE
  8
0
 62
     0
 10
179.307
 20
50.5273
 30
0.0
 11
179.307
 21
49.5268
 31
0.0
  0
LINE
  8
0
 62
     0
 10
179.307
 20
49.5268
 30
0.0
 11
178.507
 21
49.5268
 31
0.0
  0
LINE
  8
0
 62
     0
 10
178.507
 20
49.5268
 30
0.0
 11
178.507
 21
46.4263
 31
0.0
  0
LINE
  8
0
 62
     0
 10
178.507
 20
46.4263
 30
0.0
 11
179.307
 21
46.4263
 31
0.0
  0
LINE
  8
0
 62
     0
 10
179.307
 20
46.4263
 30
0.0
 11
179.307
 21
40.6273
 31
0.0
  0
LINE
  8
0
 62
     0
 10
179.307
 20
40.6273
 30
0.0
 11
178.507
 21
40.6273
 31
0.0
  0
LINE
  8
0
 62
     0
 10
178.507
 20
40.6273
 30
0.0
 11
178.507
 21
37.5267
 31
0.0
  0
LINE
  8
0
 62
     0
 10
178.507
 20
37.5267
 30
0.0
 11
179.307
 21
37.5267
 31
0.0
  0
LINE
  8
0
 62
     0
 10
179.307
 20
37.5267
 30
0.0
 11
179.307
 21
36.5263
 31
0.0
  0
LINE
  8
0
 62
     0
 10
179.307
 20
36.5263
 30
0.0
 11
193.307
 21
36.5263
 31
0.0
  0
LINE
  8
0
 62
     0
 10
193.307
 20
36.5263
 30
0.0
 11
193.307
 21
37.5267
 31
0.0
  0
LINE
  8
0
 62
     0
 10
193.307
 20
37.5267
 30
0.0
 11
194.108
 21
37.5267
 31
0.0
  0
LINE
  8
0
 62
     0
 10
194.108
 20
37.5267
 30
0.0
 11
194.108
 21
40.6273
 31
0.0
  0
LINE
  8
0
 62
     0
 10
194.108
 20
40.6273
 30
0.0
 11
193.307
 21
40.6273
 31
0.0
  0
LINE
  8
0
 62
     0
 10
193.307
 20
40.6273
 30
0.0
 11
193.307
 21
46.4263
 31
0.0
  0
LINE
  8
0
 62
     0
 10
193.307
 20
46.4263
 30
0.0
 11
194.108
 21
46.4263
 31
0.0
  0
LINE
  8
0
 62
     0
 10
194.108
 20
46.4263
 30
0.0
 11
194.108
 21
49.5268
 31
0.0
  0
LINE
  8
0
 62
     0
 10
194.108
 20
49.5268
 30
0.0
 11
193.307
 21
49.5268
 31
0.0
  0
LINE
  8
0
 62
     0
 10
193.307
 20
49.5268
 30
0.0
 11
193.307
 21
50.5273
 31
0.0
  0
LINE
  8
0
 62
     0
 10
193.307
 20
50.5273
 30
0.0
 11
179.307
 21
50.5273
 31
0.0
  0
LINE
  8
0
 62
     0
 10
160.257
 20
50.5273
 30
0.0
 11
160.257
 21
49.5268
 31
0.0
  0
LINE
  8
0
 62
     0
 10
160.257
 20
49.5268
 30
0.0
 11
159.457
 21
49.5268
 31
0.0
  0
LINE
  8
0
 62
     0
 10
159.457
 20
49.5268
 30
0.0
 11
159.457
 21
46.4263
 31
0.0
  0
LINE
  8
0
 62
     0
 10
159.457
 20
46.4263
 30
0.0
 11
160.257
 21
46.4263
 31
0.0
  0
LINE
  8
0
 62
     0
 10
160.257
 20
46.4263
 30
0.0
 11
160.257
 21
40.6273
 31
0.0
  0
LINE
  8
0
 62
     0
 10
160.257
 20
40.6273
 30
0.0
 11
159.457
 21
40.6273
 31
0.0
  0
LINE
  8
0
 62
     0
 10
159.457
 20
40.6273
 30
0.0
 11
159.457
 21
37.5267
 31
0.0
  0
LINE
  8
0
 62
     0
 10
159.457
 20
37.5267
 30
0.0
 11
160.257
 21
37.5267
 31
0.0
  0
LINE
  8
0
 62
     0
 10
160.257
 20
37.5267
 30
0.0
 11
160.257
 21
36.5263
 31
0.0
  0
LINE
  8
0
 62
     0
 10
160.257
 20
36.5263
 30
0.0
 11
174.257
 21
36.5263
 31
0.0
  0
LINE
  8
0
 62
     0
 10
174.257
 20
36.5263
 30
0.0
 11
174.257
 21
37.5267
 31
0.0
  0
LINE
  8
0
 62
     0
 10
174.257
 20
37.5267
 30
0.0
 11
175.058
 21
37.5267
 31
0.0
  0
LINE
  8
0
 62
     0
 10
175.058
 20
37.5267
 30
0.0
 11
175.058
 21
40.6273
 31
0.0
  0
LINE
  8
0
 62
     0
 10
175.058
 20
40.6273
 30
0.0
 11
174.257
 21
40.6273
 31
0.0
  0
LINE
  8
0
 62
     0
 10
174.257
 20
40.6273
 30
0.0
 11
174.257
 21
46.4263
 31
0.0
  0
LINE
  8
0
 62
     0
 10
174.257
 20
46.4263
 30
0.0
 11
175.058
 21
46.4263
 31
0.0
  0
LINE
  8
0
 62
     0
 10
175.058
 20
46.4263
 30
0.0
 11
175.058
 21
49.5268
 31
0.0
  0
LINE
  8
0
 62
     0
 10
175.058
 20
49.5268
 30
0.0
 11
174.257
 21
49.5268
 31
0.0
  0
LINE
  8
0
 62
     0
 10
174.257
 20
49.5268
 30
0.0
 11
174.257
 21
50.5273
 31
0.0
  0
LINE
  8
0
 62
     0
 10
174.257
 20
50.5273
 30
0.0
 11
160.257
 21
50.5273
 31
0.0
  0
LINE
  8
0
 62
     0
 10
141.207
 20
50.5273
 30
0.0
 11
141.207
 21
49.5268
 31
0.0
  0
LINE
  8
0
 62
     0
 10
141.207
 20
49.5268
 30
0.0
 11
140.407
 21
49.5268
 31
0.0
  0
LINE
  8
0
 62
     0
 10
140.407
 20
49.5268
 30
0.0
 11
140.407
 21
46.4263
 31
0.0
  0
LINE
  8
0
 62
     0
 10
140.407
 20
46.4263
 30
0.0
 11
141.207
 21
46.4263
 31
0.0
  0
LINE
  8
0
 62
     0
 10
141.207
 20
46.4263
 30
0.0
 11
141.207
 21
40.6273
 31
0.0
  0
LINE
  8
0
 62
     0
 10
141.207
 20
40.6273
 30
0.0
 11
140.407
 21
40.6273
 31
0.0
  0
LINE
  8
0
 62
     0
 10
140.407
 20
40.6273
 30
0.0
 11
140.407
 21
37.5267
 31
0.0
  0
LINE
  8
0
 62
     0
 10
140.407
 20
37.5267
 30
0.0
 11
141.207
 21
37.5267
 31
0.0
  0
LINE
  8
0
 62
     0
 10
141.207
 20
37.5267
 30
0.0
 11
141.207
 21
36.5263
 31
0.0
  0
LINE
  8
0
 62
     0
 10
141.207
 20
36.5263
 30
0.0
 11
155.207
 21
36.5263
 31
0.0
  0
LINE
  8
0
 62
     0
 10
155.207
 20
36.5263
 30
0.0
 11
155.207
 21
37.5267
 31
0.0
  0
LINE
  8
0
 62
     0
 10
155.207
 20
37.5267
 30
0.0
 11
156.008
 21
37.5267
 31
0.0
  0
LINE
  8
0
 62
     0
 10
156.008
 20
37.5267
 30
0.0
 11
156.008
 21
40.6273
 31
0.0
  0
LINE
  8
0
 62
     0
 10
156.008
 20
40.6273
 30
0.0
 11
155.207
 21
40.6273
 31
0.0
  0
LINE
  8
0
 62
     0
 10
155.207
 20
40.6273
 30
0.0
 11
155.207
 21
46.4263
 31
0.0
  0
LINE
  8
0
 62
     0
 10
155.207
 20
46.4263
 30
0.0
 11
156.008
 21
46.4263
 31
0.0
  0
LINE
  8
0
 62
     0
 10
156.008
 20
46.4263
 30
0.0
 11
156.008
 21
49.5268
 31
0.0
  0
LINE
  8
0
 62
     0
 10
156.008
 20
49.5268
 30
0.0
 11
155.207
 21
49.5268
 31
0.0
  0
LINE
  8
0
 62
     0
 10
155.207
 20
49.5268
 30
0.0
 11
155.207
 21
50.5273
 31
0.0
  0
LINE
  8
0
 62
     0
 10
155.207
 20
50.5273
 30
0.0
 11
141.207
 21
50.5273
 31
0.0
  0
LINE
  8
0
 62
     0
 10
122.157
 20
50.5273
 30
0.0
 11
122.157
 21
49.5268
 31
0.0
  0
LINE
  8
0
 62
     0
 10
122.157
 20
49.5268
 30
0.0
 11
121.357
 21
49.5268
 31
0.0
  0
LINE
  8
0
 62
     0
 10
121.357
 20
49.5268
 30
0.0
 11
121.357
 21
46.4263
 31
0.0
  0
LINE
  8
0
 62
     0
 10
121.357
 20
46.4263
 30
0.0
 11
122.157
 21
46.4263
 31
0.0
  0
LINE
  8
0
 62
     0
 10
122.157
 20
46.4263
 30
0.0
 11
122.157
 21
40.6273
 31
0.0
  0
LINE
  8
0
 62
     0
 10
122.157
 20
40.6273
 30
0.0
 11
121.357
 21
40.6273
 31
0.0
  0
LINE
  8
0
 62
     0
 10
121.357
 20
40.6273
 30
0.0
 11
121.357
 21
37.5267
 31
0.0
  0
LINE
  8
0
 62
     0
 10
121.357
 20
37.5267
 30
0.0
 11
122.157
 21
37.5267
 31
0.0
  0
LINE
  8
0
 62
     0
 10
122.157
 20
37.5267
 30
0.0
 11
122.157
 21
36.5263
 31
0.0
  0
LINE
  8
0
 62
     0
 10
122.157
 20
36.5263
 30
0.0
 11
136.157
 21
36.5263
 31
0.0
  0
LINE
  8
0
 62
     0
 10
136.157
 20
36.5263
 30
0.0
 11
136.157
 21
37.5267
 31
0.0
  0
LINE
  8
0
 62
     0
 10
136.157
 20
37.5267
 30
0.0
 11
136.958
 21
37.5267
 31
0.0
  0
LINE
  8
0
 62
     0
 10
136.958
 20
37.5267
 30
0.0
 11
136.958
 21
40.6273
 31
0.0
  0
LINE
  8
0
 62
     0
 10
136.958
 20
40.6273
 30
0.0
 11
136.157
 21
40.6273
 31
0.0
  0
LINE
  8
0
 62
     0
 10
136.157
 20
40.6273
 30
0.0
 11
136.157
 21
46.4263
 31
0.0
  0
LINE
  8
0
 62
     0
 10
136.157
 20
46.4263
 30
0.0
 11
136.958
 21
46.4263
 31
0.0
  0
LINE
  8
0
 62
     0
 10
136.958
 20
46.4263
 30
0.0
 11
136.958
 21
49.5268
 31
0.0
  0
LINE
  8
0
 62
     0
 10
136.958
 20
49.5268
 30
0.0
 11
136.157
 21
49.5268
 31
0.0
  0
LINE
  8
0
 62
     0
 10
136.157
 20
49.5268
 30
0.0
 11
136.157
 21
50.5273
 31
0.0
  0
LINE
  8
0
 62
     0
 10
136.157
 20
50.5273
 30
0.0
 11
122.157
 21
50.5273
 31
0.0
  0
LINE
  8
0
 62
     0
 10
103.107
 20
50.5273
 30
0.0
 11
103.107
 21
49.5268
 31
0.0
  0
LINE
  8
0
 62
     0
 10
103.107
 20
49.5268
 30
0.0
 11
102.307
 21
49.5268
 31
0.0
  0
LINE
  8
0
 62
     0
 10
102.307
 20
49.5268
 30
0.0
 11
102.307
 21
46.4263
 31
0.0
  0
LINE
  8
0
 62
     0
 10
102.307
 20
46.4263
 30
0.0
 11
103.107
 21
46.4263
 31
0.0
  0
LINE
  8
0
 62
     0
 10
103.107
 20
46.4263
 30
0.0
 11
103.107
 21
40.6273
 31
0.0
  0
LINE
  8
0
 62
     0
 10
103.107
 20
40.6273
 30
0.0
 11
102.307
 21
40.6273
 31
0.0
  0
LINE
  8
0
 62
     0
 10
102.307
 20
40.6273
 30
0.0
 11
102.307
 21
37.5267
 31
0.0
  0
LINE
  8
0
 62
     0
 10
102.307
 20
37.5267
 30
0.0
 11
103.107
 21
37.5267
 31
0.0
  0
LINE
  8
0
 62
     0
 10
103.107
 20
37.5267
 30
0.0
 11
103.107
 21
36.5263
 31
0.0
  0
LINE
  8
0
 62
     0
 10
103.107
 20
36.5263
 30
0.0
 11
117.107
 21
36.5263
 31
0.0
  0
LINE
  8
0
 62
     0
 10
117.107
 20
36.5263
 30
0.0
 11
117.107
 21
37.5267
 31
0.0
  0
LINE
  8
0
 62
     0
 10
117.107
 20
37.5267
 30
0.0
 11
117.908
 21
37.5267
 31
0.0
  0
LINE
  8
0
 62
     0
 10
117.908
 20
37.5267
 30
0.0
 11
117.908
 21
40.6273
 31
0.0
  0
LINE
  8
0
 62
     0
 10
117.908
 20
40.6273
 30
0.0
 11
117.107
 21
40.6273
 31
0.0
  0
LINE
  8
0
 62
     0
 10
117.107
 20
40.6273
 30
0.0
 11
117.107
 21
46.4263
 31
0.0
  0
LINE
  8
0
 62
     0
 10
117.107
 20
46.4263
 30
0.0
 11
117.908
 21
46.4263
 31
0.0
  0
LINE
  8
0
 62
     0
 10
117.908
 20
46.4263
 30
0.0
 11
117.908
 21
49.5268
 31
0.0
  0
LINE
  8
0
 62
     0
 10
117.908
 20
49.5268
 30
0.0
 11
117.107
 21
49.5268
 31
0.0
  0
LINE
  8
0
 62
     0
 10
117.107
 20
49.5268
 30
0.0
 11
117.107
 21
50.5273
 31
0.0
  0
LINE
  8
0
 62
     0
 10
117.107
 20
50.5273
 30
0.0
 11
103.107
 21
50.5273
 31
0.0
  0
LINE
  8
0
 62
     0
 10
84.0574
 20
50.5273
 30
0.0
 11
84.0574
 21
49.5268
 31
0.0
  0
LINE
  8
0
 62
     0
 10
84.0574
 20
49.5268
 30
0.0
 11
83.257
 21
49.5268
 31
0.0
  0
LINE
  8
0
 62
     0
 10
83.257
 20
49.5268
 30
0.0
 11
83.257
 21
46.4263
 31
0.0
  0
LINE
  8
0
 62
     0
 10
83.257
 20
46.4263
 30
0.0
 11
84.0574
 21
46.4263
 31
0.0
  0
LINE
  8
0
 62
     0
 10
84.0574
 20
46.4263
 30
0.0
 11
84.0574
 21
40.6273
 31
0.0
  0
LINE
  8
0
 62
     0
 10
84.0574
 20
40.6273
 30
0.0
 11
83.257
 21
40.6273
 31
0.0
  0
LINE
  8
0
 62
     0
 10
83.257
 20
40.6273
 30
0.0
 11
83.257
 21
37.5267
 31
0.0
  0
LINE
  8
0
 62
     0
 10
83.257
 20
37.5267
 30
0.0
 11
84.0574
 21
37.5267
 31
0.0
  0
LINE
  8
0
 62
     0
 10
84.0574
 20
37.5267
 30
0.0
 11
84.0574
 21
36.5263
 31
0.0
  0
LINE
  8
0
 62
     0
 10
84.0574
 20
36.5263
 30
0.0
 11
98.0571
 21
36.5263
 31
0.0
  0
LINE
  8
0
 62
     0
 10
98.0571
 20
36.5263
 30
0.0
 11
98.0571
 21
37.5267
 31
0.0
  0
LINE
  8
0
 62
     0
 10
98.0571
 20
37.5267
 30
0.0
 11
98.8579
 21
37.5267
 31
0.0
  0
LINE
  8
0
 62
     0
 10
98.8579
 20
37.5267
 30
0.0
 11
98.8579
 21
40.6273
 31
0.0
  0
LINE
  8
0
 62
     0
 10
98.8579
 20
40.6273
 30
0.0
 11
98.0571
 21
40.6273
 31
0.0
  0
LINE
  8
0
 62
     0
 10
98.0571
 20
40.6273
 30
0.0
 11
98.0571
 21
46.4263
 31
0.0
  0
LINE
  8
0
 62
     0
 10
98.0571
 20
46.4263
 30
0.0
 11
98.8579
 21
46.4263
 31
0.0
  0
LINE
  8
0
 62
     0
 10
98.8579
 20
46.4263
 30
0.0
 11
98.8579
 21
49.5268
 31
0.0
  0
LINE
  8
0
 62
     0
 10
98.8579
 20
49.5268
 30
0.0
 11
98.0571
 21
49.5268
 31
0.0
  0
LINE
  8
0
 62
     0
 10
98.0571
 20
49.5268
 30
0.0
 11
98.0571
 21
50.5273
 31
0.0
  0
LINE
  8
0
 62
     0
 10
98.0571
 20
50.5273
 30
0.0
 11
84.0574
 21
50.5273
 31
0.0
  0
LINE
  8
0
 62
     0
 10
65.0074
 20
50.5273
 30
0.0
 11
65.0074
 21
49.5268
 31
0.0
  0
LINE
  8
0
 62
     0
 10
65.0074
 20
49.5268
 30
0.0
 11
64.207
 21
49.5268
 31
0.0
  0
LINE
  8
0
 62
     0
 10
64.207
 20
49.5268
 30
0.0
 11
64.207
 21
46.4263
 31
0.0
  0
LINE
  8
0
 62
     0
 10
64.207
 20
46.4263
 30
0.0
 11
65.0074
 21
46.4263
 31
0.0
  0
LINE
  8
0
 62
     0
 10
65.0074
 20
46.4263
 30
0.0
 11
65.0074
 21
40.6273
 31
0.0
  0
LINE
  8
0
 62
     0
 10
65.0074
 20
40.6273
 30
0.0
 11
64.207
 21
40.6273
 31
0.0
  0
LINE
  8
0
 62
     0
 10
64.207
 20
40.6273
 30
0.0
 11
64.207
 21
37.5267
 31
0.0
  0
LINE
  8
0
 62
     0
 10
64.207
 20
37.5267
 30
0.0
 11
65.0074
 21
37.5267
 31
0.0
  0
LINE
  8
0
 62
     0
 10
65.0074
 20
37.5267
 30
0.0
 11
65.0074
 21
36.5263
 31
0.0
  0
LINE
  8
0
 62
     0
 10
65.0074
 20
36.5263
 30
0.0
 11
79.0071
 21
36.5263
 31
0.0
  0
LINE
  8
0
 62
     0
 10
79.0071
 20
36.5263
 30
0.0
 11
79.0071
 21
37.5267
 31
0.0
  0
LINE
  8
0
 62
     0
 10
79.0071
 20
37.5267
 30
0.0
 11
79.8079
 21
37.5267
 31
0.0
  0
LINE
  8
0
 62
     0
 10
79.8079
 20
37.5267
 30
0.0
 11
79.8079
 21
40.6273
 31
0.0
  0
LINE
  8
0
 62
     0
 10
79.8079
 20
40.6273
 30
0.0
 11
79.0071
 21
40.6273
 31
0.0
  0
LINE
  8
0
 62
     0
 10
79.0071
 20
40.6273
 30
0.0
 11
79.0071
 21
46.4263
 31
0.0
  0
LINE
  8
0
 62
     0
 10
79.0071
 20
46.4263
 30
0.0
 11
79.8079
 21
46.4263
 31
0.0
  0
LINE
  8
0
 62
     0
 10
79.8079
 20
46.4263
 30
0.0
 11
79.8079
 21
49.5268
 31
0.0
  0
LINE
  8
0
 62
     0
 10
79.8079
 20
49.5268
 30
0.0
 11
79.0071
 21
49.5268
 31
0.0
  0
LINE
  8
0
 62
     0
 10
79.0071
 20
49.5268
 30
0.0
 11
79.0071
 21
50.5273
 31
0.0
  0
LINE
  8
0
 62
     0
 10
79.0071
 20
50.5273
 30
0.0
 11
65.0074
 21
50.5273
 31
0.0
  0
LINE
  8
0
 62
     0
 10
45.9574
 20
50.5273
 30
0.0
 11
45.9574
 21
49.5268
 31
0.0
  0
LINE
  8
0
 62
     0
 10
45.9574
 20
49.5268
 30
0.0
 11
45.157
 21
49.5268
 31
0.0
  0
LINE
  8
0
 62
     0
 10
45.157
 20
49.5268
 30
0.0
 11
45.157
 21
46.4263
 31
0.0
  0
LINE
  8
0
 62
     0
 10
45.157
 20
46.4263
 30
0.0
 11
45.9574
 21
46.4263
 31
0.0
  0
LINE
  8
0
 62
     0
 10
45.9574
 20
46.4263
 30
0.0
 11
45.9574
 21
40.6273
 31
0.0
  0
LINE
  8
0
 62
     0
 10
45.9574
 20
40.6273
 30
0.0
 11
45.157
 21
40.6273
 31
0.0
  0
LINE
  8
0
 62
     0
 10
45.157
 20
40.6273
 30
0.0
 11
45.157
 21
37.5267
 31
0.0
  0
LINE
  8
0
 62
     0
 10
45.157
 20
37.5267
 30
0.0
 11
45.9574
 21
37.5267
 31
0.0
  0
LINE
  8
0
 62
     0
 10
45.9574
 20
37.5267
 30
0.0
 11
45.9574
 21
36.5263
 31
0.0
  0
LINE
  8
0
 62
     0
 10
45.9574
 20
36.5263
 30
0.0
 11
59.9571
 21
36.5263
 31
0.0
  0
LINE
  8
0
 62
     0
 10
59.9571
 20
36.5263
 30
0.0
 11
59.9571
 21
37.5267
 31
0.0
  0
LINE
  8
0
 62
     0
 10
59.9571
 20
37.5267
 30
0.0
 11
60.7579
 21
37.5267
 31
0.0
  0
LINE
  8
0
 62
     0
 10
60.7579
 20
37.5267
 30
0.0
 11
60.7579
 21
40.6273
 31
0.0
  0
LINE
  8
0
 62
     0
 10
60.7579
 20
40.6273
 30
0.0
 11
59.9571
 21
40.6273
 31
0.0
  0
LINE
  8
0
 62
     0
 10
59.9571
 20
40.6273
 30
0.0
 11
59.9571
 21
46.4263
 31
0.0
  0
LINE
  8
0
 62
     0
 10
59.9571
 20
46.4263
 30
0.0
 11
60.7579
 21
46.4263
 31
0.0
  0
LINE
  8
0
 62
     0
 10
60.7579
 20
46.4263
 30
0.0
 11
60.7579
 21
49.5268
 31
0.0
  0
LINE
  8
0
 62
     0
 10
60.7579
 20
49.5268
 30
0.0
 11
59.9571
 21
49.5268
 31
0.0
  0
LINE
  8
0
 62
     0
 10
59.9571
 20
49.5268
 30
0.0
 11
59.9571
 21
50.5273
 31
0.0
  0
LINE
  8
0
 62
     0
 10
59.9571
 20
50.5273
 30
0.0
 11
45.9574
 21
50.5273
 31
0.0
  0
LINE
  8
0
 62
     0
 10
19.7638
 20
50.5273
 30
0.0
 11
19.7638
 21
49.5268
 31
0.0
  0
LINE
  8
0
 62
     0
 10
19.7638
 20
49.5268
 30
0.0
 11
18.9632
 21
49.5268
 31
0.0
  0
LINE
  8
0
 62
     0
 10
18.9632
 20
49.5268
 30
0.0
 11
18.9632
 21
46.4263
 31
0.0
  0
LINE
  8
0
 62
     0
 10
18.9632
 20
46.4263
 30
0.0
 11
19.7638
 21
46.4263
 31
0.0
  0
LINE
  8
0
 62
     0
 10
19.7638
 20
46.4263
 30
0.0
 11
19.7638
 21
40.6273
 31
0.0
  0
LINE
  8
0
 62
     0
 10
19.7638
 20
40.6273
 30
0.0
 11
18.9632
 21
40.6273
 31
0.0
  0
LINE
  8
0
 62
     0
 10
18.9632
 20
40.6273
 30
0.0
 11
18.9632
 21
37.5267
 31
0.0
  0
LINE
  8
0
 62
     0
 10
18.9632
 20
37.5267
 30
0.0
 11
19.7638
 21
37.5267
 31
0.0
  0
LINE
  8
0
 62
     0
 10
19.7638
 20
37.5267
 30
0.0
 11
19.7638
 21
36.5263
 31
0.0
  0
LINE
  8
0
 62
     0
 10
19.7638
 20
36.5263
 30
0.0
 11
33.7633
 21
36.5263
 31
0.0
  0
LINE
  8
0
 62
     0
 10
33.7633
 20
36.5263
 30
0.0
 11
33.7633
 21
37.5267
 31
0.0
  0
LINE
  8
0
 62
     0
 10
33.7633
 20
37.5267
 30
0.0
 11
34.564
 21
37.5267
 31
0.0
  0
LINE
  8
0
 62
     0
 10
34.564
 20
37.5267
 30
0.0
 11
34.564
 21
40.6273
 31
0.0
  0
LINE
  8
0
 62
     0
 10
34.564
 20
40.6273
 30
0.0
 11
33.7633
 21
40.6273
 31
0.0
  0
LINE
  8
0
 62
     0
 10
33.7633
 20
40.6273
 30
0.0
 11
33.7633
 21
46.4263
 31
0.0
  0
LINE
  8
0
 62
     0
 10
33.7633
 20
46.4263
 30
0.0
 11
34.564
 21
46.4263
 31
0.0
  0
LINE
  8
0
 62
     0
 10
34.564
 20
46.4263
 30
0.0
 11
34.564
 21
49.5268
 31
0.0
  0
LINE
  8
0
 62
     0
 10
34.564
 20
49.5268
 30
0.0
 11
33.7633
 21
49.5268
 31
0.0
  0
LINE
  8
0
 62
     0
 10
33.7633
 20
49.5268
 30
0.0
 11
33.7633
 21
50.5273
 31
0.0
  0
LINE
  8
0
 62
     0
 10
33.7633
 20
50.5273
 30
0.0
 11
19.7638
 21
50.5273
 31
0.0
  0
LINE
  8
0
 62
     0
 10
250.745
 20
69.5773
 30
0.0
 11
250.745
 21
68.5768
 31
0.0
  0
LINE
  8
0
 62
     0
 10
250.745
 20
68.5768
 30
0.0
 11
249.946
 21
68.5768
 31
0.0
  0
LINE
  8
0
 62
     0
 10
249.946
 20
68.5768
 30
0.0
 11
249.946
 21
65.4763
 31
0.0
  0
LINE
  8
0
 62
     0
 10
249.946
 20
65.4763
 30
0.0
 11
250.745
 21
65.4763
 31
0.0
  0
LINE
  8
0
 62
     0
 10
250.745
 20
65.4763
 30
0.0
 11
250.745
 21
59.6773
 31
0.0
  0
LINE
  8
0
 62
     0
 10
250.745
 20
59.6773
 30
0.0
 11
249.946
 21
59.6773
 31
0.0
  0
LINE
  8
0
 62
     0
 10
249.946
 20
59.6773
 30
0.0
 11
249.946
 21
56.5767
 31
0.0
  0
LINE
  8
0
 62
     0
 10
249.946
 20
56.5767
 30
0.0
 11
250.745
 21
56.5767
 31
0.0
  0
LINE
  8
0
 62
     0
 10
250.745
 20
56.5767
 30
0.0
 11
250.745
 21
55.5763
 31
0.0
  0
LINE
  8
0
 62
     0
 10
250.745
 20
55.5763
 30
0.0
 11
264.746
 21
55.5763
 31
0.0
  0
LINE
  8
0
 62
     0
 10
264.746
 20
55.5763
 30
0.0
 11
264.746
 21
56.5767
 31
0.0
  0
LINE
  8
0
 62
     0
 10
264.746
 20
56.5767
 30
0.0
 11
265.545
 21
56.5767
 31
0.0
  0
LINE
  8
0
 62
     0
 10
265.545
 20
56.5767
 30
0.0
 11
265.545
 21
59.6773
 31
0.0
  0
LINE
  8
0
 62
     0
 10
265.545
 20
59.6773
 30
0.0
 11
264.746
 21
59.6773
 31
0.0
  0
LINE
  8
0
 62
     0
 10
264.746
 20
59.6773
 30
0.0
 11
264.746
 21
65.4763
 31
0.0
  0
LINE
  8
0
 62
     0
 10
264.746
 20
65.4763
 30
0.0
 11
265.545
 21
65.4763
 31
0.0
  0
LINE
  8
0
 62
     0
 10
265.545
 20
65.4763
 30
0.0
 11
265.545
 21
68.5768
 31
0.0
  0
LINE
  8
0
 62
     0
 10
265.545
 20
68.5768
 30
0.0
 11
264.746
 21
68.5768
 31
0.0
  0
LINE
  8
0
 62
     0
 10
264.746
 20
68.5768
 30
0.0
 11
264.746
 21
69.5773
 31
0.0
  0
LINE
  8
0
 62
     0
 10
264.746
 20
69.5773
 30
0.0
 11
250.745
 21
69.5773
 31
0.0
  0
LINE
  8
0
 62
     0
 10
215.026
 20
69.5773
 30
0.0
 11
215.026
 21
68.5768
 31
0.0
  0
LINE
  8
0
 62
     0
 10
215.026
 20
68.5768
 30
0.0
 11
214.227
 21
68.5768
 31
0.0
  0
LINE
  8
0
 62
     0
 10
214.227
 20
68.5768
 30
0.0
 11
214.227
 21
65.4763
 31
0.0
  0
LINE
  8
0
 62
     0
 10
214.227
 20
65.4763
 30
0.0
 11
215.026
 21
65.4763
 31
0.0
  0
LINE
  8
0
 62
     0
 10
215.026
 20
65.4763
 30
0.0
 11
215.026
 21
59.6773
 31
0.0
  0
LINE
  8
0
 62
     0
 10
215.026
 20
59.6773
 30
0.0
 11
214.227
 21
59.6773
 31
0.0
  0
LINE
  8
0
 62
     0
 10
214.227
 20
59.6773
 30
0.0
 11
214.227
 21
56.5767
 31
0.0
  0
LINE
  8
0
 62
     0
 10
214.227
 20
56.5767
 30
0.0
 11
215.026
 21
56.5767
 31
0.0
  0
LINE
  8
0
 62
     0
 10
215.026
 20
56.5767
 30
0.0
 11
215.026
 21
55.5763
 31
0.0
  0
LINE
  8
0
 62
     0
 10
215.026
 20
55.5763
 30
0.0
 11
229.026
 21
55.5763
 31
0.0
  0
LINE
  8
0
 62
     0
 10
229.026
 20
55.5763
 30
0.0
 11
229.026
 21
56.5767
 31
0.0
  0
LINE
  8
0
 62
     0
 10
229.026
 20
56.5767
 30
0.0
 11
229.827
 21
56.5767
 31
0.0
  0
LINE
  8
0
 62
     0
 10
229.827
 20
56.5767
 30
0.0
 11
229.827
 21
59.6773
 31
0.0
  0
LINE
  8
0
 62
     0
 10
229.827
 20
59.6773
 30
0.0
 11
229.026
 21
59.6773
 31
0.0
  0
LINE
  8
0
 62
     0
 10
229.026
 20
59.6773
 30
0.0
 11
229.026
 21
65.4763
 31
0.0
  0
LINE
  8
0
 62
     0
 10
229.026
 20
65.4763
 30
0.0
 11
229.827
 21
65.4763
 31
0.0
  0
LINE
  8
0
 62
     0
 10
229.827
 20
65.4763
 30
0.0
 11
229.827
 21
68.5768
 31
0.0
  0
LINE
  8
0
 62
     0
 10
229.827
 20
68.5768
 30
0.0
 11
229.026
 21
68.5768
 31
0.0
  0
LINE
  8
0
 62
     0
 10
229.026
 20
68.5768
 30
0.0
 11
229.026
 21
69.5773
 31
0.0
  0
LINE
  8
0
 62
     0
 10
229.026
 20
69.5773
 30
0.0
 11
215.026
 21
69.5773
 31
0.0
  0
LINE
  8
0
 62
     0
 10
188.832
 20
69.5773
 30
0.0
 11
188.832
 21
68.5768
 31
0.0
  0
LINE
  8
0
 62
     0
 10
188.832
 20
68.5768
 30
0.0
 11
188.032
 21
68.5768
 31
0.0
  0
LINE
  8
0
 62
     0
 10
188.032
 20
68.5768
 30
0.0
 11
188.032
 21
65.4763
 31
0.0
  0
LINE
  8
0
 62
     0
 10
188.032
 20
65.4763
 30
0.0
 11
188.832
 21
65.4763
 31
0.0
  0
LINE
  8
0
 62
     0
 10
188.832
 20
65.4763
 30
0.0
 11
188.832
 21
59.6773
 31
0.0
  0
LINE
  8
0
 62
     0
 10
188.832
 20
59.6773
 30
0.0
 11
188.032
 21
59.6773
 31
0.0
  0
LINE
  8
0
 62
     0
 10
188.032
 20
59.6773
 30
0.0
 11
188.032
 21
56.5767
 31
0.0
  0
LINE
  8
0
 62
     0
 10
188.032
 20
56.5767
 30
0.0
 11
188.832
 21
56.5767
 31
0.0
  0
LINE
  8
0
 62
     0
 10
188.832
 20
56.5767
 30
0.0
 11
188.832
 21
55.5763
 31
0.0
  0
LINE
  8
0
 62
     0
 10
188.832
 20
55.5763
 30
0.0
 11
202.832
 21
55.5763
 31
0.0
  0
LINE
  8
0
 62
     0
 10
202.832
 20
55.5763
 30
0.0
 11
202.832
 21
56.5767
 31
0.0
  0
LINE
  8
0
 62
     0
 10
202.832
 20
56.5767
 30
0.0
 11
203.633
 21
56.5767
 31
0.0
  0
LINE
  8
0
 62
     0
 10
203.633
 20
56.5767
 30
0.0
 11
203.633
 21
59.6773
 31
0.0
  0
LINE
  8
0
 62
     0
 10
203.633
 20
59.6773
 30
0.0
 11
202.832
 21
59.6773
 31
0.0
  0
LINE
  8
0
 62
     0
 10
202.832
 20
59.6773
 30
0.0
 11
202.832
 21
65.4763
 31
0.0
  0
LINE
  8
0
 62
     0
 10
202.832
 20
65.4763
 30
0.0
 11
203.633
 21
65.4763
 31
0.0
  0
LINE
  8
0
 62
     0
 10
203.633
 20
65.4763
 30
0.0
 11
203.633
 21
68.5768
 31
0.0
  0
LINE
  8
0
 62
     0
 10
203.633
 20
68.5768
 30
0.0
 11
202.832
 21
68.5768
 31
0.0
  0
LINE
  8
0
 62
     0
 10
202.832
 20
68.5768
 30
0.0
 11
202.832
 21
69.5773
 31
0.0
  0
LINE
  8
0
 62
     0
 10
202.832
 20
69.5773
 30
0.0
 11
188.832
 21
69.5773
 31
0.0
  0
LINE
  8
0
 62
     0
 10
169.782
 20
69.5773
 30
0.0
 11
169.782
 21
68.5768
 31
0.0
  0
LINE
  8
0
 62
     0
 10
169.782
 20
68.5768
 30
0.0
 11
168.982
 21
68.5768
 31
0.0
  0
LINE
  8
0
 62
     0
 10
168.982
 20
68.5768
 30
0.0
 11
168.982
 21
65.4763
 31
0.0
  0
LINE
  8
0
 62
     0
 10
168.982
 20
65.4763
 30
0.0
 11
169.782
 21
65.4763
 31
0.0
  0
LINE
  8
0
 62
     0
 10
169.782
 20
65.4763
 30
0.0
 11
169.782
 21
59.6773
 31
0.0
  0
LINE
  8
0
 62
     0
 10
169.782
 20
59.6773
 30
0.0
 11
168.982
 21
59.6773
 31
0.0
  0
LINE
  8
0
 62
     0
 10
168.982
 20
59.6773
 30
0.0
 11
168.982
 21
56.5767
 31
0.0
  0
LINE
  8
0
 62
     0
 10
168.982
 20
56.5767
 30
0.0
 11
169.782
 21
56.5767
 31
0.0
  0
LINE
  8
0
 62
     0
 10
169.782
 20
56.5767
 30
0.0
 11
169.782
 21
55.5763
 31
0.0
  0
LINE
  8
0
 62
     0
 10
169.782
 20
55.5763
 30
0.0
 11
183.782
 21
55.5763
 31
0.0
  0
LINE
  8
0
 62
     0
 10
183.782
 20
55.5763
 30
0.0
 11
183.782
 21
56.5767
 31
0.0
  0
LINE
  8
0
 62
     0
 10
183.782
 20
56.5767
 30
0.0
 11
184.583
 21
56.5767
 31
0.0
  0
LINE
  8
0
 62
     0
 10
184.583
 20
56.5767
 30
0.0
 11
184.583
 21
59.6773
 31
0.0
  0
LINE
  8
0
 62
     0
 10
184.583
 20
59.6773
 30
0.0
 11
183.782
 21
59.6773
 31
0.0
  0
LINE
  8
0
 62
     0
 10
183.782
 20
59.6773
 30
0.0
 11
183.782
 21
65.4763
 31
0.0
  0
LINE
  8
0
 62
     0
 10
183.782
 20
65.4763
 30
0.0
 11
184.583
 21
65.4763
 31
0.0
  0
LINE
  8
0
 62
     0
 10
184.583
 20
65.4763
 30
0.0
 11
184.583
 21
68.5768
 31
0.0
  0
LINE
  8
0
 62
     0
 10
184.583
 20
68.5768
 30
0.0
 11
183.782
 21
68.5768
 31
0.0
  0
LINE
  8
0
 62
     0
 10
183.782
 20
68.5768
 30
0.0
 11
183.782
 21
69.5773
 31
0.0
  0
LINE
  8
0
 62
     0
 10
183.782
 20
69.5773
 30
0.0
 11
169.782
 21
69.5773
 31
0.0
  0
LINE
  8
0
 62
     0
 10
150.732
 20
69.5773
 30
0.0
 11
150.732
 21
68.5768
 31
0.0
  0
LINE
  8
0
 62
     0
 10
150.732
 20
68.5768
 30
0.0
 11
149.932
 21
68.5768
 31
0.0
  0
LINE
  8
0
 62
     0
 10
149.932
 20
68.5768
 30
0.0
 11
149.932
 21
65.4763
 31
0.0
  0
LINE
  8
0
 62
     0
 10
149.932
 20
65.4763
 30
0.0
 11
150.732
 21
65.4763
 31
0.0
  0
LINE
  8
0
 62
     0
 10
150.732
 20
65.4763
 30
0.0
 11
150.732
 21
59.6773
 31
0.0
  0
LINE
  8
0
 62
     0
 10
150.732
 20
59.6773
 30
0.0
 11
149.932
 21
59.6773
 31
0.0
  0
LINE
  8
0
 62
     0
 10
149.932
 20
59.6773
 30
0.0
 11
149.932
 21
56.5767
 31
0.0
  0
LINE
  8
0
 62
     0
 10
149.932
 20
56.5767
 30
0.0
 11
150.732
 21
56.5767
 31
0.0
  0
LINE
  8
0
 62
     0
 10
150.732
 20
56.5767
 30
0.0
 11
150.732
 21
55.5763
 31
0.0
  0
LINE
  8
0
 62
     0
 10
150.732
 20
55.5763
 30
0.0
 11
164.732
 21
55.5763
 31
0.0
  0
LINE
  8
0
 62
     0
 10
164.732
 20
55.5763
 30
0.0
 11
164.732
 21
56.5767
 31
0.0
  0
LINE
  8
0
 62
     0
 10
164.732
 20
56.5767
 30
0.0
 11
165.533
 21
56.5767
 31
0.0
  0
LINE
  8
0
 62
     0
 10
165.533
 20
56.5767
 30
0.0
 11
165.533
 21
59.6773
 31
0.0
  0
LINE
  8
0
 62
     0
 10
165.533
 20
59.6773
 30
0.0
 11
164.732
 21
59.6773
 31
0.0
  0
LINE
  8
0
 62
     0
 10
164.732
 20
59.6773
 30
0.0
 11
164.732
 21
65.4763
 31
0.0
  0
LINE
  8
0
 62
     0
 10
164.732
 20
65.4763
 30
0.0
 11
165.533
 21
65.4763
 31
0.0
  0
LINE
  8
0
 62
     0
 10
165.533
 20
65.4763
 30
0.0
 11
165.533
 21
68.5768
 31
0.0
  0
LINE
  8
0
 62
     0
 10
165.533
 20
68.5768
 30
0.0
 11
164.732
 21
68.5768
 31
0.0
  0
LINE
  8
0
 62
     0
 10
164.732
 20
68.5768
 30
0.0
 11
164.732
 21
69.5773
 31
0.0
  0
LINE
  8
0
 62
     0
 10
164.732
 20
69.5773
 30
0.0
 11
150.732
 21
69.5773
 31
0.0
  0
LINE
  8
0
 62
     0
 10
131.682
 20
69.5773
 30
0.0
 11
131.682
 21
68.5768
 31
0.0
  0
LINE
  8
0
 62
     0
 10
131.682
 20
68.5768
 30
0.0
 11
130.882
 21
68.5768
 31
0.0
  0
LINE
  8
0
 62
     0
 10
130.882
 20
68.5768
 30
0.0
 11
130.882
 21
65.4763
 31
0.0
  0
LINE
  8
0
 62
     0
 10
130.882
 20
65.4763
 30
0.0
 11
131.682
 21
65.4763
 31
0.0
  0
LINE
  8
0
 62
     0
 10
131.682
 20
65.4763
 30
0.0
 11
131.682
 21
59.6773
 31
0.0
  0
LINE
  8
0
 62
     0
 10
131.682
 20
59.6773
 30
0.0
 11
130.882
 21
59.6773
 31
0.0
  0
LINE
  8
0
 62
     0
 10
130.882
 20
59.6773
 30
0.0
 11
130.882
 21
56.5767
 31
0.0
  0
LINE
  8
0
 62
     0
 10
130.882
 20
56.5767
 30
0.0
 11
131.682
 21
56.5767
 31
0.0
  0
LINE
  8
0
 62
     0
 10
131.682
 20
56.5767
 30
0.0
 11
131.682
 21
55.5763
 31
0.0
  0
LINE
  8
0
 62
     0
 10
131.682
 20
55.5763
 30
0.0
 11
145.682
 21
55.5763
 31
0.0
  0
LINE
  8
0
 62
     0
 10
145.682
 20
55.5763
 30
0.0
 11
145.682
 21
56.5767
 31
0.0
  0
LINE
  8
0
 62
     0
 10
145.682
 20
56.5767
 30
0.0
 11
146.483
 21
56.5767
 31
0.0
  0
LINE
  8
0
 62
     0
 10
146.483
 20
56.5767
 30
0.0
 11
146.483
 21
59.6773
 31
0.0
  0
LINE
  8
0
 62
     0
 10
146.483
 20
59.6773
 30
0.0
 11
145.682
 21
59.6773
 31
0.0
  0
LINE
  8
0
 62
     0
 10
145.682
 20
59.6773
 30
0.0
 11
145.682
 21
65.4763
 31
0.0
  0
LINE
  8
0
 62
     0
 10
145.682
 20
65.4763
 30
0.0
 11
146.483
 21
65.4763
 31
0.0
  0
LINE
  8
0
 62
     0
 10
146.483
 20
65.4763
 30
0.0
 11
146.483
 21
68.5768
 31
0.0
  0
LINE
  8
0
 62
     0
 10
146.483
 20
68.5768
 30
0.0
 11
145.682
 21
68.5768
 31
0.0
  0
LINE
  8
0
 62
     0
 10
145.682
 20
68.5768
 30
0.0
 11
145.682
 21
69.5773
 31
0.0
  0
LINE
  8
0
 62
     0
 10
145.682
 20
69.5773
 30
0.0
 11
131.682
 21
69.5773
 31
0.0
  0
LINE
  8
0
 62
     0
 10
112.632
 20
69.5773
 30
0.0
 11
112.632
 21
68.5768
 31
0.0
  0
LINE
  8
0
 62
     0
 10
112.632
 20
68.5768
 30
0.0
 11
111.832
 21
68.5768
 31
0.0
  0
LINE
  8
0
 62
     0
 10
111.832
 20
68.5768
 30
0.0
 11
111.832
 21
65.4763
 31
0.0
  0
LINE
  8
0
 62
     0
 10
111.832
 20
65.4763
 30
0.0
 11
112.632
 21
65.4763
 31
0.0
  0
LINE
  8
0
 62
     0
 10
112.632
 20
65.4763
 30
0.0
 11
112.632
 21
59.6773
 31
0.0
  0
LINE
  8
0
 62
     0
 10
112.632
 20
59.6773
 30
0.0
 11
111.832
 21
59.6773
 31
0.0
  0
LINE
  8
0
 62
     0
 10
111.832
 20
59.6773
 30
0.0
 11
111.832
 21
56.5767
 31
0.0
  0
LINE
  8
0
 62
     0
 10
111.832
 20
56.5767
 30
0.0
 11
112.632
 21
56.5767
 31
0.0
  0
LINE
  8
0
 62
     0
 10
112.632
 20
56.5767
 30
0.0
 11
112.632
 21
55.5763
 31
0.0
  0
LINE
  8
0
 62
     0
 10
112.632
 20
55.5763
 30
0.0
 11
126.632
 21
55.5763
 31
0.0
  0
LINE
  8
0
 62
     0
 10
126.632
 20
55.5763
 30
0.0
 11
126.632
 21
56.5767
 31
0.0
  0
LINE
  8
0
 62
     0
 10
126.632
 20
56.5767
 30
0.0
 11
127.433
 21
56.5767
 31
0.0
  0
LINE
  8
0
 62
     0
 10
127.433
 20
56.5767
 30
0.0
 11
127.433
 21
59.6773
 31
0.0
  0
LINE
  8
0
 62
     0
 10
127.433
 20
59.6773
 30
0.0
 11
126.632
 21
59.6773
 31
0.0
  0
LINE
  8
0
 62
     0
 10
126.632
 20
59.6773
 30
0.0
 11
126.632
 21
65.4763
 31
0.0
  0
LINE
  8
0
 62
     0
 10
126.632
 20
65.4763
 30
0.0
 11
127.433
 21
65.4763
 31
0.0
  0
LINE
  8
0
 62
     0
 10
127.433
 20
65.4763
 30
0.0
 11
127.433
 21
68.5768
 31
0.0
  0
LINE
  8
0
 62
     0
 10
127.433
 20
68.5768
 30
0.0
 11
126.632
 21
68.5768
 31
0.0
  0
LINE
  8
0
 62
     0
 10
126.632
 20
68.5768
 30
0.0
 11
126.632
 21
69.5773
 31
0.0
  0
LINE
  8
0
 62
     0
 10
126.632
 20
69.5773
 30
0.0
 11
112.632
 21
69.5773
 31
0.0
  0
LINE
  8
0
 62
     0
 10
93.5824
 20
69.5773
 30
0.0
 11
93.5824
 21
68.5768
 31
0.0
  0
LINE
  8
0
 62
     0
 10
93.5824
 20
68.5768
 30
0.0
 11
92.782
 21
68.5768
 31
0.0
  0
LINE
  8
0
 62
     0
 10
92.782
 20
68.5768
 30
0.0
 11
92.782
 21
65.4763
 31
0.0
  0
LINE
  8
0
 62
     0
 10
92.782
 20
65.4763
 30
0.0
 11
93.5824
 21
65.4763
 31
0.0
  0
LINE
  8
0
 62
     0
 10
93.5824
 20
65.4763
 30
0.0
 11
93.5824
 21
59.6773
 31
0.0
  0
LINE
  8
0
 62
     0
 10
93.5824
 20
59.6773
 30
0.0
 11
92.782
 21
59.6773
 31
0.0
  0
LINE
  8
0
 62
     0
 10
92.782
 20
59.6773
 30
0.0
 11
92.782
 21
56.5767
 31
0.0
  0
LINE
  8
0
 62
     0
 10
92.782
 20
56.5767
 30
0.0
 11
93.5824
 21
56.5767
 31
0.0
  0
LINE
  8
0
 62
     0
 10
93.5824
 20
56.5767
 30
0.0
 11
93.5824
 21
55.5763
 31
0.0
  0
LINE
  8
0
 62
     0
 10
93.5824
 20
55.5763
 30
0.0
 11
107.582
 21
55.5763
 31
0.0
  0
LINE
  8
0
 62
     0
 10
107.582
 20
55.5763
 30
0.0
 11
107.582
 21
56.5767
 31
0.0
  0
LINE
  8
0
 62
     0
 10
107.582
 20
56.5767
 30
0.0
 11
108.383
 21
56.5767
 31
0.0
  0
LINE
  8
0
 62
     0
 10
108.383
 20
56.5767
 30
0.0
 11
108.383
 21
59.6773
 31
0.0
  0
LINE
  8
0
 62
     0
 10
108.383
 20
59.6773
 30
0.0
 11
107.582
 21
59.6773
 31
0.0
  0
LINE
  8
0
 62
     0
 10
107.582
 20
59.6773
 30
0.0
 11
107.582
 21
65.4763
 31
0.0
  0
LINE
  8
0
 62
     0
 10
107.582
 20
65.4763
 30
0.0
 11
108.383
 21
65.4763
 31
0.0
  0
LINE
  8
0
 62
     0
 10
108.383
 20
65.4763
 30
0.0
 11
108.383
 21
68.5768
 31
0.0
  0
LINE
  8
0
 62
     0
 10
108.383
 20
68.5768
 30
0.0
 11
107.582
 21
68.5768
 31
0.0
  0
LINE
  8
0
 62
     0
 10
107.582
 20
68.5768
 30
0.0
 11
107.582
 21
69.5773
 31
0.0
  0
LINE
  8
0
 62
     0
 10
107.582
 20
69.5773
 30
0.0
 11
93.5824
 21
69.5773
 31
0.0
  0
LINE
  8
0
 62
     0
 10
74.5324
 20
69.5773
 30
0.0
 11
74.5324
 21
68.5768
 31
0.0
  0
LINE
  8
0
 62
     0
 10
74.5324
 20
68.5768
 30
0.0
 11
73.732
 21
68.5768
 31
0.0
  0
LINE
  8
0
 62
     0
 10
73.732
 20
68.5768
 30
0.0
 11
73.732
 21
65.4763
 31
0.0
  0
LINE
  8
0
 62
     0
 10
73.732
 20
65.4763
 30
0.0
 11
74.5324
 21
65.4763
 31
0.0
  0
LINE
  8
0
 62
     0
 10
74.5324
 20
65.4763
 30
0.0
 11
74.5324
 21
59.6773
 31
0.0
  0
LINE
  8
0
 62
     0
 10
74.5324
 20
59.6773
 30
0.0
 11
73.732
 21
59.6773
 31
0.0
  0
LINE
  8
0
 62
     0
 10
73.732
 20
59.6773
 30
0.0
 11
73.732
 21
56.5767
 31
0.0
  0
LINE
  8
0
 62
     0
 10
73.732
 20
56.5767
 30
0.0
 11
74.5324
 21
56.5767
 31
0.0
  0
LINE
  8
0
 62
     0
 10
74.5324
 20
56.5767
 30
0.0
 11
74.5324
 21
55.5763
 31
0.0
  0
LINE
  8
0
 62
     0
 10
74.5324
 20
55.5763
 30
0.0
 11
88.5321
 21
55.5763
 31
0.0
  0
LINE
  8
0
 62
     0
 10
88.5321
 20
55.5763
 30
0.0
 11
88.5321
 21
56.5767
 31
0.0
  0
LINE
  8
0
 62
     0
 10
88.5321
 20
56.5767
 30
0.0
 11
89.3329
 21
56.5767
 31
0.0
  0
LINE
  8
0
 62
     0
 10
89.3329
 20
56.5767
 30
0.0
 11
89.3329
 21
59.6773
 31
0.0
  0
LINE
  8
0
 62
     0
 10
89.3329
 20
59.6773
 30
0.0
 11
88.5321
 21
59.6773
 31
0.0
  0
LINE
  8
0
 62
     0
 10
88.5321
 20
59.6773
 30
0.0
 11
88.5321
 21
65.4763
 31
0.0
  0
LINE
  8
0
 62
     0
 10
88.5321
 20
65.4763
 30
0.0
 11
89.3329
 21
65.4763
 31
0.0
  0
LINE
  8
0
 62
     0
 10
89.3329
 20
65.4763
 30
0.0
 11
89.3329
 21
68.5768
 31
0.0
  0
LINE
  8
0
 62
     0
 10
89.3329
 20
68.5768
 30
0.0
 11
88.5321
 21
68.5768
 31
0.0
  0
LINE
  8
0
 62
     0
 10
88.5321
 20
68.5768
 30
0.0
 11
88.5321
 21
69.5773
 31
0.0
  0
LINE
  8
0
 62
     0
 10
88.5321
 20
69.5773
 30
0.0
 11
74.5324
 21
69.5773
 31
0.0
  0
LINE
  8
0
 62
     0
 10
55.4824
 20
69.5773
 30
0.0
 11
55.4824
 21
68.5768
 31
0.0
  0
LINE
  8
0
 62
     0
 10
55.4824
 20
68.5768
 30
0.0
 11
54.682
 21
68.5768
 31
0.0
  0
LINE
  8
0
 62
     0
 10
54.682
 20
68.5768
 30
0.0
 11
54.682
 21
65.4763
 31
0.0
  0
LINE
  8
0
 62
     0
 10
54.682
 20
65.4763
 30
0.0
 11
55.4824
 21
65.4763
 31
0.0
  0
LINE
  8
0
 62
     0
 10
55.4824
 20
65.4763
 30
0.0
 11
55.4824
 21
59.6773
 31
0.0
  0
LINE
  8
0
 62
     0
 10
55.4824
 20
59.6773
 30
0.0
 11
54.682
 21
59.6773
 31
0.0
  0
LINE
  8
0
 62
     0
 10
54.682
 20
59.6773
 30
0.0
 11
54.682
 21
56.5767
 31
0.0
  0
LINE
  8
0
 62
     0
 10
54.682
 20
56.5767
 30
0.0
 11
55.4824
 21
56.5767
 31
0.0
  0
LINE
  8
0
 62
     0
 10
55.4824
 20
56.5767
 30
0.0
 11
55.4824
 21
55.5763
 31
0.0
  0
LINE
  8
0
 62
     0
 10
55.4824
 20
55.5763
 30
0.0
 11
69.4821
 21
55.5763
 31
0.0
  0
LINE
  8
0
 62
     0
 10
69.4821
 20
55.5763
 30
0.0
 11
69.4821
 21
56.5767
 31
0.0
  0
LINE
  8
0
 62
     0
 10
69.4821
 20
56.5767
 30
0.0
 11
70.2829
 21
56.5767
 31
0.0
  0
LINE
  8
0
 62
     0
 10
70.2829
 20
56.5767
 30
0.0
 11
70.2829
 21
59.6773
 31
0.0
  0
LINE
  8
0
 62
     0
 10
70.2829
 20
59.6773
 30
0.0
 11
69.4821
 21
59.6773
 31
0.0
  0
LINE
  8
0
 62
     0
 10
69.4821
 20
59.6773
 30
0.0
 11
69.4821
 21
65.4763
 31
0.0
  0
LINE
  8
0
 62
     0
 10
69.4821
 20
65.4763
 30
0.0
 11
70.2829
 21
65.4763
 31
0.0
  0
LINE
  8
0
 62
     0
 10
70.2829
 20
65.4763
 30
0.0
 11
70.2829
 21
68.5768
 31
0.0
  0
LINE
  8
0
 62
     0
 10
70.2829
 20
68.5768
 30
0.0
 11
69.4821
 21
68.5768
 31
0.0
  0
LINE
  8
0
 62
     0
 10
69.4821
 20
68.5768
 30
0.0
 11
69.4821
 21
69.5773
 31
0.0
  0
LINE
  8
0
 62
     0
 10
69.4821
 20
69.5773
 30
0.0
 11
55.4824
 21
69.5773
 31
0.0
  0
LINE
  8
0
 62
     0
 10
36.4324
 20
69.5773
 30
0.0
 11
36.4324
 21
68.5768
 31
0.0
  0
LINE
  8
0
 62
     0
 10
36.4324
 20
68.5768
 30
0.0
 11
35.632
 21
68.5768
 31
0.0
  0
LINE
  8
0
 62
     0
 10
35.632
 20
68.5768
 30
0.0
 11
35.632
 21
65.4763
 31
0.0
  0
LINE
  8
0
 62
     0
 10
35.632
 20
65.4763
 30
0.0
 11
36.4324
 21
65.4763
 31
0.0
  0
LINE
  8
0
 62
     0
 10
36.4324
 20
65.4763
 30
0.0
 11
36.4324
 21
59.6773
 31
0.0
  0
LINE
  8
0
 62
     0
 10
36.4324
 20
59.6773
 30
0.0
 11
35.632
 21
59.6773
 31
0.0
  0
LINE
  8
0
 62
     0
 10
35.632
 20
59.6773
 30
0.0
 11
35.632
 21
56.5767
 31
0.0
  0
LINE
  8
0
 62
     0
 10
35.632
 20
56.5767
 30
0.0
 11
36.4324
 21
56.5767
 31
0.0
  0
LINE
  8
0
 62
     0
 10
36.4324
 20
56.5767
 30
0.0
 11
36.4324
 21
55.5763
 31
0.0
  0
LINE
  8
0
 62
     0
 10
36.4324
 20
55.5763
 30
0.0
 11
50.4321
 21
55.5763
 31
0.0
  0
LINE
  8
0
 62
     0
 10
50.4321
 20
55.5763
 30
0.0
 11
50.4321
 21
56.5767
 31
0.0
  0
LINE
  8
0
 62
     0
 10
50.4321
 20
56.5767
 30
0.0
 11
51.2329
 21
56.5767
 31
0.0
  0
LINE
  8
0
 62
     0
 10
51.2329
 20
56.5767
 30
0.0
 11
51.2329
 21
59.6773
 31
0.0
  0
LINE
  8
0
 62
     0
 10
51.2329
 20
59.6773
 30
0.0
 11
50.4321
 21
59.6773
 31
0.0
  0
LINE
  8
0
 62
     0
 10
50.4321
 20
59.6773
 30
0.0
 11
50.4321
 21
65.4763
 31
0.0
  0
LINE
  8
0
 62
     0
 10
50.4321
 20
65.4763
 30
0.0
 11
51.2329
 21
65.4763
 31
0.0
  0
LINE
  8
0
 62
     0
 10
51.2329
 20
65.4763
 30
0.0
 11
51.2329
 21
68.5768
 31
0.0
  0
LINE
  8
0
 62
     0
 10
51.2329
 20
68.5768
 30
0.0
 11
50.4321
 21
68.5768
 31
0.0
  0
LINE
  8
0
 62
     0
 10
50.4321
 20
68.5768
 30
0.0
 11
50.4321
 21
69.5773
 31
0.0
  0
LINE
  8
0
 62
     0
 10
50.4321
 20
69.5773
 30
0.0
 11
36.4324
 21
69.5773
 31
0.0
  0
LINE
  8
0
 62
     0
 10
15.0013
 20
69.5773
 30
0.0
 11
15.0013
 21
68.5768
 31
0.0
  0
LINE
  8
0
 62
     0
 10
15.0013
 20
68.5768
 30
0.0
 11
14.2021
 21
68.5768
 31
0.0
  0
LINE
  8
0
 62
     0
 10
14.2021
 20
68.5768
 30
0.0
 11
14.2021
 21
65.4763
 31
0.0
  0
LINE
  8
0
 62
     0
 10
14.2021
 20
65.4763
 30
0.0
 11
15.0013
 21
65.4763
 31
0.0
  0
LINE
  8
0
 62
     0
 10
15.0013
 20
65.4763
 30
0.0
 11
15.0013
 21
59.6773
 31
0.0
  0
LINE
  8
0
 62
     0
 10
15.0013
 20
59.6773
 30
0.0
 11
14.2021
 21
59.6773
 31
0.0
  0
LINE
  8
0
 62
     0
 10
14.2021
 20
59.6773
 30
0.0
 11
14.2021
 21
56.5767
 31
0.0
  0
LINE
  8
0
 62
     0
 10
14.2021
 20
56.5767
 30
0.0
 11
15.0013
 21
56.5767
 31
0.0
  0
LINE
  8
0
 62
     0
 10
15.0013
 20
56.5767
 30
0.0
 11
15.0013
 21
55.5763
 31
0.0
  0
LINE
  8
0
 62
     0
 10
15.0013
 20
55.5763
 30
0.0
 11
29.0008
 21
55.5763
 31
0.0
  0
LINE
  8
0
 62
     0
 10
29.0008
 20
55.5763
 30
0.0
 11
29.0008
 21
56.5767
 31
0.0
  0
LINE
  8
0
 62
     0
 10
29.0008
 20
56.5767
 30
0.0
 11
29.8015
 21
56.5767
 31
0.0
  0
LINE
  8
0
 62
     0
 10
29.8015
 20
56.5767
 30
0.0
 11
29.8015
 21
59.6773
 31
0.0
  0
LINE
  8
0
 62
     0
 10
29.8015
 20
59.6773
 30
0.0
 11
29.0008
 21
59.6773
 31
0.0
  0
LINE
  8
0
 62
     0
 10
29.0008
 20
59.6773
 30
0.0
 11
29.0008
 21
65.4763
 31
0.0
  0
LINE
  8
0
 62
     0
 10
29.0008
 20
65.4763
 30
0.0
 11
29.8015
 21
65.4763
 31
0.0
  0
LINE
  8
0
 62
     0
 10
29.8015
 20
65.4763
 30
0.0
 11
29.8015
 21
68.5768
 31
0.0
  0
LINE
  8
0
 62
     0
 10
29.8015
 20
68.5768
 30
0.0
 11
29.0008
 21
68.5768
 31
0.0
  0
LINE
  8
0
 62
     0
 10
29.0008
 20
68.5768
 30
0.0
 11
29.0008
 21
69.5773
 31
0.0
  0
LINE
  8
0
 62
     0
 10
29.0008
 20
69.5773
 30
0.0
 11
15.0013
 21
69.5773
 31
0.0
  0
LINE
  8
0
 62
     0
 10
250.745
 20
88.6273
 30
0.0
 11
250.745
 21
87.6268
 31
0.0
  0
LINE
  8
0
 62
     0
 10
250.745
 20
87.6268
 30
0.0
 11
249.946
 21
87.6268
 31
0.0
  0
LINE
  8
0
 62
     0
 10
249.946
 20
87.6268
 30
0.0
 11
249.946
 21
84.5263
 31
0.0
  0
LINE
  8
0
 62
     0
 10
249.946
 20
84.5263
 30
0.0
 11
250.745
 21
84.5263
 31
0.0
  0
LINE
  8
0
 62
     0
 10
250.745
 20
84.5263
 30
0.0
 11
250.745
 21
78.7273
 31
0.0
  0
LINE
  8
0
 62
     0
 10
250.745
 20
78.7273
 30
0.0
 11
249.946
 21
78.7273
 31
0.0
  0
LINE
  8
0
 62
     0
 10
249.946
 20
78.7273
 30
0.0
 11
249.946
 21
75.6267
 31
0.0
  0
LINE
  8
0
 62
     0
 10
249.946
 20
75.6267
 30
0.0
 11
250.745
 21
75.6267
 31
0.0
  0
LINE
  8
0
 62
     0
 10
250.745
 20
75.6267
 30
0.0
 11
250.745
 21
74.6263
 31
0.0
  0
LINE
  8
0
 62
     0
 10
250.745
 20
74.6263
 30
0.0
 11
264.746
 21
74.6263
 31
0.0
  0
LINE
  8
0
 62
     0
 10
264.746
 20
74.6263
 30
0.0
 11
264.746
 21
75.6267
 31
0.0
  0
LINE
  8
0
 62
     0
 10
264.746
 20
75.6267
 30
0.0
 11
265.545
 21
75.6267
 31
0.0
  0
LINE
  8
0
 62
     0
 10
265.545
 20
75.6267
 30
0.0
 11
265.545
 21
78.7273
 31
0.0
  0
LINE
  8
0
 62
     0
 10
265.545
 20
78.7273
 30
0.0
 11
264.746
 21
78.7273
 31
0.0
  0
LINE
  8
0
 62
     0
 10
264.746
 20
78.7273
 30
0.0
 11
264.746
 21
84.5263
 31
0.0
  0
LINE
  8
0
 62
     0
 10
264.746
 20
84.5263
 30
0.0
 11
265.545
 21
84.5263
 31
0.0
  0
LINE
  8
0
 62
     0
 10
265.545
 20
84.5263
 30
0.0
 11
265.545
 21
87.6268
 31
0.0
  0
LINE
  8
0
 62
     0
 10
265.545
 20
87.6268
 30
0.0
 11
264.746
 21
87.6268
 31
0.0
  0
LINE
  8
0
 62
     0
 10
264.746
 20
87.6268
 30
0.0
 11
264.746
 21
88.6273
 31
0.0
  0
LINE
  8
0
 62
     0
 10
264.746
 20
88.6273
 30
0.0
 11
250.745
 21
88.6273
 31
0.0
  0
LINE
  8
0
 62
     0
 10
222.17
 20
88.6273
 30
0.0
 11
222.17
 21
87.6268
 31
0.0
  0
LINE
  8
0
 62
     0
 10
222.17
 20
87.6268
 30
0.0
 11
221.371
 21
87.6268
 31
0.0
  0
LINE
  8
0
 62
     0
 10
221.371
 20
87.6268
 30
0.0
 11
221.371
 21
84.5263
 31
0.0
  0
LINE
  8
0
 62
     0
 10
221.371
 20
84.5263
 30
0.0
 11
222.17
 21
84.5263
 31
0.0
  0
LINE
  8
0
 62
     0
 10
222.17
 20
84.5263
 30
0.0
 11
222.17
 21
78.7273
 31
0.0
  0
LINE
  8
0
 62
     0
 10
222.17
 20
78.7273
 30
0.0
 11
221.371
 21
78.7273
 31
0.0
  0
LINE
  8
0
 62
     0
 10
221.371
 20
78.7273
 30
0.0
 11
221.371
 21
75.6267
 31
0.0
  0
LINE
  8
0
 62
     0
 10
221.371
 20
75.6267
 30
0.0
 11
222.17
 21
75.6267
 31
0.0
  0
LINE
  8
0
 62
     0
 10
222.17
 20
75.6267
 30
0.0
 11
222.17
 21
74.6263
 31
0.0
  0
LINE
  8
0
 62
     0
 10
222.17
 20
74.6263
 30
0.0
 11
236.171
 21
74.6263
 31
0.0
  0
LINE
  8
0
 62
     0
 10
236.171
 20
74.6263
 30
0.0
 11
236.171
 21
75.6267
 31
0.0
  0
LINE
  8
0
 62
     0
 10
236.171
 20
75.6267
 30
0.0
 11
236.97
 21
75.6267
 31
0.0
  0
LINE
  8
0
 62
     0
 10
236.97
 20
75.6267
 30
0.0
 11
236.97
 21
78.7273
 31
0.0
  0
LINE
  8
0
 62
     0
 10
236.97
 20
78.7273
 30
0.0
 11
236.171
 21
78.7273
 31
0.0
  0
LINE
  8
0
 62
     0
 10
236.171
 20
78.7273
 30
0.0
 11
236.171
 21
84.5263
 31
0.0
  0
LINE
  8
0
 62
     0
 10
236.171
 20
84.5263
 30
0.0
 11
236.97
 21
84.5263
 31
0.0
  0
LINE
  8
0
 62
     0
 10
236.97
 20
84.5263
 30
0.0
 11
236.97
 21
87.6268
 31
0.0
  0
LINE
  8
0
 62
     0
 10
236.97
 20
87.6268
 30
0.0
 11
236.171
 21
87.6268
 31
0.0
  0
LINE
  8
0
 62
     0
 10
236.171
 20
87.6268
 30
0.0
 11
236.171
 21
88.6273
 31
0.0
  0
LINE
  8
0
 62
     0
 10
236.171
 20
88.6273
 30
0.0
 11
222.17
 21
88.6273
 31
0.0
  0
LINE
  8
0
 62
     0
 10
203.12
 20
88.6273
 30
0.0
 11
203.12
 21
87.6268
 31
0.0
  0
LINE
  8
0
 62
     0
 10
203.12
 20
87.6268
 30
0.0
 11
202.321
 21
87.6268
 31
0.0
  0
LINE
  8
0
 62
     0
 10
202.321
 20
87.6268
 30
0.0
 11
202.321
 21
84.5263
 31
0.0
  0
LINE
  8
0
 62
     0
 10
202.321
 20
84.5263
 30
0.0
 11
203.12
 21
84.5263
 31
0.0
  0
LINE
  8
0
 62
     0
 10
203.12
 20
84.5263
 30
0.0
 11
203.12
 21
78.7273
 31
0.0
  0
LINE
  8
0
 62
     0
 10
203.12
 20
78.7273
 30
0.0
 11
202.321
 21
78.7273
 31
0.0
  0
LINE
  8
0
 62
     0
 10
202.321
 20
78.7273
 30
0.0
 11
202.321
 21
75.6267
 31
0.0
  0
LINE
  8
0
 62
     0
 10
202.321
 20
75.6267
 30
0.0
 11
203.12
 21
75.6267
 31
0.0
  0
LINE
  8
0
 62
     0
 10
203.12
 20
75.6267
 30
0.0
 11
203.12
 21
74.6263
 31
0.0
  0
LINE
  8
0
 62
     0
 10
203.12
 20
74.6263
 30
0.0
 11
217.121
 21
74.6263
 31
0.0
  0
LINE
  8
0
 62
     0
 10
217.121
 20
74.6263
 30
0.0
 11
217.121
 21
75.6267
 31
0.0
  0
LINE
  8
0
 62
     0
 10
217.121
 20
75.6267
 30
0.0
 11
217.92
 21
75.6267
 31
0.0
  0
LINE
  8
0
 62
     0
 10
217.92
 20
75.6267
 30
0.0
 11
217.92
 21
78.7273
 31
0.0
  0
LINE
  8
0
 62
     0
 10
217.92
 20
78.7273
 30
0.0
 11
217.121
 21
78.7273
 31
0.0
  0
LINE
  8
0
 62
     0
 10
217.121
 20
78.7273
 30
0.0
 11
217.121
 21
84.5263
 31
0.0
  0
LINE
  8
0
 62
     0
 10
217.121
 20
84.5263
 30
0.0
 11
217.92
 21
84.5263
 31
0.0
  0
LINE
  8
0
 62
     0
 10
217.92
 20
84.5263
 30
0.0
 11
217.92
 21
87.6268
 31
0.0
  0
LINE
  8
0
 62
     0
 10
217.92
 20
87.6268
 30
0.0
 11
217.121
 21
87.6268
 31
0.0
  0
LINE
  8
0
 62
     0
 10
217.121
 20
87.6268
 30
0.0
 11
217.121
 21
88.6273
 31
0.0
  0
LINE
  8
0
 62
     0
 10
217.121
 20
88.6273
 30
0.0
 11
203.12
 21
88.6273
 31
0.0
  0
LINE
  8
0
 62
     0
 10
184.07
 20
88.6273
 30
0.0
 11
184.07
 21
87.6268
 31
0.0
  0
LINE
  8
0
 62
     0
 10
184.07
 20
87.6268
 30
0.0
 11
183.271
 21
87.6268
 31
0.0
  0
LINE
  8
0
 62
     0
 10
183.271
 20
87.6268
 30
0.0
 11
183.271
 21
84.5263
 31
0.0
  0
LINE
  8
0
 62
     0
 10
183.271
 20
84.5263
 30
0.0
 11
184.07
 21
84.5263
 31
0.0
  0
LINE
  8
0
 62
     0
 10
184.07
 20
84.5263
 30
0.0
 11
184.07
 21
78.7273
 31
0.0
  0
LINE
  8
0
 62
     0
 10
184.07
 20
78.7273
 30
0.0
 11
183.271
 21
78.7273
 31
0.0
  0
LINE
  8
0
 62
     0
 10
183.271
 20
78.7273
 30
0.0
 11
183.271
 21
75.6267
 31
0.0
  0
LINE
  8
0
 62
     0
 10
183.271
 20
75.6267
 30
0.0
 11
184.07
 21
75.6267
 31
0.0
  0
LINE
  8
0
 62
     0
 10
184.07
 20
75.6267
 30
0.0
 11
184.07
 21
74.6263
 31
0.0
  0
LINE
  8
0
 62
     0
 10
184.07
 20
74.6263
 30
0.0
 11
198.071
 21
74.6263
 31
0.0
  0
LINE
  8
0
 62
     0
 10
198.071
 20
74.6263
 30
0.0
 11
198.071
 21
75.6267
 31
0.0
  0
LINE
  8
0
 62
     0
 10
198.071
 20
75.6267
 30
0.0
 11
198.87
 21
75.6267
 31
0.0
  0
LINE
  8
0
 62
     0
 10
198.87
 20
75.6267
 30
0.0
 11
198.87
 21
78.7273
 31
0.0
  0
LINE
  8
0
 62
     0
 10
198.87
 20
78.7273
 30
0.0
 11
198.071
 21
78.7273
 31
0.0
  0
LINE
  8
0
 62
     0
 10
198.071
 20
78.7273
 30
0.0
 11
198.071
 21
84.5263
 31
0.0
  0
LINE
  8
0
 62
     0
 10
198.071
 20
84.5263
 30
0.0
 11
198.87
 21
84.5263
 31
0.0
  0
LINE
  8
0
 62
     0
 10
198.87
 20
84.5263
 30
0.0
 11
198.87
 21
87.6268
 31
0.0
  0
LINE
  8
0
 62
     0
 10
198.87
 20
87.6268
 30
0.0
 11
198.071
 21
87.6268
 31
0.0
  0
LINE
  8
0
 62
     0
 10
198.071
 20
87.6268
 30
0.0
 11
198.071
 21
88.6273
 31
0.0
  0
LINE
  8
0
 62
     0
 10
198.071
 20
88.6273
 30
0.0
 11
184.07
 21
88.6273
 31
0.0
  0
LINE
  8
0
 62
     0
 10
165.02
 20
88.6273
 30
0.0
 11
165.02
 21
87.6268
 31
0.0
  0
LINE
  8
0
 62
     0
 10
165.02
 20
87.6268
 30
0.0
 11
164.221
 21
87.6268
 31
0.0
  0
LINE
  8
0
 62
     0
 10
164.221
 20
87.6268
 30
0.0
 11
164.221
 21
84.5263
 31
0.0
  0
LINE
  8
0
 62
     0
 10
164.221
 20
84.5263
 30
0.0
 11
165.02
 21
84.5263
 31
0.0
  0
LINE
  8
0
 62
     0
 10
165.02
 20
84.5263
 30
0.0
 11
165.02
 21
78.7273
 31
0.0
  0
LINE
  8
0
 62
     0
 10
165.02
 20
78.7273
 30
0.0
 11
164.221
 21
78.7273
 31
0.0
  0
LINE
  8
0
 62
     0
 10
164.221
 20
78.7273
 30
0.0
 11
164.221
 21
75.6267
 31
0.0
  0
LINE
  8
0
 62
     0
 10
164.221
 20
75.6267
 30
0.0
 11
165.02
 21
75.6267
 31
0.0
  0
LINE
  8
0
 62
     0
 10
165.02
 20
75.6267
 30
0.0
 11
165.02
 21
74.6263
 31
0.0
  0
LINE
  8
0
 62
     0
 10
165.02
 20
74.6263
 30
0.0
 11
179.021
 21
74.6263
 31
0.0
  0
LINE
  8
0
 62
     0
 10
179.021
 20
74.6263
 30
0.0
 11
179.021
 21
75.6267
 31
0.0
  0
LINE
  8
0
 62
     0
 10
179.021
 20
75.6267
 30
0.0
 11
179.82
 21
75.6267
 31
0.0
  0
LINE
  8
0
 62
     0
 10
179.82
 20
75.6267
 30
0.0
 11
179.82
 21
78.7273
 31
0.0
  0
LINE
  8
0
 62
     0
 10
179.82
 20
78.7273
 30
0.0
 11
179.021
 21
78.7273
 31
0.0
  0
LINE
  8
0
 62
     0
 10
179.021
 20
78.7273
 30
0.0
 11
179.021
 21
84.5263
 31
0.0
  0
LINE
  8
0
 62
     0
 10
179.021
 20
84.5263
 30
0.0
 11
179.82
 21
84.5263
 31
0.0
  0
LINE
  8
0
 62
     0
 10
179.82
 20
84.5263
 30
0.0
 11
179.82
 21
87.6268
 31
0.0
  0
LINE
  8
0
 62
     0
 10
179.82
 20
87.6268
 30
0.0
 11
179.021
 21
87.6268
 31
0.0
  0
LINE
  8
0
 62
     0
 10
179.021
 20
87.6268
 30
0.0
 11
179.021
 21
88.6273
 31
0.0
  0
LINE
  8
0
 62
     0
 10
179.021
 20
88.6273
 30
0.0
 11
165.02
 21
88.6273
 31
0.0
  0
LINE
  8
0
 62
     0
 10
145.97
 20
88.6273
 30
0.0
 11
145.97
 21
87.6268
 31
0.0
  0
LINE
  8
0
 62
     0
 10
145.97
 20
87.6268
 30
0.0
 11
145.171
 21
87.6268
 31
0.0
  0
LINE
  8
0
 62
     0
 10
145.171
 20
87.6268
 30
0.0
 11
145.171
 21
84.5263
 31
0.0
  0
LINE
  8
0
 62
     0
 10
145.171
 20
84.5263
 30
0.0
 11
145.97
 21
84.5263
 31
0.0
  0
LINE
  8
0
 62
     0
 10
145.97
 20
84.5263
 30
0.0
 11
145.97
 21
78.7273
 31
0.0
  0
LINE
  8
0
 62
     0
 10
145.97
 20
78.7273
 30
0.0
 11
145.171
 21
78.7273
 31
0.0
  0
LINE
  8
0
 62
     0
 10
145.171
 20
78.7273
 30
0.0
 11
145.171
 21
75.6267
 31
0.0
  0
LINE
  8
0
 62
     0
 10
145.171
 20
75.6267
 30
0.0
 11
145.97
 21
75.6267
 31
0.0
  0
LINE
  8
0
 62
     0
 10
145.97
 20
75.6267
 30
0.0
 11
145.97
 21
74.6263
 31
0.0
  0
LINE
  8
0
 62
     0
 10
145.97
 20
74.6263
 30
0.0
 11
159.971
 21
74.6263
 31
0.0
  0
LINE
  8
0
 62
     0
 10
159.971
 20
74.6263
 30
0.0
 11
159.971
 21
75.6267
 31
0.0
  0
LINE
  8
0
 62
     0
 10
159.971
 20
75.6267
 30
0.0
 11
160.77
 21
75.6267
 31
0.0
  0
LINE
  8
0
 62
     0
 10
160.77
 20
75.6267
 30
0.0
 11
160.77
 21
78.7273
 31
0.0
  0
LINE
  8
0
 62
     0
 10
160.77
 20
78.7273
 30
0.0
 11
159.971
 21
78.7273
 31
0.0
  0
LINE
  8
0
 62
     0
 10
159.971
 20
78.7273
 30
0.0
 11
159.971
 21
84.5263
 31
0.0
  0
LINE
  8
0
 62
     0
 10
159.971
 20
84.5263
 30
0.0
 11
160.77
 21
84.5263
 31
0.0
  0
LINE
  8
0
 62
     0
 10
160.77
 20
84.5263
 30
0.0
 11
160.77
 21
87.6268
 31
0.0
  0
LINE
  8
0
 62
     0
 10
160.77
 20
87.6268
 30
0.0
 11
159.971
 21
87.6268
 31
0.0
  0
LINE
  8
0
 62
     0
 10
159.971
 20
87.6268
 30
0.0
 11
159.971
 21
88.6273
 31
0.0
  0
LINE
  8
0
 62
     0
 10
159.971
 20
88.6273
 30
0.0
 11
145.97
 21
88.6273
 31
0.0
  0
LINE
  8
0
 62
     0
 10
126.92
 20
88.6273
 30
0.0
 11
126.92
 21
87.6268
 31
0.0
  0
LINE
  8
0
 62
     0
 10
126.92
 20
87.6268
 30
0.0
 11
126.119
 21
87.6268
 31
0.0
  0
LINE
  8
0
 62
     0
 10
126.119
 20
87.6268
 30
0.0
 11
126.119
 21
84.5263
 31
0.0
  0
LINE
  8
0
 62
     0
 10
126.119
 20
84.5263
 30
0.0
 11
126.92
 21
84.5263
 31
0.0
  0
LINE
  8
0
 62
     0
 10
126.92
 20
84.5263
 30
0.0
 11
126.92
 21
78.7273
 31
0.0
  0
LINE
  8
0
 62
     0
 10
126.92
 20
78.7273
 30
0.0
 11
126.119
 21
78.7273
 31
0.0
  0
LINE
  8
0
 62
     0
 10
126.119
 20
78.7273
 30
0.0
 11
126.119
 21
75.6267
 31
0.0
  0
LINE
  8
0
 62
     0
 10
126.119
 20
75.6267
 30
0.0
 11
126.92
 21
75.6267
 31
0.0
  0
LINE
  8
0
 62
     0
 10
126.92
 20
75.6267
 30
0.0
 11
126.92
 21
74.6263
 31
0.0
  0
LINE
  8
0
 62
     0
 10
126.92
 20
74.6263
 30
0.0
 11
140.921
 21
74.6263
 31
0.0
  0
LINE
  8
0
 62
     0
 10
140.921
 20
74.6263
 30
0.0
 11
140.921
 21
75.6267
 31
0.0
  0
LINE
  8
0
 62
     0
 10
140.921
 20
75.6267
 30
0.0
 11
141.72
 21
75.6267
 31
0.0
  0
LINE
  8
0
 62
     0
 10
141.72
 20
75.6267
 30
0.0
 11
141.72
 21
78.7273
 31
0.0
  0
LINE
  8
0
 62
     0
 10
141.72
 20
78.7273
 30
0.0
 11
140.921
 21
78.7273
 31
0.0
  0
LINE
  8
0
 62
     0
 10
140.921
 20
78.7273
 30
0.0
 11
140.921
 21
84.5263
 31
0.0
  0
LINE
  8
0
 62
     0
 10
140.921
 20
84.5263
 30
0.0
 11
141.72
 21
84.5263
 31
0.0
  0
LINE
  8
0
 62
     0
 10
141.72
 20
84.5263
 30
0.0
 11
141.72
 21
87.6268
 31
0.0
  0
LINE
  8
0
 62
     0
 10
141.72
 20
87.6268
 30
0.0
 11
140.921
 21
87.6268
 31
0.0
  0
LINE
  8
0
 62
     0
 10
140.921
 20
87.6268
 30
0.0
 11
140.921
 21
88.6273
 31
0.0
  0
LINE
  8
0
 62
     0
 10
140.921
 20
88.6273
 30
0.0
 11
126.92
 21
88.6273
 31
0.0
  0
LINE
  8
0
 62
     0
 10
107.87
 20
88.6273
 30
0.0
 11
107.87
 21
87.6268
 31
0.0
  0
LINE
  8
0
 62
     0
 10
107.87
 20
87.6268
 30
0.0
 11
107.071
 21
87.6268
 31
0.0
  0
LINE
  8
0
 62
     0
 10
107.071
 20
87.6268
 30
0.0
 11
107.071
 21
84.5263
 31
0.0
  0
LINE
  8
0
 62
     0
 10
107.071
 20
84.5263
 30
0.0
 11
107.87
 21
84.5263
 31
0.0
  0
LINE
  8
0
 62
     0
 10
107.87
 20
84.5263
 30
0.0
 11
107.87
 21
78.7273
 31
0.0
  0
LINE
  8
0
 62
     0
 10
107.87
 20
78.7273
 30
0.0
 11
107.071
 21
78.7273
 31
0.0
  0
LINE
  8
0
 62
     0
 10
107.071
 20
78.7273
 30
0.0
 11
107.071
 21
75.6267
 31
0.0
  0
LINE
  8
0
 62
     0
 10
107.071
 20
75.6267
 30
0.0
 11
107.87
 21
75.6267
 31
0.0
  0
LINE
  8
0
 62
     0
 10
107.87
 20
75.6267
 30
0.0
 11
107.87
 21
74.6263
 31
0.0
  0
LINE
  8
0
 62
     0
 10
107.87
 20
74.6263
 30
0.0
 11
121.87
 21
74.6263
 31
0.0
  0
LINE
  8
0
 62
     0
 10
121.87
 20
74.6263
 30
0.0
 11
121.87
 21
75.6267
 31
0.0
  0
LINE
  8
0
 62
     0
 10
121.87
 20
75.6267
 30
0.0
 11
122.669
 21
75.6267
 31
0.0
  0
LINE
  8
0
 62
     0
 10
122.669
 20
75.6267
 30
0.0
 11
122.669
 21
78.7273
 31
0.0
  0
LINE
  8
0
 62
     0
 10
122.669
 20
78.7273
 30
0.0
 11
121.87
 21
78.7273
 31
0.0
  0
LINE
  8
0
 62
     0
 10
121.87
 20
78.7273
 30
0.0
 11
121.87
 21
84.5263
 31
0.0
  0
LINE
  8
0
 62
     0
 10
121.87
 20
84.5263
 30
0.0
 11
122.669
 21
84.5263
 31
0.0
  0
LINE
  8
0
 62
     0
 10
122.669
 20
84.5263
 30
0.0
 11
122.669
 21
87.6268
 31
0.0
  0
LINE
  8
0
 62
     0
 10
122.669
 20
87.6268
 30
0.0
 11
121.87
 21
87.6268
 31
0.0
  0
LINE
  8
0
 62
     0
 10
121.87
 20
87.6268
 30
0.0
 11
121.87
 21
88.6273
 31
0.0
  0
LINE
  8
0
 62
     0
 10
121.87
 20
88.6273
 30
0.0
 11
107.87
 21
88.6273
 31
0.0
  0
LINE
  8
0
 62
     0
 10
88.8199
 20
88.6273
 30
0.0
 11
88.8199
 21
87.6268
 31
0.0
  0
LINE
  8
0
 62
     0
 10
88.8199
 20
87.6268
 30
0.0
 11
88.0209
 21
87.6268
 31
0.0
  0
LINE
  8
0
 62
     0
 10
88.0209
 20
87.6268
 30
0.0
 11
88.0209
 21
84.5263
 31
0.0
  0
LINE
  8
0
 62
     0
 10
88.0209
 20
84.5263
 30
0.0
 11
88.8199
 21
84.5263
 31
0.0
  0
LINE
  8
0
 62
     0
 10
88.8199
 20
84.5263
 30
0.0
 11
88.8199
 21
78.7273
 31
0.0
  0
LINE
  8
0
 62
     0
 10
88.8199
 20
78.7273
 30
0.0
 11
88.0209
 21
78.7273
 31
0.0
  0
LINE
  8
0
 62
     0
 10
88.0209
 20
78.7273
 30
0.0
 11
88.0209
 21
75.6267
 31
0.0
  0
LINE
  8
0
 62
     0
 10
88.0209
 20
75.6267
 30
0.0
 11
88.8199
 21
75.6267
 31
0.0
  0
LINE
  8
0
 62
     0
 10
88.8199
 20
75.6267
 30
0.0
 11
88.8199
 21
74.6263
 31
0.0
  0
LINE
  8
0
 62
     0
 10
88.8199
 20
74.6263
 30
0.0
 11
102.821
 21
74.6263
 31
0.0
  0
LINE
  8
0
 62
     0
 10
102.821
 20
74.6263
 30
0.0
 11
102.821
 21
75.6267
 31
0.0
  0
LINE
  8
0
 62
     0
 10
102.821
 20
75.6267
 30
0.0
 11
103.619
 21
75.6267
 31
0.0
  0
LINE
  8
0
 62
     0
 10
103.619
 20
75.6267
 30
0.0
 11
103.619
 21
78.7273
 31
0.0
  0
LINE
  8
0
 62
     0
 10
103.619
 20
78.7273
 30
0.0
 11
102.821
 21
78.7273
 31
0.0
  0
LINE
  8
0
 62
     0
 10
102.821
 20
78.7273
 30
0.0
 11
102.821
 21
84.5263
 31
0.0
  0
LINE
  8
0
 62
     0
 10
102.821
 20
84.5263
 30
0.0
 11
103.619
 21
84.5263
 31
0.0
  0
LINE
  8
0
 62
     0
 10
103.619
 20
84.5263
 30
0.0
 11
103.619
 21
87.6268
 31
0.0
  0
LINE
  8
0
 62
     0
 10
103.619
 20
87.6268
 30
0.0
 11
102.821
 21
87.6268
 31
0.0
  0
LINE
  8
0
 62
     0
 10
102.821
 20
87.6268
 30
0.0
 11
102.821
 21
88.6273
 31
0.0
  0
LINE
  8
0
 62
     0
 10
102.821
 20
88.6273
 30
0.0
 11
88.8199
 21
88.6273
 31
0.0
  0
LINE
  8
0
 62
     0
 10
69.7699
 20
88.6273
 30
0.0
 11
69.7699
 21
87.6268
 31
0.0
  0
LINE
  8
0
 62
     0
 10
69.7699
 20
87.6268
 30
0.0
 11
68.9709
 21
87.6268
 31
0.0
  0
LINE
  8
0
 62
     0
 10
68.9709
 20
87.6268
 30
0.0
 11
68.9709
 21
84.5263
 31
0.0
  0
LINE
  8
0
 62
     0
 10
68.9709
 20
84.5263
 30
0.0
 11
69.7699
 21
84.5263
 31
0.0
  0
LINE
  8
0
 62
     0
 10
69.7699
 20
84.5263
 30
0.0
 11
69.7699
 21
78.7273
 31
0.0
  0
LINE
  8
0
 62
     0
 10
69.7699
 20
78.7273
 30
0.0
 11
68.9709
 21
78.7273
 31
0.0
  0
LINE
  8
0
 62
     0
 10
68.9709
 20
78.7273
 30
0.0
 11
68.9709
 21
75.6267
 31
0.0
  0
LINE
  8
0
 62
     0
 10
68.9709
 20
75.6267
 30
0.0
 11
69.7699
 21
75.6267
 31
0.0
  0
LINE
  8
0
 62
     0
 10
69.7699
 20
75.6267
 30
0.0
 11
69.7699
 21
74.6263
 31
0.0
  0
LINE
  8
0
 62
     0
 10
69.7699
 20
74.6263
 30
0.0
 11
83.771
 21
74.6263
 31
0.0
  0
LINE
  8
0
 62
     0
 10
83.771
 20
74.6263
 30
0.0
 11
83.771
 21
75.6267
 31
0.0
  0
LINE
  8
0
 62
     0
 10
83.771
 20
75.6267
 30
0.0
 11
84.5704
 21
75.6267
 31
0.0
  0
LINE
  8
0
 62
     0
 10
84.5704
 20
75.6267
 30
0.0
 11
84.5704
 21
78.7273
 31
0.0
  0
LINE
  8
0
 62
     0
 10
84.5704
 20
78.7273
 30
0.0
 11
83.771
 21
78.7273
 31
0.0
  0
LINE
  8
0
 62
     0
 10
83.771
 20
78.7273
 30
0.0
 11
83.771
 21
84.5263
 31
0.0
  0
LINE
  8
0
 62
     0
 10
83.771
 20
84.5263
 30
0.0
 11
84.5704
 21
84.5263
 31
0.0
  0
LINE
  8
0
 62
     0
 10
84.5704
 20
84.5263
 30
0.0
 11
84.5704
 21
87.6268
 31
0.0
  0
LINE
  8
0
 62
     0
 10
84.5704
 20
87.6268
 30
0.0
 11
83.771
 21
87.6268
 31
0.0
  0
LINE
  8
0
 62
     0
 10
83.771
 20
87.6268
 30
0.0
 11
83.771
 21
88.6273
 31
0.0
  0
LINE
  8
0
 62
     0
 10
83.771
 20
88.6273
 30
0.0
 11
69.7699
 21
88.6273
 31
0.0
  0
LINE
  8
0
 62
     0
 10
50.7199
 20
88.6273
 30
0.0
 11
50.7199
 21
87.6268
 31
0.0
  0
LINE
  8
0
 62
     0
 10
50.7199
 20
87.6268
 30
0.0
 11
49.9209
 21
87.6268
 31
0.0
  0
LINE
  8
0
 62
     0
 10
49.9209
 20
87.6268
 30
0.0
 11
49.9209
 21
84.5263
 31
0.0
  0
LINE
  8
0
 62
     0
 10
49.9209
 20
84.5263
 30
0.0
 11
50.7199
 21
84.5263
 31
0.0
  0
LINE
  8
0
 62
     0
 10
50.7199
 20
84.5263
 30
0.0
 11
50.7199
 21
78.7273
 31
0.0
  0
LINE
  8
0
 62
     0
 10
50.7199
 20
78.7273
 30
0.0
 11
49.9209
 21
78.7273
 31
0.0
  0
LINE
  8
0
 62
     0
 10
49.9209
 20
78.7273
 30
0.0
 11
49.9209
 21
75.6267
 31
0.0
  0
LINE
  8
0
 62
     0
 10
49.9209
 20
75.6267
 30
0.0
 11
50.7199
 21
75.6267
 31
0.0
  0
LINE
  8
0
 62
     0
 10
50.7199
 20
75.6267
 30
0.0
 11
50.7199
 21
74.6263
 31
0.0
  0
LINE
  8
0
 62
     0
 10
50.7199
 20
74.6263
 30
0.0
 11
64.721
 21
74.6263
 31
0.0
  0
LINE
  8
0
 62
     0
 10
64.721
 20
74.6263
 30
0.0
 11
64.721
 21
75.6267
 31
0.0
  0
LINE
  8
0
 62
     0
 10
64.721
 20
75.6267
 30
0.0
 11
65.5204
 21
75.6267
 31
0.0
  0
LINE
  8
0
 62
     0
 10
65.5204
 20
75.6267
 30
0.0
 11
65.5204
 21
78.7273
 31
0.0
  0
LINE
  8
0
 62
     0
 10
65.5204
 20
78.7273
 30
0.0
 11
64.721
 21
78.7273
 31
0.0
  0
LINE
  8
0
 62
     0
 10
64.721
 20
78.7273
 30
0.0
 11
64.721
 21
84.5263
 31
0.0
  0
LINE
  8
0
 62
     0
 10
64.721
 20
84.5263
 30
0.0
 11
65.5204
 21
84.5263
 31
0.0
  0
LINE
  8
0
 62
     0
 10
65.5204
 20
84.5263
 30
0.0
 11
65.5204
 21
87.6268
 31
0.0
  0
LINE
  8
0
 62
     0
 10
65.5204
 20
87.6268
 30
0.0
 11
64.721
 21
87.6268
 31
0.0
  0
LINE
  8
0
 62
     0
 10
64.721
 20
87.6268
 30
0.0
 11
64.721
 21
88.6273
 31
0.0
  0
LINE
  8
0
 62
     0
 10
64.721
 20
88.6273
 30
0.0
 11
50.7199
 21
88.6273
 31
0.0
  0
LINE
  8
0
 62
     0
 10
31.6701
 20
88.6273
 30
0.0
 11
31.6701
 21
87.6268
 31
0.0
  0
LINE
  8
0
 62
     0
 10
31.6701
 20
87.6268
 30
0.0
 11
30.8708
 21
87.6268
 31
0.0
  0
LINE
  8
0
 62
     0
 10
30.8708
 20
87.6268
 30
0.0
 11
30.8708
 21
84.5263
 31
0.0
  0
LINE
  8
0
 62
     0
 10
30.8708
 20
84.5263
 30
0.0
 11
31.6701
 21
84.5263
 31
0.0
  0
LINE
  8
0
 62
     0
 10
31.6701
 20
84.5263
 30
0.0
 11
31.6701
 21
78.7273
 31
0.0
  0
LINE
  8
0
 62
     0
 10
31.6701
 20
78.7273
 30
0.0
 11
30.8708
 21
78.7273
 31
0.0
  0
LINE
  8
0
 62
     0
 10
30.8708
 20
78.7273
 30
0.0
 11
30.8708
 21
75.6267
 31
0.0
  0
LINE
  8
0
 62
     0
 10
30.8708
 20
75.6267
 30
0.0
 11
31.6701
 21
75.6267
 31
0.0
  0
LINE
  8
0
 62
     0
 10
31.6701
 20
75.6267
 30
0.0
 11
31.6701
 21
74.6263
 31
0.0
  0
LINE
  8
0
 62
     0
 10
31.6701
 20
74.6263
 30
0.0
 11
45.671
 21
74.6263
 31
0.0
  0
LINE
  8
0
 62
     0
 10
45.671
 20
74.6263
 30
0.0
 11
45.671
 21
75.6267
 31
0.0
  0
LINE
  8
0
 62
     0
 10
45.671
 20
75.6267
 30
0.0
 11
46.4704
 21
75.6267
 31
0.0
  0
LINE
  8
0
 62
     0
 10
46.4704
 20
75.6267
 30
0.0
 11
46.4704
 21
78.7273
 31
0.0
  0
LINE
  8
0
 62
     0
 10
46.4704
 20
78.7273
 30
0.0
 11
45.671
 21
78.7273
 31
0.0
  0
LINE
  8
0
 62
     0
 10
45.671
 20
78.7273
 30
0.0
 11
45.671
 21
84.5263
 31
0.0
  0
LINE
  8
0
 62
     0
 10
45.671
 20
84.5263
 30
0.0
 11
46.4704
 21
84.5263
 31
0.0
  0
LINE
  8
0
 62
     0
 10
46.4704
 20
84.5263
 30
0.0
 11
46.4704
 21
87.6268
 31
0.0
  0
LINE
  8
0
 62
     0
 10
46.4704
 20
87.6268
 30
0.0
 11
45.671
 21
87.6268
 31
0.0
  0
LINE
  8
0
 62
     0
 10
45.671
 20
87.6268
 30
0.0
 11
45.671
 21
88.6273
 31
0.0
  0
LINE
  8
0
 62
     0
 10
45.671
 20
88.6273
 30
0.0
 11
31.6701
 21
88.6273
 31
0.0
  0
LINE
  8
0
 62
     0
 10
12.6201
 20
88.6273
 30
0.0
 11
12.6201
 21
87.6268
 31
0.0
  0
LINE
  8
0
 62
     0
 10
12.6201
 20
87.6268
 30
0.0
 11
11.8194
 21
87.6268
 31
0.0
  0
LINE
  8
0
 62
     0
 10
11.8194
 20
87.6268
 30
0.0
 11
11.8194
 21
84.5263
 31
0.0
  0
LINE
  8
0
 62
     0
 10
11.8194
 20
84.5263
 30
0.0
 11
12.6201
 21
84.5263
 31
0.0
  0
LINE
  8
0
 62
     0
 10
12.6201
 20
84.5263
 30
0.0
 11
12.6201
 21
78.7273
 31
0.0
  0
LINE
  8
0
 62
     0
 10
12.6201
 20
78.7273
 30
0.0
 11
11.8194
 21
78.7273
 31
0.0
  0
LINE
  8
0
 62
     0
 10
11.8194
 20
78.7273
 30
0.0
 11
11.8194
 21
75.6267
 31
0.0
  0
LINE
  8
0
 62
     0
 10
11.8194
 20
75.6267
 30
0.0
 11
12.6201
 21
75.6267
 31
0.0
  0
LINE
  8
0
 62
     0
 10
12.6201
 20
75.6267
 30
0.0
 11
12.6201
 21
74.6263
 31
0.0
  0
LINE
  8
0
 62
     0
 10
12.6201
 20
74.6263
 30
0.0
 11
26.6209
 21
74.6263
 31
0.0
  0
LINE
  8
0
 62
     0
 10
26.6209
 20
74.6263
 30
0.0
 11
26.6209
 21
75.6267
 31
0.0
  0
LINE
  8
0
 62
     0
 10
26.6209
 20
75.6267
 30
0.0
 11
27.4188
 21
75.6267
 31
0.0
  0
LINE
  8
0
 62
     0
 10
27.4188
 20
75.6267
 30
0.0
 11
27.4188
 21
78.7273
 31
0.0
  0
LINE
  8
0
 62
     0
 10
27.4188
 20
78.7273
 30
0.0
 11
26.6209
 21
78.7273
 31
0.0
  0
LINE
  8
0
 62
     0
 10
26.6209
 20
78.7273
 30
0.0
 11
26.6209
 21
84.5263
 31
0.0
  0
LINE
  8
0
 62
     0
 10
26.6209
 20
84.5263
 30
0.0
 11
27.4188
 21
84.5263
 31
0.0
  0
LINE
  8
0
 62
     0
 10
27.4188
 20
84.5263
 30
0.0
 11
27.4188
 21
87.6268
 31
0.0
  0
LINE
  8
0
 62
     0
 10
27.4188
 20
87.6268
 30
0.0
 11
26.6209
 21
87.6268
 31
0.0
  0
LINE
  8
0
 62
     0
 10
26.6209
 20
87.6268
 30
0.0
 11
26.6209
 21
88.6273
 31
0.0
  0
LINE
  8
0
 62
     0
 10
26.6209
 20
88.6273
 30
0.0
 11
12.6201
 21
88.6273
 31
0.0
  0
LINE
  8
0
 62
     0
 10
4.55443
 20
97.8172
 30
0.0
 11
4.06658
 21
97.5678
 31
0.0
  0
LINE
  8
0
 62
     0
 10
4.06658
 20
97.5678
 30
0.0
 11
3.67937
 21
97.1808
 31
0.0
  0
LINE
  8
0
 62
     0
 10
3.67937
 20
97.1808
 30
0.0
 11
3.42994
 21
96.6929
 31
0.0
  0
LINE
  8
0
 62
     0
 10
3.42994
 20
96.6929
 30
0.0
 11
3.34588
 21
96.1513
 31
0.0
  0
LINE
  8
0
 62
     0
 10
3.34588
 20
96.1513
 30
0.0
 11
3.42994
 21
95.6109
 31
0.0
  0
LINE
  8
0
 62
     0
 10
3.42994
 20
95.6109
 30
0.0
 11
3.67937
 21
95.1234
 31
0.0
  0
LINE
  8
0
 62
     0
 10
3.67937
 20
95.1234
 30
0.0
 11
4.06658
 21
94.7374
 31
0.0
  0
LINE
  8
0
 62
     0
 10
4.06658
 20
94.7374
 30
0.0
 11
4.55443
 21
94.488
 31
0.0
  0
LINE
  8
0
 62
     0
 10
4.55443
 20
94.488
 30
0.0
 11
5.09598
 21
94.4012
 31
0.0
  0
LINE
  8
0
 62
     0
 10
5.09598
 20
94.4012
 30
0.0
 11
5.63619
 21
94.488
 31
0.0
  0
LINE
  8
0
 62
     0
 10
5.63619
 20
94.488
 30
0.0
 11
6.12401
 21
94.7374
 31
0.0
  0
LINE
  8
0
 62
     0
 10
6.12401
 20
94.7374
 30
0.0
 11
6.50984
 21
95.1234
 31
0.0
  0
LINE
  8
0
 62
     0
 10
6.50984
 20
95.1234
 30
0.0
 11
6.75929
 21
95.6109
 31
0.0
  0
LINE
  8
0
 62
     0
 10
6.75929
 20
95.6109
 30
0.0
 11
6.84611
 21
96.1513
 31
0.0
  0
LINE
  8
0
 62
     0
 10
6.84611
 20
96.1513
 30
0.0
 11
6.75929
 21
96.6929
 31
0.0
  0
LINE
  8
0
 62
     0
 10
6.75929
 20
96.6929
 30
0.0
 11
6.50984
 21
97.1808
 31
0.0
  0
LINE
  8
0
 62
     0
 10
6.50984
 20
97.1808
 30
0.0
 11
6.12401
 21
97.5678
 31
0.0
  0
LINE
  8
0
 62
     0
 10
6.12401
 20
97.5678
 30
0.0
 11
5.63619
 21
97.8172
 31
0.0
  0
LINE
  8
0
 62
     0
 10
5.63619
 20
97.8172
 30
0.0
 11
5.09598
 21
97.9015
 31
0.0
  0
LINE
  8
0
 62
     0
 10
5.09598
 20
97.9015
 30
0.0
 11
4.55443
 21
97.8172
 31
0.0
  0
LINE
  8
0
 62
     0
 10
271.73
 20
97.8172
 30
0.0
 11
271.242
 21
97.5678
 31
0.0
  0
LINE
  8
0
 62
     0
 10
271.242
 20
97.5678
 30
0.0
 11
270.856
 21
97.1808
 31
0.0
  0
LINE
  8
0
 62
     0
 10
270.856
 20
97.1808
 30
0.0
 11
270.607
 21
96.6929
 31
0.0
  0
LINE
  8
0
 62
     0
 10
270.607
 20
96.6929
 30
0.0
 11
270.521
 21
96.1513
 31
0.0
  0
LINE
  8
0
 62
     0
 10
270.521
 20
96.1513
 30
0.0
 11
270.607
 21
95.6109
 31
0.0
  0
LINE
  8
0
 62
     0
 10
270.607
 20
95.6109
 30
0.0
 11
270.856
 21
95.1234
 31
0.0
  0
LINE
  8
0
 62
     0
 10
270.856
 20
95.1234
 30
0.0
 11
271.242
 21
94.7374
 31
0.0
  0
LINE
  8
0
 62
     0
 10
271.242
 20
94.7374
 30
0.0
 11
271.73
 21
94.488
 31
0.0
  0
LINE
  8
0
 62
     0
 10
271.73
 20
94.488
 30
0.0
 11
272.271
 21
94.4012
 31
0.0
  0
LINE
  8
0
 62
     0
 10
272.271
 20
94.4012
 30
0.0
 11
272.812
 21
94.488
 31
0.0
  0
LINE
  8
0
 62
     0
 10
272.812
 20
94.488
 30
0.0
 11
273.299
 21
94.7374
 31
0.0
  0
LINE
  8
0
 62
     0
 10
273.299
 20
94.7374
 30
0.0
 11
273.687
 21
95.1234
 31
0.0
  0
LINE
  8
0
 62
     0
 10
273.687
 20
95.1234
 30
0.0
 11
273.936
 21
95.6109
 31
0.0
  0
LINE
  8
0
 62
     0
 10
273.936
 20
95.6109
 30
0.0
 11
274.022
 21
96.1513
 31
0.0
  0
LINE
  8
0
 62
     0
 10
274.022
 20
96.1513
 30
0.0
 11
273.936
 21
96.6929
 31
0.0
  0
LINE
  8
0
 62
     0
 10
273.936
 20
96.6929
 30
0.0
 11
273.687
 21
97.1808
 31
0.0
  0
LINE
  8
0
 62
     0
 10
273.687
 20
97.1808
 30
0.0
 11
273.299
 21
97.5678
 31
0.0
  0
LINE
  8
0
 62
     0
 10
273.299
 20
97.5678
 30
0.0
 11
272.812
 21
97.8172
 31
0.0
  0
LINE
  8
0
 62
     0
 10
272.812
 20
97.8172
 30
0.0
 11
272.271
 21
97.9015
 31
0.0
  0
LINE
  8
0
 62
     0
 10
272.271
 20
97.9015
 30
0.0
 11
271.73
 21
97.8172
 31
0.0
  0
LINE
  8
0
 62
     0
 10
182.672
 20
97.8172
 30
0.0
 11
182.184
 21
97.5678
 31
0.0
  0
LINE
  8
0
 62
     0
 10
182.184
 20
97.5678
 30
0.0
 11
181.796
 21
97.1808
 31
0.0
  0
LINE
  8
0
 62
     0
 10
181.796
 20
97.1808
 30
0.0
 11
181.547
 21
96.6929
 31
0.0
  0
LINE
  8
0
 62
     0
 10
181.547
 20
96.6929
 30
0.0
 11
181.463
 21
96.1513
 31
0.0
  0
LINE
  8
0
 62
     0
 10
181.463
 20
96.1513
 30
0.0
 11
181.547
 21
95.6109
 31
0.0
  0
LINE
  8
0
 62
     0
 10
181.547
 20
95.6109
 30
0.0
 11
181.796
 21
95.1234
 31
0.0
  0
LINE
  8
0
 62
     0
 10
181.796
 20
95.1234
 30
0.0
 11
182.184
 21
94.7374
 31
0.0
  0
LINE
  8
0
 62
     0
 10
182.184
 20
94.7374
 30
0.0
 11
182.672
 21
94.488
 31
0.0
  0
LINE
  8
0
 62
     0
 10
182.672
 20
94.488
 30
0.0
 11
183.213
 21
94.4012
 31
0.0
  0
LINE
  8
0
 62
     0
 10
183.213
 20
94.4012
 30
0.0
 11
183.753
 21
94.488
 31
0.0
  0
LINE
  8
0
 62
     0
 10
183.753
 20
94.488
 30
0.0
 11
184.241
 21
94.7374
 31
0.0
  0
LINE
  8
0
 62
     0
 10
184.241
 20
94.7374
 30
0.0
 11
184.628
 21
95.1234
 31
0.0
  0
LINE
  8
0
 62
     0
 10
184.628
 20
95.1234
 30
0.0
 11
184.876
 21
95.6109
 31
0.0
  0
LINE
  8
0
 62
     0
 10
184.876
 20
95.6109
 30
0.0
 11
184.963
 21
96.1513
 31
0.0
  0
LINE
  8
0
 62
     0
 10
184.963
 20
96.1513
 30
0.0
 11
184.876
 21
96.6929
 31
0.0
  0
LINE
  8
0
 62
     0
 10
184.876
 20
96.6929
 30
0.0
 11
184.628
 21
97.1808
 31
0.0
  0
LINE
  8
0
 62
     0
 10
184.628
 20
97.1808
 30
0.0
 11
184.241
 21
97.5678
 31
0.0
  0
LINE
  8
0
 62
     0
 10
184.241
 20
97.5678
 30
0.0
 11
183.753
 21
97.8172
 31
0.0
  0
LINE
  8
0
 62
     0
 10
183.753
 20
97.8172
 30
0.0
 11
183.213
 21
97.9015
 31
0.0
  0
LINE
  8
0
 62
     0
 10
183.213
 20
97.9015
 30
0.0
 11
182.672
 21
97.8172
 31
0.0
  0
LINE
  8
0
 62
     0
 10
93.6128
 20
97.8172
 30
0.0
 11
93.1252
 21
97.5678
 31
0.0
  0
LINE
  8
0
 62
     0
 10
93.1252
 20
97.5678
 30
0.0
 11
92.7379
 21
97.1808
 31
0.0
  0
LINE
  8
0
 62
     0
 10
92.7379
 20
97.1808
 30
0.0
 11
92.4899
 21
96.6929
 31
0.0
  0
LINE
  8
0
 62
     0
 10
92.4899
 20
96.6929
 30
0.0
 11
92.4031
 21
96.1513
 31
0.0
  0
LINE
  8
0
 62
     0
 10
92.4031
 20
96.1513
 30
0.0
 11
92.4899
 21
95.6109
 31
0.0
  0
LINE
  8
0
 62
     0
 10
92.4899
 20
95.6109
 30
0.0
 11
92.7379
 21
95.1234
 31
0.0
  0
LINE
  8
0
 62
     0
 10
92.7379
 20
95.1234
 30
0.0
 11
93.1252
 21
94.7374
 31
0.0
  0
LINE
  8
0
 62
     0
 10
93.1252
 20
94.7374
 30
0.0
 11
93.6128
 21
94.488
 31
0.0
  0
LINE
  8
0
 62
     0
 10
93.6128
 20
94.488
 30
0.0
 11
94.1532
 21
94.4012
 31
0.0
  0
LINE
  8
0
 62
     0
 10
94.1532
 20
94.4012
 30
0.0
 11
94.6947
 21
94.488
 31
0.0
  0
LINE
  8
0
 62
     0
 10
94.6947
 20
94.488
 30
0.0
 11
95.1826
 21
94.7374
 31
0.0
  0
LINE
  8
0
 62
     0
 10
95.1826
 20
94.7374
 30
0.0
 11
95.5696
 21
95.1234
 31
0.0
  0
LINE
  8
0
 62
     0
 10
95.5696
 20
95.1234
 30
0.0
 11
95.819
 21
95.6109
 31
0.0
  0
LINE
  8
0
 62
     0
 10
95.819
 20
95.6109
 30
0.0
 11
95.9033
 21
96.1513
 31
0.0
  0
LINE
  8
0
 62
     0
 10
95.9033
 20
96.1513
 30
0.0
 11
95.819
 21
96.6929
 31
0.0
  0
LINE
  8
0
 62
     0
 10
95.819
 20
96.6929
 30
0.0
 11
95.5696
 21
97.1808
 31
0.0
  0
LINE
  8
0
 62
     0
 10
95.5696
 20
97.1808
 30
0.0
 11
95.1826
 21
97.5678
 31
0.0
  0
LINE
  8
0
 62
     0
 10
95.1826
 20
97.5678
 30
0.0
 11
94.6947
 21
97.8172
 31
0.0
  0
LINE
  8
0
 62
     0
 10
94.6947
 20
97.8172
 30
0.0
 11
94.1532
 21
97.9015
 31
0.0
  0
LINE
  8
0
 62
     0
 10
94.1532
 20
97.9015
 30
0.0
 11
93.6128
 21
97.8172
 31
0.0
  0
ENDSEC
  0
EOF
