  0
SECTION
  2
HEADER
  9
$ACADVER
  1
AC1009
  9
$EXTMIN
 10
0.0
 20
0.0
 30
0.0
  9
$EXTMAX
 10
1000.0
 20
1000.0
 30
0.0
  9
$FILLMODE
 70
 0
  9
$SPLFRAME
 70
 1
  0
ENDSEC
  0
SECTION
  2
TABLES
  0
TABLE
  2
LAYER
 70
1
  0
LAYER
  2
0
 70
     0
 62
     7
  6
CONTINUOUS
  0
ENDTAB
  0
ENDSEC
  0
SECTION
  2
ENTITIES
  0
LINE
  8
0
 62
     0
 10
274.271
 20
101.152
 30
0.0
 11
274.507
 21
101.142
 31
0.0
  0
LINE
  8
0
 62
     0
 10
274.507
 20
101.142
 30
0.0
 11
274.741
 21
101.116
 31
0.0
  0
LINE
  8
0
 62
     0
 10
274.741
 20
101.116
 30
0.0
 11
274.971
 21
101.069
 31
0.0
  0
LINE
  8
0
 62
     0
 10
274.971
 20
101.069
 30
0.0
 11
275.198
 21
101.006
 31
0.0
  0
LINE
  8
0
 62
     0
 10
275.198
 20
101.006
 30
0.0
 11
275.419
 21
100.923
 31
0.0
  0
LINE
  8
0
 62
     0
 10
275.419
 20
100.923
 30
0.0
 11
275.632
 21
100.826
 31
0.0
  0
LINE
  8
0
 62
     0
 10
275.632
 20
100.826
 30
0.0
 11
275.839
 21
100.71
 31
0.0
  0
LINE
  8
0
 62
     0
 10
275.839
 20
100.71
 30
0.0
 11
276.035
 21
100.58
 31
0.0
  0
LINE
  8
0
 62
     0
 10
276.035
 20
100.58
 30
0.0
 11
276.219
 21
100.434
 31
0.0
  0
LINE
  8
0
 62
     0
 10
276.219
 20
100.434
 30
0.0
 11
276.393
 21
100.274
 31
0.0
  0
LINE
  8
0
 62
     0
 10
276.393
 20
100.274
 30
0.0
 11
276.553
 21
100.101
 31
0.0
  0
LINE
  8
0
 62
     0
 10
276.553
 20
100.101
 30
0.0
 11
276.699
 21
99.9162
 31
0.0
  0
LINE
  8
0
 62
     0
 10
276.699
 20
99.9162
 30
0.0
 11
276.829
 21
99.7204
 31
0.0
  0
LINE
  8
0
 62
     0
 10
276.829
 20
99.7204
 30
0.0
 11
276.944
 21
99.5137
 31
0.0
  0
LINE
  8
0
 62
     0
 10
276.944
 20
99.5137
 30
0.0
 11
277.042
 21
99.2999
 31
0.0
  0
LINE
  8
0
 62
     0
 10
277.042
 20
99.2999
 30
0.0
 11
277.125
 21
99.0794
 31
0.0
  0
LINE
  8
0
 62
     0
 10
277.125
 20
99.0794
 30
0.0
 11
277.188
 21
98.8522
 31
0.0
  0
LINE
  8
0
 62
     0
 10
277.188
 20
98.8522
 30
0.0
 11
277.235
 21
98.6222
 31
0.0
  0
LINE
  8
0
 62
     0
 10
277.235
 20
98.6222
 30
0.0
 11
277.261
 21
98.388
 31
0.0
  0
LINE
  8
0
 62
     0
 10
277.261
 20
98.388
 30
0.0
 11
277.271
 21
98.1523
 31
0.0
  0
LINE
  8
0
 62
     0
 10
277.271
 20
98.1523
 30
0.0
 11
277.271
 21
3.18878
 31
0.0
  0
LINE
  8
0
 62
     0
 10
277.271
 20
3.18878
 30
0.0
 11
277.261
 21
2.95313
 31
0.0
  0
LINE
  8
0
 62
     0
 10
277.261
 20
2.95313
 30
0.0
 11
277.235
 21
2.72025
 31
0.0
  0
LINE
  8
0
 62
     0
 10
277.235
 20
2.72025
 30
0.0
 11
277.188
 21
2.48874
 31
0.0
  0
LINE
  8
0
 62
     0
 10
277.188
 20
2.48874
 30
0.0
 11
277.125
 21
2.26136
 31
0.0
  0
LINE
  8
0
 62
     0
 10
277.125
 20
2.26136
 30
0.0
 11
277.042
 21
2.04088
 31
0.0
  0
LINE
  8
0
 62
     0
 10
277.042
 20
2.04088
 30
0.0
 11
276.944
 21
1.82728
 31
0.0
  0
LINE
  8
0
 62
     0
 10
276.944
 20
1.82728
 30
0.0
 11
276.829
 21
1.62195
 31
0.0
  0
LINE
  8
0
 62
     0
 10
276.829
 20
1.62195
 30
0.0
 11
276.699
 21
1.42627
 31
0.0
  0
LINE
  8
0
 62
     0
 10
276.699
 20
1.42627
 30
0.0
 11
276.553
 21
1.24024
 31
0.0
  0
LINE
  8
0
 62
     0
 10
276.553
 20
1.24024
 30
0.0
 11
276.393
 21
1.06798
 31
0.0
  0
LINE
  8
0
 62
     0
 10
276.393
 20
1.06798
 30
0.0
 11
276.219
 21
0.908128
 31
0.0
  0
LINE
  8
0
 62
     0
 10
276.219
 20
0.908128
 30
0.0
 11
276.035
 21
0.762056
 31
0.0
  0
LINE
  8
0
 62
     0
 10
276.035
 20
0.762056
 30
0.0
 11
275.839
 21
0.631141
 31
0.0
  0
LINE
  8
0
 62
     0
 10
275.839
 20
0.631141
 30
0.0
 11
275.632
 21
0.515387
 31
0.0
  0
LINE
  8
0
 62
     0
 10
275.632
 20
0.515387
 30
0.0
 11
275.419
 21
0.416168
 31
0.0
  0
LINE
  8
0
 62
     0
 10
275.419
 20
0.416168
 30
0.0
 11
275.198
 21
0.336241
 31
0.0
  0
LINE
  8
0
 62
     0
 10
275.198
 20
0.336241
 30
0.0
 11
274.971
 21
0.271473
 31
0.0
  0
LINE
  8
0
 62
     0
 10
274.971
 20
0.271473
 30
0.0
 11
274.741
 21
0.225998
 31
0.0
  0
LINE
  8
0
 62
     0
 10
274.741
 20
0.225998
 30
0.0
 11
274.507
 21
0.19706
 31
0.0
  0
LINE
  8
0
 62
     0
 10
274.507
 20
0.19706
 30
0.0
 11
274.271
 21
0.188791
 31
0.0
  0
LINE
  8
0
 62
     0
 10
274.271
 20
0.188791
 30
0.0
 11
3.09507
 21
0.188791
 31
0.0
  0
LINE
  8
0
 62
     0
 10
3.09507
 20
0.188791
 30
0.0
 11
2.85943
 21
0.19706
 31
0.0
  0
LINE
  8
0
 62
     0
 10
2.85943
 20
0.19706
 30
0.0
 11
2.62516
 21
0.225998
 31
0.0
  0
LINE
  8
0
 62
     0
 10
2.62516
 20
0.225998
 30
0.0
 11
2.39503
 21
0.271473
 31
0.0
  0
LINE
  8
0
 62
     0
 10
2.39503
 20
0.271473
 30
0.0
 11
2.16765
 21
0.336241
 31
0.0
  0
LINE
  8
0
 62
     0
 10
2.16765
 20
0.336241
 30
0.0
 11
1.94717
 21
0.416168
 31
0.0
  0
LINE
  8
0
 62
     0
 10
1.94717
 20
0.416168
 30
0.0
 11
1.73357
 21
0.515387
 31
0.0
  0
LINE
  8
0
 62
     0
 10
1.73357
 20
0.515387
 30
0.0
 11
1.52687
 21
0.631141
 31
0.0
  0
LINE
  8
0
 62
     0
 10
1.52687
 20
0.631141
 30
0.0
 11
1.33119
 21
0.762056
 31
0.0
  0
LINE
  8
0
 62
     0
 10
1.33119
 20
0.762056
 30
0.0
 11
1.14653
 21
0.908128
 31
0.0
  0
LINE
  8
0
 62
     0
 10
1.14653
 20
0.908128
 30
0.0
 11
0.972894
 21
1.06798
 31
0.0
  0
LINE
  8
0
 62
     0
 10
0.972894
 20
1.06798
 30
0.0
 11
0.813043
 21
1.24024
 31
0.0
  0
LINE
  8
0
 62
     0
 10
0.813043
 20
1.24024
 30
0.0
 11
0.666972
 21
1.42627
 31
0.0
  0
LINE
  8
0
 62
     0
 10
0.666972
 20
1.42627
 30
0.0
 11
0.537436
 21
1.62195
 31
0.0
  0
LINE
  8
0
 62
     0
 10
0.537436
 20
1.62195
 30
0.0
 11
0.421679
 21
1.82728
 31
0.0
  0
LINE
  8
0
 62
     0
 10
0.421679
 20
1.82728
 30
0.0
 11
0.323839
 21
2.04088
 31
0.0
  0
LINE
  8
0
 62
     0
 10
0.323839
 20
2.04088
 30
0.0
 11
0.241157
 21
2.26136
 31
0.0
  0
LINE
  8
0
 62
     0
 10
0.241157
 20
2.26136
 30
0.0
 11
0.177767
 21
2.48874
 31
0.0
  0
LINE
  8
0
 62
     0
 10
0.177767
 20
2.48874
 30
0.0
 11
0.130914
 21
2.72025
 31
0.0
  0
LINE
  8
0
 62
     0
 10
0.130914
 20
2.72025
 30
0.0
 11
0.104731
 21
2.95313
 31
0.0
  0
LINE
  8
0
 62
     0
 10
0.104731
 20
2.95313
 30
0.0
 11
0.0950846
 21
3.18878
 31
0.0
  0
LINE
  8
0
 62
     0
 10
0.0950846
 20
3.18878
 30
0.0
 11
0.0950846
 21
98.1523
 31
0.0
  0
LINE
  8
0
 62
     0
 10
0.0950846
 20
98.1523
 30
0.0
 11
0.104731
 21
98.388
 31
0.0
  0
LINE
  8
0
 62
     0
 10
0.104731
 20
98.388
 30
0.0
 11
0.130914
 21
98.6222
 31
0.0
  0
LINE
  8
0
 62
     0
 10
0.130914
 20
98.6222
 30
0.0
 11
0.177767
 21
98.8522
 31
0.0
  0
LINE
  8
0
 62
     0
 10
0.177767
 20
98.8522
 30
0.0
 11
0.241157
 21
99.0794
 31
0.0
  0
LINE
  8
0
 62
     0
 10
0.241157
 20
99.0794
 30
0.0
 11
0.323839
 21
99.2999
 31
0.0
  0
LINE
  8
0
 62
     0
 10
0.323839
 20
99.2999
 30
0.0
 11
0.421679
 21
99.5137
 31
0.0
  0
LINE
  8
0
 62
     0
 10
0.421679
 20
99.5137
 30
0.0
 11
0.537436
 21
99.7204
 31
0.0
  0
LINE
  8
0
 62
     0
 10
0.537436
 20
99.7204
 30
0.0
 11
0.666972
 21
99.9162
 31
0.0
  0
LINE
  8
0
 62
     0
 10
0.666972
 20
99.9162
 30
0.0
 11
0.813043
 21
100.101
 31
0.0
  0
LINE
  8
0
 62
     0
 10
0.813043
 20
100.101
 30
0.0
 11
0.972894
 21
100.274
 31
0.0
  0
LINE
  8
0
 62
     0
 10
0.972894
 20
100.274
 30
0.0
 11
1.14653
 21
100.434
 31
0.0
  0
LINE
  8
0
 62
     0
 10
1.14653
 20
100.434
 30
0.0
 11
1.33119
 21
100.58
 31
0.0
  0
LINE
  8
0
 62
     0
 10
1.33119
 20
100.58
 30
0.0
 11
1.52687
 21
100.71
 31
0.0
  0
LINE
  8
0
 62
     0
 10
1.52687
 20
100.71
 30
0.0
 11
1.73357
 21
100.826
 31
0.0
  0
LINE
  8
0
 62
     0
 10
1.73357
 20
100.826
 30
0.0
 11
1.94717
 21
100.923
 31
0.0
  0
LINE
  8
0
 62
     0
 10
1.94717
 20
100.923
 30
0.0
 11
2.16765
 21
101.006
 31
0.0
  0
LINE
  8
0
 62
     0
 10
2.16765
 20
101.006
 30
0.0
 11
2.39503
 21
101.069
 31
0.0
  0
LINE
  8
0
 62
     0
 10
2.39503
 20
101.069
 30
0.0
 11
2.62516
 21
101.116
 31
0.0
  0
LINE
  8
0
 62
     0
 10
2.62516
 20
101.116
 30
0.0
 11
2.85943
 21
101.142
 31
0.0
  0
LINE
  8
0
 62
     0
 10
2.85943
 20
101.142
 30
0.0
 11
3.09507
 21
101.152
 31
0.0
  0
LINE
  8
0
 62
     0
 10
3.09507
 20
101.152
 30
0.0
 11
274.271
 21
101.152
 31
0.0
  0
LINE
  8
0
 62
     0
 10
4.55443
 20
6.85299
 30
0.0
 11
4.06658
 21
6.60495
 31
0.0
  0
LINE
  8
0
 62
     0
 10
4.06658
 20
6.60495
 30
0.0
 11
3.67937
 21
6.21771
 31
0.0
  0
LINE
  8
0
 62
     0
 10
3.67937
 20
6.21771
 30
0.0
 11
3.42994
 21
5.72989
 31
0.0
  0
LINE
  8
0
 62
     0
 10
3.42994
 20
5.72989
 30
0.0
 11
3.34588
 21
5.1883
 31
0.0
  0
LINE
  8
0
 62
     0
 10
3.34588
 20
5.1883
 30
0.0
 11
3.42994
 21
4.64813
 31
0.0
  0
LINE
  8
0
 62
     0
 10
3.42994
 20
4.64813
 30
0.0
 11
3.67937
 21
4.16031
 31
0.0
  0
LINE
  8
0
 62
     0
 10
3.67937
 20
4.16031
 30
0.0
 11
4.06658
 21
3.77306
 31
0.0
  0
LINE
  8
0
 62
     0
 10
4.06658
 20
3.77306
 30
0.0
 11
4.55443
 21
3.52502
 31
0.0
  0
LINE
  8
0
 62
     0
 10
4.55443
 20
3.52502
 30
0.0
 11
5.09598
 21
3.4382
 31
0.0
  0
LINE
  8
0
 62
     0
 10
5.09598
 20
3.4382
 30
0.0
 11
5.63619
 21
3.52502
 31
0.0
  0
LINE
  8
0
 62
     0
 10
5.63619
 20
3.52502
 30
0.0
 11
6.12401
 21
3.77306
 31
0.0
  0
LINE
  8
0
 62
     0
 10
6.12401
 20
3.77306
 30
0.0
 11
6.50984
 21
4.16031
 31
0.0
  0
LINE
  8
0
 62
     0
 10
6.50984
 20
4.16031
 30
0.0
 11
6.75929
 21
4.64813
 31
0.0
  0
LINE
  8
0
 62
     0
 10
6.75929
 20
4.64813
 30
0.0
 11
6.84611
 21
5.1883
 31
0.0
  0
LINE
  8
0
 62
     0
 10
6.84611
 20
5.1883
 30
0.0
 11
6.75929
 21
5.72989
 31
0.0
  0
LINE
  8
0
 62
     0
 10
6.75929
 20
5.72989
 30
0.0
 11
6.50984
 21
6.21771
 31
0.0
  0
LINE
  8
0
 62
     0
 10
6.50984
 20
6.21771
 30
0.0
 11
6.12401
 21
6.60495
 31
0.0
  0
LINE
  8
0
 62
     0
 10
6.12401
 20
6.60495
 30
0.0
 11
5.63619
 21
6.85299
 31
0.0
  0
LINE
  8
0
 62
     0
 10
5.63619
 20
6.85299
 30
0.0
 11
5.09598
 21
6.93843
 31
0.0
  0
LINE
  8
0
 62
     0
 10
5.09598
 20
6.93843
 30
0.0
 11
4.55443
 21
6.85299
 31
0.0
  0
LINE
  8
0
 62
     0
 10
93.6128
 20
6.85299
 30
0.0
 11
93.1252
 21
6.60495
 31
0.0
  0
LINE
  8
0
 62
     0
 10
93.1252
 20
6.60495
 30
0.0
 11
92.7379
 21
6.21771
 31
0.0
  0
LINE
  8
0
 62
     0
 10
92.7379
 20
6.21771
 30
0.0
 11
92.4899
 21
5.72989
 31
0.0
  0
LINE
  8
0
 62
     0
 10
92.4899
 20
5.72989
 30
0.0
 11
92.4031
 21
5.1883
 31
0.0
  0
LINE
  8
0
 62
     0
 10
92.4031
 20
5.1883
 30
0.0
 11
92.4899
 21
4.64813
 31
0.0
  0
LINE
  8
0
 62
     0
 10
92.4899
 20
4.64813
 30
0.0
 11
92.7379
 21
4.16031
 31
0.0
  0
LINE
  8
0
 62
     0
 10
92.7379
 20
4.16031
 30
0.0
 11
93.1252
 21
3.77306
 31
0.0
  0
LINE
  8
0
 62
     0
 10
93.1252
 20
3.77306
 30
0.0
 11
93.6128
 21
3.52502
 31
0.0
  0
LINE
  8
0
 62
     0
 10
93.6128
 20
3.52502
 30
0.0
 11
94.1532
 21
3.4382
 31
0.0
  0
LINE
  8
0
 62
     0
 10
94.1532
 20
3.4382
 30
0.0
 11
94.6947
 21
3.52502
 31
0.0
  0
LINE
  8
0
 62
     0
 10
94.6947
 20
3.52502
 30
0.0
 11
95.1826
 21
3.77306
 31
0.0
  0
LINE
  8
0
 62
     0
 10
95.1826
 20
3.77306
 30
0.0
 11
95.5696
 21
4.16031
 31
0.0
  0
LINE
  8
0
 62
     0
 10
95.5696
 20
4.16031
 30
0.0
 11
95.819
 21
4.64813
 31
0.0
  0
LINE
  8
0
 62
     0
 10
95.819
 20
4.64813
 30
0.0
 11
95.9033
 21
5.1883
 31
0.0
  0
LINE
  8
0
 62
     0
 10
95.9033
 20
5.1883
 30
0.0
 11
95.819
 21
5.72989
 31
0.0
  0
LINE
  8
0
 62
     0
 10
95.819
 20
5.72989
 30
0.0
 11
95.5696
 21
6.21771
 31
0.0
  0
LINE
  8
0
 62
     0
 10
95.5696
 20
6.21771
 30
0.0
 11
95.1826
 21
6.60495
 31
0.0
  0
LINE
  8
0
 62
     0
 10
95.1826
 20
6.60495
 30
0.0
 11
94.6947
 21
6.85299
 31
0.0
  0
LINE
  8
0
 62
     0
 10
94.6947
 20
6.85299
 30
0.0
 11
94.1532
 21
6.93843
 31
0.0
  0
LINE
  8
0
 62
     0
 10
94.1532
 20
6.93843
 30
0.0
 11
93.6128
 21
6.85299
 31
0.0
  0
LINE
  8
0
 62
     0
 10
182.672
 20
6.85299
 30
0.0
 11
182.184
 21
6.60495
 31
0.0
  0
LINE
  8
0
 62
     0
 10
182.184
 20
6.60495
 30
0.0
 11
181.796
 21
6.21771
 31
0.0
  0
LINE
  8
0
 62
     0
 10
181.796
 20
6.21771
 30
0.0
 11
181.547
 21
5.72989
 31
0.0
  0
LINE
  8
0
 62
     0
 10
181.547
 20
5.72989
 30
0.0
 11
181.463
 21
5.1883
 31
0.0
  0
LINE
  8
0
 62
     0
 10
181.463
 20
5.1883
 30
0.0
 11
181.547
 21
4.64813
 31
0.0
  0
LINE
  8
0
 62
     0
 10
181.547
 20
4.64813
 30
0.0
 11
181.796
 21
4.16031
 31
0.0
  0
LINE
  8
0
 62
     0
 10
181.796
 20
4.16031
 30
0.0
 11
182.184
 21
3.77306
 31
0.0
  0
LINE
  8
0
 62
     0
 10
182.184
 20
3.77306
 30
0.0
 11
182.672
 21
3.52502
 31
0.0
  0
LINE
  8
0
 62
     0
 10
182.672
 20
3.52502
 30
0.0
 11
183.213
 21
3.4382
 31
0.0
  0
LINE
  8
0
 62
     0
 10
183.213
 20
3.4382
 30
0.0
 11
183.753
 21
3.52502
 31
0.0
  0
LINE
  8
0
 62
     0
 10
183.753
 20
3.52502
 30
0.0
 11
184.241
 21
3.77306
 31
0.0
  0
LINE
  8
0
 62
     0
 10
184.241
 20
3.77306
 30
0.0
 11
184.628
 21
4.16031
 31
0.0
  0
LINE
  8
0
 62
     0
 10
184.628
 20
4.16031
 30
0.0
 11
184.876
 21
4.64813
 31
0.0
  0
LINE
  8
0
 62
     0
 10
184.876
 20
4.64813
 30
0.0
 11
184.963
 21
5.1883
 31
0.0
  0
LINE
  8
0
 62
     0
 10
184.963
 20
5.1883
 30
0.0
 11
184.876
 21
5.72989
 31
0.0
  0
LINE
  8
0
 62
     0
 10
184.876
 20
5.72989
 30
0.0
 11
184.628
 21
6.21771
 31
0.0
  0
LINE
  8
0
 62
     0
 10
184.628
 20
6.21771
 30
0.0
 11
184.241
 21
6.60495
 31
0.0
  0
LINE
  8
0
 62
     0
 10
184.241
 20
6.60495
 30
0.0
 11
183.753
 21
6.85299
 31
0.0
  0
LINE
  8
0
 62
     0
 10
183.753
 20
6.85299
 30
0.0
 11
183.213
 21
6.93843
 31
0.0
  0
LINE
  8
0
 62
     0
 10
183.213
 20
6.93843
 30
0.0
 11
182.672
 21
6.85299
 31
0.0
  0
LINE
  8
0
 62
     0
 10
271.73
 20
6.85299
 30
0.0
 11
271.242
 21
6.60495
 31
0.0
  0
LINE
  8
0
 62
     0
 10
271.242
 20
6.60495
 30
0.0
 11
270.856
 21
6.21771
 31
0.0
  0
LINE
  8
0
 62
     0
 10
270.856
 20
6.21771
 30
0.0
 11
270.607
 21
5.72989
 31
0.0
  0
LINE
  8
0
 62
     0
 10
270.607
 20
5.72989
 30
0.0
 11
270.521
 21
5.1883
 31
0.0
  0
LINE
  8
0
 62
     0
 10
270.521
 20
5.1883
 30
0.0
 11
270.607
 21
4.64813
 31
0.0
  0
LINE
  8
0
 62
     0
 10
270.607
 20
4.64813
 30
0.0
 11
270.856
 21
4.16031
 31
0.0
  0
LINE
  8
0
 62
     0
 10
270.856
 20
4.16031
 30
0.0
 11
271.242
 21
3.77306
 31
0.0
  0
LINE
  8
0
 62
     0
 10
271.242
 20
3.77306
 30
0.0
 11
271.73
 21
3.52502
 31
0.0
  0
LINE
  8
0
 62
     0
 10
271.73
 20
3.52502
 30
0.0
 11
272.271
 21
3.4382
 31
0.0
  0
LINE
  8
0
 62
     0
 10
272.271
 20
3.4382
 30
0.0
 11
272.812
 21
3.52502
 31
0.0
  0
LINE
  8
0
 62
     0
 10
272.812
 20
3.52502
 30
0.0
 11
273.299
 21
3.77306
 31
0.0
  0
LINE
  8
0
 62
     0
 10
273.299
 20
3.77306
 30
0.0
 11
273.687
 21
4.16031
 31
0.0
  0
LINE
  8
0
 62
     0
 10
273.687
 20
4.16031
 30
0.0
 11
273.936
 21
4.64813
 31
0.0
  0
LINE
  8
0
 62
     0
 10
273.936
 20
4.64813
 30
0.0
 11
274.022
 21
5.1883
 31
0.0
  0
LINE
  8
0
 62
     0
 10
274.022
 20
5.1883
 30
0.0
 11
273.936
 21
5.72989
 31
0.0
  0
LINE
  8
0
 62
     0
 10
273.936
 20
5.72989
 30
0.0
 11
273.687
 21
6.21771
 31
0.0
  0
LINE
  8
0
 62
     0
 10
273.687
 20
6.21771
 30
0.0
 11
273.299
 21
6.60495
 31
0.0
  0
LINE
  8
0
 62
     0
 10
273.299
 20
6.60495
 30
0.0
 11
272.812
 21
6.85299
 31
0.0
  0
LINE
  8
0
 62
     0
 10
272.812
 20
6.85299
 30
0.0
 11
272.271
 21
6.93843
 31
0.0
  0
LINE
  8
0
 62
     0
 10
272.271
 20
6.93843
 30
0.0
 11
271.73
 21
6.85299
 31
0.0
  0
LINE
  8
0
 62
     0
 10
224.407
 20
48.2907
 30
0.0
 11
224.407
 21
29.2406
 31
0.0
  0
LINE
  8
0
 62
     0
 10
224.407
 20
29.2406
 30
0.0
 11
205.357
 21
29.2406
 31
0.0
  0
LINE
  8
0
 62
     0
 10
205.357
 20
29.2406
 30
0.0
 11
205.357
 21
10.1892
 31
0.0
  0
LINE
  8
0
 62
     0
 10
205.357
 20
10.1892
 30
0.0
 11
262.508
 21
10.1892
 31
0.0
  0
LINE
  8
0
 62
     0
 10
262.508
 20
10.1892
 30
0.0
 11
262.508
 21
29.2406
 31
0.0
  0
LINE
  8
0
 62
     0
 10
262.508
 20
29.2406
 30
0.0
 11
243.458
 21
29.2406
 31
0.0
  0
LINE
  8
0
 62
     0
 10
243.458
 20
29.2406
 30
0.0
 11
243.458
 21
48.2907
 31
0.0
  0
LINE
  8
0
 62
     0
 10
243.458
 20
48.2907
 30
0.0
 11
224.407
 21
48.2907
 31
0.0
  0
LINE
  8
0
 62
     0
 10
10.0941
 20
91.1532
 30
0.0
 11
10.0941
 21
34.0003
 31
0.0
  0
LINE
  8
0
 62
     0
 10
10.0941
 20
34.0003
 30
0.0
 11
29.1441
 21
34.0003
 31
0.0
  0
LINE
  8
0
 62
     0
 10
29.1441
 20
34.0003
 30
0.0
 11
29.1441
 21
14.9503
 31
0.0
  0
LINE
  8
0
 62
     0
 10
29.1441
 20
14.9503
 30
0.0
 11
200.597
 21
14.9503
 31
0.0
  0
LINE
  8
0
 62
     0
 10
200.597
 20
14.9503
 30
0.0
 11
200.597
 21
34.0003
 31
0.0
  0
LINE
  8
0
 62
     0
 10
200.597
 20
34.0003
 30
0.0
 11
219.647
 21
34.0003
 31
0.0
  0
LINE
  8
0
 62
     0
 10
219.647
 20
34.0003
 30
0.0
 11
219.647
 21
53.0504
 31
0.0
  0
LINE
  8
0
 62
     0
 10
219.647
 20
53.0504
 30
0.0
 11
238.697
 21
53.0504
 31
0.0
  0
LINE
  8
0
 62
     0
 10
238.697
 20
53.0504
 30
0.0
 11
238.697
 21
91.1532
 31
0.0
  0
LINE
  8
0
 62
     0
 10
238.697
 20
91.1532
 30
0.0
 11
10.0941
 21
91.1532
 31
0.0
  0
LINE
  8
0
 62
     0
 10
248.219
 20
91.1532
 30
0.0
 11
267.272
 21
91.1532
 31
0.0
  0
LINE
  8
0
 62
     0
 10
267.272
 20
91.1532
 30
0.0
 11
267.272
 21
34.0003
 31
0.0
  0
LINE
  8
0
 62
     0
 10
267.272
 20
34.0003
 30
0.0
 11
248.219
 21
34.0003
 31
0.0
  0
LINE
  8
0
 62
     0
 10
248.219
 20
34.0003
 30
0.0
 11
248.219
 21
91.1532
 31
0.0
  0
LINE
  8
0
 62
     0
 10
4.55443
 20
97.8172
 30
0.0
 11
4.06658
 21
97.5678
 31
0.0
  0
LINE
  8
0
 62
     0
 10
4.06658
 20
97.5678
 30
0.0
 11
3.67937
 21
97.1808
 31
0.0
  0
LINE
  8
0
 62
     0
 10
3.67937
 20
97.1808
 30
0.0
 11
3.42994
 21
96.6929
 31
0.0
  0
LINE
  8
0
 62
     0
 10
3.42994
 20
96.6929
 30
0.0
 11
3.34588
 21
96.1513
 31
0.0
  0
LINE
  8
0
 62
     0
 10
3.34588
 20
96.1513
 30
0.0
 11
3.42994
 21
95.6109
 31
0.0
  0
LINE
  8
0
 62
     0
 10
3.42994
 20
95.6109
 30
0.0
 11
3.67937
 21
95.1234
 31
0.0
  0
LINE
  8
0
 62
     0
 10
3.67937
 20
95.1234
 30
0.0
 11
4.06658
 21
94.7374
 31
0.0
  0
LINE
  8
0
 62
     0
 10
4.06658
 20
94.7374
 30
0.0
 11
4.55443
 21
94.488
 31
0.0
  0
LINE
  8
0
 62
     0
 10
4.55443
 20
94.488
 30
0.0
 11
5.09598
 21
94.4012
 31
0.0
  0
LINE
  8
0
 62
     0
 10
5.09598
 20
94.4012
 30
0.0
 11
5.63619
 21
94.488
 31
0.0
  0
LINE
  8
0
 62
     0
 10
5.63619
 20
94.488
 30
0.0
 11
6.12401
 21
94.7374
 31
0.0
  0
LINE
  8
0
 62
     0
 10
6.12401
 20
94.7374
 30
0.0
 11
6.50984
 21
95.1234
 31
0.0
  0
LINE
  8
0
 62
     0
 10
6.50984
 20
95.1234
 30
0.0
 11
6.75929
 21
95.6109
 31
0.0
  0
LINE
  8
0
 62
     0
 10
6.75929
 20
95.6109
 30
0.0
 11
6.84611
 21
96.1513
 31
0.0
  0
LINE
  8
0
 62
     0
 10
6.84611
 20
96.1513
 30
0.0
 11
6.75929
 21
96.6929
 31
0.0
  0
LINE
  8
0
 62
     0
 10
6.75929
 20
96.6929
 30
0.0
 11
6.50984
 21
97.1808
 31
0.0
  0
LINE
  8
0
 62
     0
 10
6.50984
 20
97.1808
 30
0.0
 11
6.12401
 21
97.5678
 31
0.0
  0
LINE
  8
0
 62
     0
 10
6.12401
 20
97.5678
 30
0.0
 11
5.63619
 21
97.8172
 31
0.0
  0
LINE
  8
0
 62
     0
 10
5.63619
 20
97.8172
 30
0.0
 11
5.09598
 21
97.9015
 31
0.0
  0
LINE
  8
0
 62
     0
 10
5.09598
 20
97.9015
 30
0.0
 11
4.55443
 21
97.8172
 31
0.0
  0
LINE
  8
0
 62
     0
 10
271.73
 20
97.8172
 30
0.0
 11
271.242
 21
97.5678
 31
0.0
  0
LINE
  8
0
 62
     0
 10
271.242
 20
97.5678
 30
0.0
 11
270.856
 21
97.1808
 31
0.0
  0
LINE
  8
0
 62
     0
 10
270.856
 20
97.1808
 30
0.0
 11
270.607
 21
96.6929
 31
0.0
  0
LINE
  8
0
 62
     0
 10
270.607
 20
96.6929
 30
0.0
 11
270.521
 21
96.1513
 31
0.0
  0
LINE
  8
0
 62
     0
 10
270.521
 20
96.1513
 30
0.0
 11
270.607
 21
95.6109
 31
0.0
  0
LINE
  8
0
 62
     0
 10
270.607
 20
95.6109
 30
0.0
 11
270.856
 21
95.1234
 31
0.0
  0
LINE
  8
0
 62
     0
 10
270.856
 20
95.1234
 30
0.0
 11
271.242
 21
94.7374
 31
0.0
  0
LINE
  8
0
 62
     0
 10
271.242
 20
94.7374
 30
0.0
 11
271.73
 21
94.488
 31
0.0
  0
LINE
  8
0
 62
     0
 10
271.73
 20
94.488
 30
0.0
 11
272.271
 21
94.4012
 31
0.0
  0
LINE
  8
0
 62
     0
 10
272.271
 20
94.4012
 30
0.0
 11
272.812
 21
94.488
 31
0.0
  0
LINE
  8
0
 62
     0
 10
272.812
 20
94.488
 30
0.0
 11
273.299
 21
94.7374
 31
0.0
  0
LINE
  8
0
 62
     0
 10
273.299
 20
94.7374
 30
0.0
 11
273.687
 21
95.1234
 31
0.0
  0
LINE
  8
0
 62
     0
 10
273.687
 20
95.1234
 30
0.0
 11
273.936
 21
95.6109
 31
0.0
  0
LINE
  8
0
 62
     0
 10
273.936
 20
95.6109
 30
0.0
 11
274.022
 21
96.1513
 31
0.0
  0
LINE
  8
0
 62
     0
 10
274.022
 20
96.1513
 30
0.0
 11
273.936
 21
96.6929
 31
0.0
  0
LINE
  8
0
 62
     0
 10
273.936
 20
96.6929
 30
0.0
 11
273.687
 21
97.1808
 31
0.0
  0
LINE
  8
0
 62
     0
 10
273.687
 20
97.1808
 30
0.0
 11
273.299
 21
97.5678
 31
0.0
  0
LINE
  8
0
 62
     0
 10
273.299
 20
97.5678
 30
0.0
 11
272.812
 21
97.8172
 31
0.0
  0
LINE
  8
0
 62
     0
 10
272.812
 20
97.8172
 30
0.0
 11
272.271
 21
97.9015
 31
0.0
  0
LINE
  8
0
 62
     0
 10
272.271
 20
97.9015
 30
0.0
 11
271.73
 21
97.8172
 31
0.0
  0
LINE
  8
0
 62
     0
 10
182.672
 20
97.8172
 30
0.0
 11
182.184
 21
97.5678
 31
0.0
  0
LINE
  8
0
 62
     0
 10
182.184
 20
97.5678
 30
0.0
 11
181.796
 21
97.1808
 31
0.0
  0
LINE
  8
0
 62
     0
 10
181.796
 20
97.1808
 30
0.0
 11
181.547
 21
96.6929
 31
0.0
  0
LINE
  8
0
 62
     0
 10
181.547
 20
96.6929
 30
0.0
 11
181.463
 21
96.1513
 31
0.0
  0
LINE
  8
0
 62
     0
 10
181.463
 20
96.1513
 30
0.0
 11
181.547
 21
95.6109
 31
0.0
  0
LINE
  8
0
 62
     0
 10
181.547
 20
95.6109
 30
0.0
 11
181.796
 21
95.1234
 31
0.0
  0
LINE
  8
0
 62
     0
 10
181.796
 20
95.1234
 30
0.0
 11
182.184
 21
94.7374
 31
0.0
  0
LINE
  8
0
 62
     0
 10
182.184
 20
94.7374
 30
0.0
 11
182.672
 21
94.488
 31
0.0
  0
LINE
  8
0
 62
     0
 10
182.672
 20
94.488
 30
0.0
 11
183.213
 21
94.4012
 31
0.0
  0
LINE
  8
0
 62
     0
 10
183.213
 20
94.4012
 30
0.0
 11
183.753
 21
94.488
 31
0.0
  0
LINE
  8
0
 62
     0
 10
183.753
 20
94.488
 30
0.0
 11
184.241
 21
94.7374
 31
0.0
  0
LINE
  8
0
 62
     0
 10
184.241
 20
94.7374
 30
0.0
 11
184.628
 21
95.1234
 31
0.0
  0
LINE
  8
0
 62
     0
 10
184.628
 20
95.1234
 30
0.0
 11
184.876
 21
95.6109
 31
0.0
  0
LINE
  8
0
 62
     0
 10
184.876
 20
95.6109
 30
0.0
 11
184.963
 21
96.1513
 31
0.0
  0
LINE
  8
0
 62
     0
 10
184.963
 20
96.1513
 30
0.0
 11
184.876
 21
96.6929
 31
0.0
  0
LINE
  8
0
 62
     0
 10
184.876
 20
96.6929
 30
0.0
 11
184.628
 21
97.1808
 31
0.0
  0
LINE
  8
0
 62
     0
 10
184.628
 20
97.1808
 30
0.0
 11
184.241
 21
97.5678
 31
0.0
  0
LINE
  8
0
 62
     0
 10
184.241
 20
97.5678
 30
0.0
 11
183.753
 21
97.8172
 31
0.0
  0
LINE
  8
0
 62
     0
 10
183.753
 20
97.8172
 30
0.0
 11
183.213
 21
97.9015
 31
0.0
  0
LINE
  8
0
 62
     0
 10
183.213
 20
97.9015
 30
0.0
 11
182.672
 21
97.8172
 31
0.0
  0
LINE
  8
0
 62
     0
 10
93.6128
 20
97.8172
 30
0.0
 11
93.1252
 21
97.5678
 31
0.0
  0
LINE
  8
0
 62
     0
 10
93.1252
 20
97.5678
 30
0.0
 11
92.7379
 21
97.1808
 31
0.0
  0
LINE
  8
0
 62
     0
 10
92.7379
 20
97.1808
 30
0.0
 11
92.4899
 21
96.6929
 31
0.0
  0
LINE
  8
0
 62
     0
 10
92.4899
 20
96.6929
 30
0.0
 11
92.4031
 21
96.1513
 31
0.0
  0
LINE
  8
0
 62
     0
 10
92.4031
 20
96.1513
 30
0.0
 11
92.4899
 21
95.6109
 31
0.0
  0
LINE
  8
0
 62
     0
 10
92.4899
 20
95.6109
 30
0.0
 11
92.7379
 21
95.1234
 31
0.0
  0
LINE
  8
0
 62
     0
 10
92.7379
 20
95.1234
 30
0.0
 11
93.1252
 21
94.7374
 31
0.0
  0
LINE
  8
0
 62
     0
 10
93.1252
 20
94.7374
 30
0.0
 11
93.6128
 21
94.488
 31
0.0
  0
LINE
  8
0
 62
     0
 10
93.6128
 20
94.488
 30
0.0
 11
94.1532
 21
94.4012
 31
0.0
  0
LINE
  8
0
 62
     0
 10
94.1532
 20
94.4012
 30
0.0
 11
94.6947
 21
94.488
 31
0.0
  0
LINE
  8
0
 62
     0
 10
94.6947
 20
94.488
 30
0.0
 11
95.1826
 21
94.7374
 31
0.0
  0
LINE
  8
0
 62
     0
 10
95.1826
 20
94.7374
 30
0.0
 11
95.5696
 21
95.1234
 31
0.0
  0
LINE
  8
0
 62
     0
 10
95.5696
 20
95.1234
 30
0.0
 11
95.819
 21
95.6109
 31
0.0
  0
LINE
  8
0
 62
     0
 10
95.819
 20
95.6109
 30
0.0
 11
95.9033
 21
96.1513
 31
0.0
  0
LINE
  8
0
 62
     0
 10
95.9033
 20
96.1513
 30
0.0
 11
95.819
 21
96.6929
 31
0.0
  0
LINE
  8
0
 62
     0
 10
95.819
 20
96.6929
 30
0.0
 11
95.5696
 21
97.1808
 31
0.0
  0
LINE
  8
0
 62
     0
 10
95.5696
 20
97.1808
 30
0.0
 11
95.1826
 21
97.5678
 31
0.0
  0
LINE
  8
0
 62
     0
 10
95.1826
 20
97.5678
 30
0.0
 11
94.6947
 21
97.8172
 31
0.0
  0
LINE
  8
0
 62
     0
 10
94.6947
 20
97.8172
 30
0.0
 11
94.1532
 21
97.9015
 31
0.0
  0
LINE
  8
0
 62
     0
 10
94.1532
 20
97.9015
 30
0.0
 11
93.6128
 21
97.8172
 31
0.0
  0
ENDSEC
  0
EOF
